<svg xmlns="http://www.w3.org/2000/svg" width="17" height="18" viewBox="0 0 17 18">
  <defs>
    <style>
      .cls-1 {
        fill: #fff;
        fill-rule: evenodd;
      }
    </style>
  </defs>
  <path id="Icon" class="cls-1" d="M265.219,1746.99c1.757,0,2.8,1.42,2.8,3.41,0,5.3-4.625,8.95-6.519,10.25-1.894-1.3-6.507-4.95-6.507-10.25,0-1.99,1.031-3.41,2.788-3.41a3.059,3.059,0,0,1,2.48,1.34,1.539,1.539,0,0,0,1.239.67h0a1.538,1.538,0,0,0,1.239-.67,3.059,3.059,0,0,1,2.48-1.34m0-1.99a4.575,4.575,0,0,0-3.719,2.01,4.576,4.576,0,0,0-3.719-2.01c-2.64,0-4.781,2.42-4.781,5.4,0,7.2,7.437,12,8.5,12.6,1.063-.6,8.5-5.4,8.5-12.6,0-2.98-2.141-5.4-4.781-5.4h0Z" transform="translate(-253 -1745)"/>
</svg>
