<svg xmlns="http://www.w3.org/2000/svg" width="12" height="15.938" viewBox="0 0 12 15.938">
  <defs>
    <style>
      .cls-1 {
        fill: #3c3d48;
        fill-rule: evenodd;
      }
    </style>
  </defs>
  <path id="Icon-lock" class="cls-1" d="M974,46.991h-1V46.085a4,4,0,1,0-8,0v0.907h-1a1.1,1.1,0,0,0-1,1.108v5.992a3.926,3.926,0,0,0,3.991,3.921H971a3.935,3.935,0,0,0,4-3.931V48.1A1.1,1.1,0,0,0,974,46.991Zm-7-.907a2,2,0,1,1,4,0v0.907h-4V46.085Zm6,8A1.927,1.927,0,0,1,971,56h-4.008A1.917,1.917,0,0,1,965,54.092V49.007h8v5.075Zm-6.449-2.059,0.092,0.046a5.264,5.264,0,0,0,4.716,0l0.09-.046a1.012,1.012,0,0,0,.445-1.353,1,1,0,0,0-1.343-.448l-0.089.045a3.259,3.259,0,0,1-2.922,0l-0.091-.046a1,1,0,0,0-1.343.448A1.012,1.012,0,0,0,966.551,52.023Z" transform="translate(-963 -42.063)"/>
</svg>
