<svg xmlns="http://www.w3.org/2000/svg" width="7" height="4" viewBox="0 0 7 4">
  <defs>
    <style>
      .cls-1 {
        fill: #e36556;
        fill-rule: evenodd;
      }
    </style>
  </defs>
  <path id="Icon-select" class="cls-1" d="M864.2,49.117h0a0.628,0.628,0,0,1-.2-0.45A0.713,0.713,0,0,1,864.75,48a0.789,0.789,0,0,1,.551.218l0,0,2.2,2.131,2.2-2.131v0A0.791,0.791,0,0,1,870.25,48a0.713,0.713,0,0,1,.75.667,0.624,0.624,0,0,1-.2.45h0l-2.75,2.667a0.815,0.815,0,0,1-1.106,0Z" transform="translate(-864 -48)"/>
</svg>
