<svg id="Dribbble" xmlns="http://www.w3.org/2000/svg" width="26" height="26" viewBox="0 0 26 26">
  <defs>
    <style>
      .cls-1 {
        fill: #9ba5a8;
      }

      .cls-2 {
        fill: #fff;
        fill-rule: evenodd;
      }
    </style>
  </defs>
  <circle id="Base" class="cls-1" cx="13" cy="13" r="13"/>
  <path id="Icon" class="cls-2" d="M851,2862a7,7,0,1,1,7-7A7.008,7.008,0,0,1,851,2862Zm5.9-6.04a8.643,8.643,0,0,0-3.724-.26,25.768,25.768,0,0,1,1.162,4.27A6.008,6.008,0,0,0,856.9,2855.96Zm-3.567,4.55a24.894,24.894,0,0,0-1.276-4.53c-0.013,0-.026.01-0.039,0.01a8.215,8.215,0,0,0-4.691,3.74,5.952,5.952,0,0,0,3.67,1.26A5.879,5.879,0,0,0,853.336,2860.51Zm-6.778-1.5a9.507,9.507,0,0,1,4.86-3.95c0.078-.02.157-0.05,0.236-0.07-0.15-.34-0.314-0.68-0.485-1.01a22.42,22.42,0,0,1-6.145.85q0,0.09,0,.18A5.971,5.971,0,0,0,846.558,2859.01Zm-1.411-5.23a21.887,21.887,0,0,0,5.528-.72,36.012,36.012,0,0,0-2.217-3.46A6,6,0,0,0,845.147,2853.78Zm4.452-4.58a31.853,31.853,0,0,1,2.231,3.5,6.807,6.807,0,0,0,3.134-2.16A5.934,5.934,0,0,0,849.6,2849.2Zm6.029,2.03a8.034,8.034,0,0,1-3.339,2.36c0.14,0.28.273,0.57,0.4,0.86,0.044,0.1.087,0.21,0.129,0.31a14.078,14.078,0,0,1,4.163.19A5.944,5.944,0,0,0,855.628,2851.23Z" transform="translate(-838 -2842)"/>
</svg>
