<svg xmlns="http://www.w3.org/2000/svg" width="4" height="7" viewBox="0 0 4 7">
  <defs>
    <style>
      .cls-1 {
        fill: #fff;
        fill-rule: evenodd;
      }
    </style>
  </defs>
  <path id="Icon-Arrow" class="cls-1" d="M1048.12,2963.8h0a0.646,0.646,0,0,1-.45.2,0.716,0.716,0,0,1-.67-0.75,0.762,0.762,0,0,1,.22-0.55h0l2.13-2.2-2.13-2.2h0a0.762,0.762,0,0,1-.22-0.55,0.716,0.716,0,0,1,.67-0.75,0.646,0.646,0,0,1,.45.2h0l2.66,2.75a0.8,0.8,0,0,1,0,1.1Z" transform="translate(-1047 -2957)"/>
</svg>
