<svg xmlns="http://www.w3.org/2000/svg" width="15" height="20" viewBox="0 0 15 20">
  <defs>
    <style>
      .cls-1 {
        fill: #fff;
        fill-rule: evenodd;
      }
    </style>
  </defs>
  <path id="Icon" class="cls-1" d="M223.008,1750v-2.51c0-2.15-2.278-3.49-4.509-3.49s-4.509,1.34-4.509,3.49V1750l-2.99-.02c0,0.12,0,11.26,0,11.26a2.822,2.822,0,0,0,2.872,2.76h9.248a2.822,2.822,0,0,0,2.872-2.76s-0.021-11.26,0-11.26C225.983,1749.97,223.008,1750,223.008,1750Zm-7.019-2.52c0-1.02,1.477-1.75,2.51-1.75s2.48,0.62,2.48,1.75V1750h-4.99v-2.52ZM224,1760.92a1.072,1.072,0,0,1-1.091,1.05h-8.822a1.071,1.071,0,0,1-1.091-1.05s0-8.93,0-8.94,8.435,0,11.018.01C224,1751.98,224,1760.92,224,1760.92Zm-2.863-6.72a4.548,4.548,0,0,1-5.267,0,0.912,0.912,0,0,0-1.255.1,0.838,0.838,0,0,0,.1,1.21,6.025,6.025,0,0,0,7.577,0,0.838,0.838,0,0,0,.1-1.21A0.912,0.912,0,0,0,221.133,1754.2Z" transform="translate(-211 -1744)"/>
</svg>
