<svg xmlns="http://www.w3.org/2000/svg" width="39" height="23" viewBox="0 0 39 23">
  <defs>
    <style>
      .cls-1 {
        fill: #3c3d48;
        fill-rule: evenodd;
        opacity: 0.5;
      }
    </style>
  </defs>
  <path id="MasterCard" class="cls-1" d="M137.932,3088.12a0.417,0.417,0,0,0,.471.47,1.071,1.071,0,0,0,.942-1.16h-0.314C138.325,3087.43,137.932,3087.66,137.932,3088.12Zm20.084,0a0.417,0.417,0,0,0,.471.47,1.071,1.071,0,0,0,.942-1.16h-0.314C158.33,3087.43,158.016,3087.66,158.016,3088.12Zm-9.571-2.31a0.851,0.851,0,0,0-.784.85h1.412A0.632,0.632,0,0,0,148.445,3085.81Zm17.024,0.15a1.424,1.424,0,0,0-1.02,1.62c0,0.62.236,0.93,0.628,0.93,0.628,0,1.02-.7,1.02-1.62C166.175,3086.27,165.94,3085.96,165.469,3085.96Zm-8.159-10.95a11.866,11.866,0,0,0-7.845,2.93,11.5,11.5,0,1,0,0,17.13A11.6,11.6,0,1,0,157.31,3075.01Zm-22.359,14.58,0.706-4.48-1.647,4.48h-0.863l-0.078-4.48-0.785,4.48h-1.177l1.02-5.86h1.8l0.079,3.62,1.255-3.62h1.961l-1.019,5.86h-1.256Zm4.237,0v-0.46a1.648,1.648,0,0,1-1.334.54,1.191,1.191,0,0,1-1.177-1.32c0-1.15.785-1.85,2.2-1.85h0.549a0.564,0.564,0,0,0,.079-0.31c0-.3-0.236-0.46-0.785-0.46a4.339,4.339,0,0,0-1.334.23c0-.07.157-1.08,0.157-1.08a6.079,6.079,0,0,1,1.491-.23c1.1,0,1.647.46,1.647,1.39a4.444,4.444,0,0,1-.078.93c-0.079.69-.314,2.16-0.392,2.54A5.11,5.11,0,0,1,139.188,3089.59Zm3.765-2.86a1.321,1.321,0,0,1,.863,1.32c0,1.08-.627,1.62-1.961,1.62a4.183,4.183,0,0,1-1.334-.16c0-.08.157-1.08,0.157-1.08a3,3,0,0,0,1.177.16c0.471,0,.706-0.16.706-0.47,0-.23-0.078-0.31-0.627-0.54a1.287,1.287,0,0,1-.942-1.31c0-.85.471-1.62,1.883-1.62,0.314,0,.785.08,1.1,0.08l-0.157,1.08a3.741,3.741,0,0,0-.941-0.08c-0.392,0-.628.16-0.628,0.39A0.819,0.819,0,0,0,142.953,3086.73Zm2.746,1.78a0.373,0.373,0,0,0,.314-0.08l-0.157,1.08a3.865,3.865,0,0,1-.941.16,0.964,0.964,0,0,1-1.02-1.08,10.081,10.081,0,0,1,.157-1.24l0.549-3.24h1.255l-0.157.7h0.628l-0.157,1.15h-0.628c-0.156.93-.392,2.01-0.392,2.16A0.69,0.69,0,0,0,145.7,3088.51Zm2.981,0.08a2.828,2.828,0,0,0,1.334-.31l-0.235,1.15a3.817,3.817,0,0,1-1.334.16,1.858,1.858,0,0,1-2.118-2.08c0-1.62.941-2.86,2.2-2.86a1.638,1.638,0,0,1,1.726,1.7,6.987,6.987,0,0,1-.157,1.16h-2.511A0.926,0.926,0,0,0,148.68,3088.59Zm2.825,1H150.25l0.078-.31c0.235-1.47.471-2.93,0.628-4.4h1.176c0,0.23-.078.47-0.078,0.7a1.289,1.289,0,0,1,1.255-.77,3.538,3.538,0,0,0-.471,1.38C152.054,3086.12,151.976,3086.66,151.505,3089.59Zm4.864-.08a3.009,3.009,0,0,1-1.1.16c-1.334,0-2.2-1.01-2.2-2.55,0-2.08,1.177-3.55,2.9-3.55a4.717,4.717,0,0,1,1.412.31l-0.236,1.23a2.378,2.378,0,0,0-1.1-.3,1.906,1.906,0,0,0-1.647,2.16,1.212,1.212,0,0,0,1.176,1.38,2.385,2.385,0,0,0,1.1-.3Zm3.922,0.08h-1.019v-0.46a1.648,1.648,0,0,1-1.334.54,1.191,1.191,0,0,1-1.177-1.32c0-1.15.785-1.85,2.2-1.85h0.549a0.569,0.569,0,0,0,.078-0.31c0-.3-0.235-0.46-0.784-0.46a4.333,4.333,0,0,0-1.334.23c0-.07.157-1.08,0.157-1.08a6.079,6.079,0,0,1,1.491-.23c1.1,0,1.647.46,1.647,1.39a4.444,4.444,0,0,1-.078.93A23.375,23.375,0,0,0,160.291,3089.59Zm1.726,0h-1.255l0.079-.31c0.235-1.47.47-2.93,0.627-4.4h1.177c0,0.23-.078.47-0.078,0.7a1.289,1.289,0,0,1,1.255-.77,3.538,3.538,0,0,0-.471,1.38C162.567,3086.12,162.41,3086.66,162.017,3089.59Zm3.766,0,0.079-.46a1.439,1.439,0,0,1-1.177.54c-0.942,0-1.569-.78-1.569-2.01,0-1.54.941-2.93,2.039-2.93a1.488,1.488,0,0,1,1.177.62l0.314-1.7H167.9l-0.941,5.86h-1.177v0.08Z" transform="translate(-130 -3075)"/>
</svg>
