<svg xmlns="http://www.w3.org/2000/svg" width="17" height="17" viewBox="0 0 17 17">
  <defs>
    <style>
      .cls-1 {
        fill: #5b5d69;
        fill-rule: evenodd;
      }
    </style>
  </defs>
  <path id="Icon-clock" class="cls-1" d="M168.5,2724a8.5,8.5,0,1,1,8.5-8.5A8.508,8.508,0,0,1,168.5,2724Zm0-15.01a6.51,6.51,0,1,0,6.511,6.51A6.518,6.518,0,0,0,168.5,2708.99Zm2.5,8.02h-3.311a0.719,0.719,0,0,1-.7-0.73V2712a0.964,0.964,0,0,1,1.048-1,0.93,0.93,0,0,1,.951,1v3H171a0.94,0.94,0,0,1,.983.97A0.911,0.911,0,0,1,171,2717.01Z" transform="translate(-160 -2707)"/>
</svg>
