<svg xmlns="http://www.w3.org/2000/svg" width="52" height="16" viewBox="0 0 52 16">
  <defs>
    <style>
      .cls-1 {
        fill: #3c3d48;
        fill-rule: evenodd;
        opacity: 0.5;
      }
    </style>
  </defs>
  <path id="AmericanExpress" class="cls-1" d="M362.4,3089.11h4.972v1.27h-3.45v1.09h3.354v1.12h-3.354v1.15h3.45v1.23H362.4v-5.86Zm14.58,2.29c1.869,0.09,2.025.97,2.025,1.91a1.775,1.775,0,0,1-1.95,1.69h-3.195v-1.26h2.49c0.422,0,1.05,0,1.05-.56,0-.27-0.11-0.44-0.56-0.48-0.2-.03-0.939-0.07-1.05-0.07-1.689-.04-2.082-0.84-2.082-1.8a1.665,1.665,0,0,1,1.812-1.7h3.2v1.25h-2.339c-0.531.01-1.105-.06-1.105,0.51,0,0.36.282,0.43,0.642,0.47C376.041,3091.36,376.87,3091.4,376.982,3091.4Zm-5.727,0c1.869,0.09,2.026.97,2.026,1.91a1.774,1.774,0,0,1-1.951,1.69h-3.194v-1.26h2.489c0.422,0,1.052,0,1.052-.56,0-.27-0.111-0.44-0.561-0.48-0.2-.03-0.94-0.07-1.051-0.07-1.689-.04-2.081-0.84-2.081-1.8a1.665,1.665,0,0,1,1.812-1.7h3.195v1.25h-2.338c-0.532.01-1.106-.06-1.106,0.51,0,0.36.283,0.43,0.643,0.47C370.314,3091.36,371.145,3091.4,371.255,3091.4Zm-18.036-2.27H347.88l-1.742,1.81-1.687-1.83h-6v5.86h5.8l1.825-1.93,1.784,1.95h2.918V3093h2.047c0.788,0,2.226-.03,2.226-2.08A1.671,1.671,0,0,0,353.219,3089.13Zm-9.757,4.61h-3.506v-1.15h3.354v-1.12h-3.354v-1.09h3.7l1.481,1.6Zm5.815,0.68-2.185-2.44,2.185-2.29v4.73Zm3.43-2.63h-1.895v-1.41h1.9A0.716,0.716,0,1,1,352.707,3091.79Zm7.859,0.53a1.656,1.656,0,0,0-.774-3.19h-3.954v5.86h1.521v-2.07h1.991a0.858,0.858,0,0,1,.746.99l0.042,1.08h1.48l-0.055-1.21C361.563,3092.84,361.287,3092.4,360.566,3092.32Zm-1.313-.61h-1.894v-1.33h1.9a0.716,0.716,0,0,1,.836.68C360.1,3091.45,359.876,3091.71,359.253,3091.71Zm-1.285-6.84V3079h-1.521v5.87h1.521Zm-13.974-5.86h4.972v1.26h-3.449v1.1h3.352v1.11h-3.352v1.15h3.449v1.24h-4.972v-5.86Zm10.6,3.19a1.656,1.656,0,0,0-.775-3.19h-3.955v5.86h1.522v-2.07h1.99a0.853,0.853,0,0,1,.747.99l0.043,1.08h1.479l-0.055-1.21C355.6,3082.72,355.318,3082.27,354.6,3082.2Zm-1.314-.61h-1.894v-1.33h1.9a0.716,0.716,0,0,1,.836.68C354.128,3081.33,353.908,3081.59,353.285,3081.59Zm-12.8-2.58-1.866,3.93-1.861-3.93h-2.385v5.64l-2.656-5.64h-2.012L327,3084.87H328.6l0.593-1.31h3.037l0.6,1.31H335.9v-4.36l2.032,4.36h1.384l2.081-4.28v4.28h1.522v-5.86h-2.428Zm-10.718,3.28,0.908-2.05,0.945,2.05h-1.853Zm43.9-3.29v4.06L371.1,3079h-2.248v5.51l-2.593-5.5h-2.013l-2.1,4.53s-0.885,0-.974-0.02a1.169,1.169,0,0,1-.948-1.35v-0.42c0-1.37.789-1.47,1.8-1.47h0.939V3079h-1.986c-0.692,0-2.2.5-2.246,2.91-0.035,1.62.712,2.96,2.4,2.96h2.006l0.594-1.31h3.036l0.6,1.31h3v-4.29l2.738,4.29h2.075V3079h-1.521Zm-9.343,3.3,0.906-2.05,0.954,2.05h-1.86Z" transform="translate(-327 -3079)"/>
</svg>
