<svg xmlns="http://www.w3.org/2000/svg" viewBox="0 0 325 325"><title>sns-wechat</title><g id="Layer_2" data-name="Layer 2"><g id="레이어_1" data-name="레이어 1"><rect width="325" height="325" rx="40" ry="40" fill="#2dc100"/><g id="_Group_" data-name="&lt;Group&gt;"><path id="_Compound_Path_" data-name="&lt;Compound Path&gt;" d="M210.74,125.95c-23,1.2-43,8.17-59.22,23.92-16.4,15.91-23.89,35.4-21.84,59.57-9-1.11-17.17-2.34-25.4-3a15.78,15.78,0,0,0-8.63,1.46c-8,4.51-15.66,9.6-24.74,15.28,1.67-7.54,2.75-14.14,4.65-20.49,1.4-4.67.75-7.26-3.54-10.3-27.6-19.49-39.24-48.65-30.53-78.67,8.06-27.78,27.84-44.62,54.72-53.4,36.69-12,77.92.24,100.23,29.37a68.65,68.65,0,0,1,14.3,36.3Zm-105.82-9.36A10.6,10.6,0,0,0,94.72,106a10.3,10.3,0,0,0-10.72,10A10.17,10.17,0,0,0,94.09,126.5a10.47,10.47,0,0,0,10.84-9.91ZM160.13,106a10.61,10.61,0,0,0-10.37,10.45,10.35,10.35,0,0,0,10.64,10.12,10.28,10.28,0,1,0-.27-20.56Z" fill="#fff"/><path id="_Compound_Path_2" data-name="&lt;Compound Path&gt;" d="M262.4,269.29c-7.28-3.24-14-8.11-21.07-8.85s-14.53,3.35-21.94,4.1c-22.57,2.31-42.8-4-59.47-19.4-31.71-29.33-27.18-74.31,9.51-98.35,32.61-21.36,80.43-14.24,103.43,15.4,20.06,25.87,17.71,60.2-6.79,81.93-7.09,6.29-9.64,11.46-5.09,19.76.84,1.53.94,3.47,1.42,5.4ZM179.52,189a8.57,8.57,0,1,0,.06-17.13,8.57,8.57,0,1,0-.06,17.13Zm53.43-17.11a8.57,8.57,0,0,0-8.5,8.19,8.45,8.45,0,1,0,8.5-8.19Z" fill="#fff"/></g></g></g></svg>