<svg xmlns="http://www.w3.org/2000/svg" viewBox="0 0 170 24">
  <path fill="#FFF" clip-rule="evenodd" fill-rule="evenodd" d="M20.4 8.2l-9.3 9.3c-.4.4-.4 1 0 1.4.4.4 1 .4 1.4 0l9.3-9.3c.6-.6 1.5-1 2.4-1 .9 0 1.8.4 2.4 1 1.3 1.3 1.3 3.5 0 4.8l-7.5 7.5c-.4.4-.4 1 0 1.4.2.2.4.3.7.3.2 0 .5-.1.7-.3l7.5-7.5c2.1-2.1 2.1-5.5 0-7.6-2.1-2.1-5.5-2.1-7.6 0zM4.9 12.7c.2.2.5.3.7.3.2 0 .5-.1.7-.3l9.3-9.3c.6-.6 1.5-1 2.4-1 .9 0 1.8.4 2.4 1 .4.4 1 .4 1.4 0 .4-.4.4-1 0-1.4-1-1-2.4-1.6-3.8-1.6S15.2 1 14.2 2l-9.3 9.3c-.3.4-.3 1 0 1.4zm20-1.4c-.4-.4-1-.4-1.4 0l-9.3 9.3c-1.3 1.3-3.5 1.3-4.8 0-.4-.4-1-.4-1.4 0-.4.4-.4 1 0 1.4 1 1 2.4 1.6 3.8 1.6s2.7-.5 3.8-1.6l9.3-9.3c.3-.4.3-1 0-1.4zm-6.2-4.8c.4-.4.4-1 0-1.4-.4-.4-1-.4-1.4 0L8 14.4c-1.3 1.3-3.5 1.3-4.8 0-.6-.6-1-1.5-1-2.4s.4-1.8 1-2.4l7.5-7.5c.4-.4.4-1 0-1.4-.4-.4-1-.4-1.4 0L1.8 8.2c-2.1 2.1-2.1 5.5 0 7.6 1 1 2.4 1.6 3.8 1.6s2.7-.5 3.8-1.6l9.3-9.3zm110.9-.9h-4.5v11.8h1.4v-4.2h2.9c2.6 0 4.7-1.3 4.7-3.9 0-2.3-1.8-3.7-4.5-3.7zm3.2 3.9c0 1.6-1.3 2.6-3.3 2.6h-3V6.9h3c2 0 3.3.8 3.3 2.6zm7.1-4l-5.5 11.9h1.4l1.4-3.1h6.5l1.4 3.1h1.5l-5.5-11.9h-1.2zm-2.2 7.6l2.7-6 2.7 6h-5.4zm16.1 3.3c-2.6 0-4.7-2.1-4.7-4.9 0-2.7 2-4.8 4.7-4.8 1.6 0 2.8.7 3.8 1.6l.9-1c-1.2-1.1-2.5-1.9-4.7-1.9-3.5 0-6.1 2.8-6.1 6.1 0 3.4 2.6 6.1 6 6.1 2.2 0 3.6-.8 4.8-2.1l-.9-.9c-1.1 1.2-2.1 1.8-3.8 1.8zM42.7 10.9c-2.6-.6-3.3-1.2-3.3-2.3 0-1.1 1-1.9 2.6-1.9 1.2 0 2.4.4 3.5 1.3l.8-1c-1.2-1-2.5-1.5-4.2-1.5-2.3 0-4 1.4-4 3.2 0 1.9 1.3 2.8 4 3.4 2.5.5 3.1 1.1 3.1 2.2 0 1.2-1.1 2-2.7 2-1.7 0-2.9-.6-4.1-1.7l-.8 1c1.4 1.3 3 1.9 4.9 1.9 2.4 0 4.1-1.3 4.1-3.3.1-1.8-1.2-2.7-3.9-3.3zm57-1.7c0-1-.3-1.8-.9-2.4-.8-.7-1.9-1.2-3.4-1.2h-5.2v11.8h1.4v-4.6H95l3.5 4.6h1.7l-3.7-4.8c1.8-.3 3.2-1.5 3.2-3.4zm-8.1 2.5V6.9h3.7c1.9 0 3.1.9 3.1 2.3 0 1.5-1.3 2.4-3.1 2.4h-3.7zm70.7 4.5v-4.1h6.6v-1.2h-6.6v-4h7.3V5.6h-8.7v11.8h8.8v-1.2h-7.4zM104 12.1h6.6v-1.2H104v-4h7.3V5.6h-8.7v11.8h8.8v-1.2H104v-4.1zM81.1 5.5l-5.5 11.9H77l1.4-3.1H85l1.4 3.1h1.5L82.4 5.5h-1.3zM79 13.1l2.7-6 2.7 6H79zm-17.8-1.6c0-3.3-2.5-6.1-6.1-6.1-3.7 0-6.2 2.9-6.2 6.1 0 3.3 2.5 6.1 6.1 6.1 1.5 0 2.8-.5 3.8-1.3l1.6 1.4.9-1-1.6-1.3c.9-1 1.5-2.4 1.5-3.9zm-2.5 3.1l-2.2-2-.9 1 2.2 1.9c-.7.6-1.7.9-2.8.9-2.7 0-4.7-2.2-4.7-4.9s2-4.8 4.7-4.8 4.7 2.2 4.7 4.9c0 1.1-.3 2.2-1 3zm13.8-2.1c0 2.6-1.4 3.9-3.6 3.9-2.3 0-3.7-1.4-3.7-4V5.6h-1.4v6.9c0 3.3 2 5.1 5 5.1s5-1.8 5-5.2V5.6h-1.4v6.9zm45.9-1.6c-2.6-.6-3.3-1.2-3.3-2.3 0-1.1 1-1.9 2.6-1.9 1.2 0 2.4.4 3.5 1.3l.8-1c-1.2-1-2.5-1.5-4.2-1.5-2.3 0-4 1.4-4 3.2 0 1.9 1.3 2.8 4 3.4 2.5.5 3.1 1.1 3.1 2.2 0 1.2-1.1 2-2.7 2-1.7 0-2.9-.6-4.1-1.7l-.8 1c1.4 1.3 3 1.9 4.9 1.9 2.4 0 4.1-1.3 4.1-3.3.1-1.8-1.2-2.7-3.9-3.3z"></path>
</svg>