<?xml version="1.0"?>
<!--Icons from directory ""-->
<svg xmlns="http://www.w3.org/2000/svg" width="132" height="1632" viewBox="0 0 132 1632"><svg viewBox="0 0 42.94 47.91" width="100" height="100" id="alam" y="0"><title>icon-alam</title><g id="alam-Layer_2" data-name="Layer 2"><g id="alam-&#xB808;&#xC774;&#xC5B4;_1" data-name="&#xB808;&#xC774;&#xC5B4; 1"><path d="m42.15 39.16c-5.09-2.3-5.29-12.17-5.29-12.42v-6.62a15.41 15.41 0 0 0 -9.43 -14.18 6 6 0 0 0 -11.92 0 15.41 15.41 0 0 0 -9.43 14.18v6.62c0 0.25-0.2 10.12-5.29 12.42a1.35 1.35 0 0 0 0.56 2.58h12.91a7.59 7.59 0 0 0 2 3.91 7.13 7.13 0 0 0 10.41 0 7.59 7.59 0 0 0 2 -3.91h12.92a1.35 1.35 0 0 0 0.56 -2.58zm-6.71-4.73a15 15 0 0 0 2.37 4.57h-32.68a15 15 0 0 0 2.37 -4.56zm-13.97-31.73a3.26 3.26 0 0 1 3.13 2.36 15.47 15.47 0 0 0 -6.26 0 3.26 3.26 0 0 1 3.13 -2.36zm-12.68 24.05v-6.63a12.68 12.68 0 1 1 25.37 0v6.64a28.2 28.2 0 0 0 0.57 5h-26.52a28.22 28.22 0 0 0 0.57 -5zm12.68 18.46a4.74 4.74 0 0 1 -4.47 -3.46h8.88a4.74 4.74 0 0 1 -4.44 3.46z" fill="#666"/></g></g></svg><svg viewBox="0 0 65.08 60.62" width="100" height="100" id="cart" y="100"><title>icon-cart</title><g id="cart-Layer_2" data-name="Layer 2"><g id="cart-&#xB808;&#xC774;&#xC5B4;_1" data-name="&#xB808;&#xC774;&#xC5B4; 1"><path d="m64.67 11a1.81 1.81 0 0 0 -1.4 -0.66h-51.83l-1.72-8.87a1.81 1.81 0 0 0 -1.78 -1.47h-6.13a1.81 1.81 0 1 0 0 3.63h4.63l7.81 40.87a1.81 1.81 0 0 0 1.75 1.5h6.41a7.37 7.37 0 1 0 2.63 0h23.59a7.37 7.37 0 1 0 2.63 0h5.52a1.81 1.81 0 1 0 0 -3.63h-39.22l-0.56-3.16h41.26a1.81 1.81 0 0 0 1.74 -1.47l5-25.24a1.81 1.81 0 0 0 -0.38 -1.5zm-11 42.24a3.75 3.75 0 1 1 -3.75 -3.75 3.75 3.75 0 0 1 3.75 3.75zm-26.19 0a3.75 3.75 0 1 1 -3.75 -3.75 3.75 3.75 0 0 1 3.75 3.75zm-11.15-17.66-2.46-12.69h6.85l2.08 12.69zm18.46 0h-8.32l-2.08-12.69h10.4zm12.07 0h-8.45v-12.69h10.27zm9.92 0h-6.26l1.82-12.69h6.95zm3.22-16.32h-46.83l-1-5.29h48.89z" fill="#666"/></g></g></svg><svg viewBox="0 0 69.2 57.66" width="100" height="100" id="contact" y="200"><title>icon-contact</title><g id="contact-Layer_2" data-name="Layer 2"><g id="contact-&#xB808;&#xC774;&#xC5B4;_1" fill="#666" data-name="&#xB808;&#xC774;&#xC5B4; 1"><path d="m25.71 28.46a2.4 2.4 0 0 0 -0.43 0.13 2.27 2.27 0 0 0 -1.4 2.09 2.18 2.18 0 0 0 0 0.44 2.35 2.35 0 0 0 0.13 0.43 2.06 2.06 0 0 0 0.21 0.39 2.23 2.23 0 0 0 0.62 0.62 2.12 2.12 0 0 0 0.39 0.21 2.06 2.06 0 0 0 0.43 0.13 2.09 2.09 0 0 0 0.44 0 2.26 2.26 0 1 0 -0.44 -4.48z"/><path d="m45.14 29.82a2.31 2.31 0 0 0 -0.21 -0.39 2.22 2.22 0 0 0 -0.28 -0.35 2.22 2.22 0 0 0 -0.73 -0.49 2.32 2.32 0 0 0 -0.42 -0.13 2.17 2.17 0 0 0 -0.88 0 2.41 2.41 0 0 0 -0.43 0.13 2.28 2.28 0 0 0 -0.39 0.21 2.43 2.43 0 0 0 -0.34 0.28 2.13 2.13 0 0 0 -0.28 0.35 2.19 2.19 0 0 0 -0.21 0.39 2.15 2.15 0 0 0 -0.13 0.42 2.24 2.24 0 0 0 0 0.44 2.18 2.18 0 0 0 0 0.44 2.14 2.14 0 0 0 0.13 0.43 2.19 2.19 0 0 0 0.21 0.39 2.16 2.16 0 0 0 0.28 0.34 2 2 0 0 0 0.34 0.28 2.27 2.27 0 0 0 0.81 0.34 2.09 2.09 0 0 0 0.44 0 2.16 2.16 0 0 0 0.44 0 2 2 0 0 0 0.42 -0.13 2.21 2.21 0 0 0 0.39 -0.21 2 2 0 0 0 0.34 -0.28 2.25 2.25 0 0 0 0.28 -0.34 2.31 2.31 0 0 0 0.21 -0.39 2.46 2.46 0 0 0 0.13 -0.43 2.19 2.19 0 0 0 0 -0.44 2.24 2.24 0 0 0 0 -0.44 2.51 2.51 0 0 0 -0.12 -0.42z"/><path d="m68.15 30.43a33.71 33.71 0 0 0 -67.15 0.01 9.56 9.56 0 0 0 8.57 13.9h4.13a23.06 23.06 0 0 0 34.7 8.73l6.41 1.14a11.49 11.49 0 0 0 13.5 -11.31v-4.11a9.53 9.53 0 0 0 -0.16 -8.36zm-58.71 10.46a6.11 6.11 0 0 1 0.13 -12.22h1.93a24.89 24.89 0 0 0 0.09 12.22zm4.1-15.68h-4a9.51 9.51 0 0 0 -3.47 0.65 29.56 29.56 0 0 1 57 0 9.52 9.52 0 0 0 -3.47 -0.65h-4a23.06 23.06 0 0 0 -42.14 0zm34.54 23.59l-1.51-0.27a3.64 3.64 0 1 0 -5.41 4.52 19.66 19.66 0 1 1 6.92 -4.25zm13.46-0.27a7.32 7.32 0 0 1 -6 1.6l-3.37-0.6a23.1 23.1 0 0 0 3.34 -5.18h4.13a9.51 9.51 0 0 0 4.53 -1.14 7.32 7.32 0 0 1 -2.63 5.32zm4.16-13.06a6.13 6.13 0 0 1 -6.07 5.42h-2a24.89 24.89 0 0 0 0.09 -12.22h1.94a6.11 6.11 0 0 1 6.1 5.83v0.28a6.13 6.13 0 0 1 -0.06 0.69z"/></g></g></svg><svg viewBox="0 0 325 325" width="100" height="100" id="facebook" y="300"><title>sns-facebook</title><g id="facebook-Layer_2" data-name="Layer 2"><g id="facebook-&#xB808;&#xC774;&#xC5B4;_1" data-name="&#xB808;&#xC774;&#xC5B4; 1"><rect width="325" fill="#475993" rx="40" ry="40" height="325"/><path d="m131.63 289.62l0.19-109.84h-28.54a6.73 6.73 0 0 1 -6.73 -6.71l-0.14-35.41a6.74 6.74 0 0 1 6.73 -6.76h28.49v-34.21c0-39.7 24.25-61.32 59.66-61.32h29.06a6.74 6.74 0 0 1 6.73 6.73v29.9a6.73 6.73 0 0 1 -6.73 6.73h-17.82c-19.26 0-23 9.15-23 22.58v29.62h42.32a6.73 6.73 0 0 1 6.69 7.52l-4.2 35.41a6.73 6.73 0 0 1 -6.69 5.94h-37.92l-0.19 109.84z" fill="#fff"/></g></g></svg><svg id="filter" viewBox="0 0 51.33 44.79" data-name="&#xB808;&#xC774;&#xC5B4; 1" width="100" height="100" y="400"><title>Artboard 2</title><path d="m49.84 0h-48.34a1.5 1.5 0 0 0 -1.5 1.5v9.73a1.5 1.5 0 0 0 1.5 1.5h3.63l14.87 18.96v11.61a1.5 1.5 0 0 0 2.21 1.32l8.34-4.47a1.5 1.5 0 0 0 0.79 -1.32v-7.14l14.86-19h3.64a1.5 1.5 0 0 0 1.5 -1.5v-9.69a1.5 1.5 0 0 0 -1.5 -1.5zm-21.18 30.25a1.5 1.5 0 0 0 -0.32 0.92v6.76l-5.34 2.86v-9.62a1.5 1.5 0 0 0 -0.32 -0.92l-13.74-17.52h33.45zm19.68-20.52h-45.34v-6.73h45.34z" fill="#991717"/></svg><svg xmlns:xlink="http://www.w3.org/1999/xlink" width="132" height="132" id="instagram" y="500"><defs><radialGradient id="instagram-c" gradientUnits="userSpaceOnUse" cy="578.09" cx="158.43" gradientTransform="matrix(0 -1.982 1.8439 0 -1031.4 454)" r="65"><stop stop-color="#fd5" offset="0"/><stop stop-color="#fd5" offset=".1"/><stop stop-color="#ff543e" offset=".5"/><stop stop-color="#c837ab" offset="1"/></radialGradient><radialGradient id="instagram-d" gradientUnits="userSpaceOnUse" cy="473.46" cx="147.69" gradientTransform="matrix(.17394 .86872 -3.5818 .71718 1648.3 -458.49)" r="65"><stop stop-color="#3771c8" offset="0"/><stop stop-color="#3771c8" offset=".128"/><stop stop-color="#60f" stop-opacity="0" offset="1"/></radialGradient></defs><path transform="translate(1.004 1)" d="m65.03 0c-27.142 0-35.08 0.028-36.623 0.156-5.57 0.463-9.036 1.34-12.812 3.22-2.91 1.445-5.205 3.12-7.47 5.468-4.125 4.282-6.625 9.55-7.53 15.812-0.44 3.04-0.568 3.66-0.594 19.188-0.01 5.176 0 11.988 0 21.125 0 27.12 0.03 35.05 0.16 36.59 0.45 5.42 1.3 8.83 3.1 12.56 3.44 7.14 10.01 12.5 17.75 14.5 2.68 0.69 5.64 1.07 9.44 1.25 1.61 0.07 18.02 0.12 34.44 0.12s32.84-0.02 34.41-0.1c4.4-0.207 6.955-0.55 9.78-1.28 7.79-2.01 14.24-7.29 17.75-14.53 1.765-3.64 2.66-7.18 3.065-12.317 0.088-1.12 0.125-18.977 0.125-36.81 0-17.836-0.04-35.66-0.128-36.78-0.41-5.22-1.305-8.73-3.127-12.44-1.495-3.037-3.155-5.305-5.565-7.624-4.3-4.105-9.56-6.605-15.83-7.509-3.03-0.439-3.64-0.569-19.18-0.596h-21.16z" fill="url(#instagram-c)"/><path transform="translate(1.004 1)" d="m65.03 0c-27.142 0-35.08 0.028-36.623 0.156-5.57 0.463-9.036 1.34-12.812 3.22-2.91 1.445-5.205 3.12-7.47 5.468-4.125 4.282-6.625 9.55-7.53 15.812-0.44 3.04-0.568 3.66-0.594 19.188-0.01 5.176 0 11.988 0 21.125 0 27.12 0.03 35.05 0.16 36.59 0.45 5.42 1.3 8.83 3.1 12.56 3.44 7.14 10.01 12.5 17.75 14.5 2.68 0.69 5.64 1.07 9.44 1.25 1.61 0.07 18.02 0.12 34.44 0.12s32.84-0.02 34.41-0.1c4.4-0.207 6.955-0.55 9.78-1.28 7.79-2.01 14.24-7.29 17.75-14.53 1.765-3.64 2.66-7.18 3.065-12.317 0.088-1.12 0.125-18.977 0.125-36.81 0-17.836-0.04-35.66-0.128-36.78-0.41-5.22-1.305-8.73-3.127-12.44-1.495-3.037-3.155-5.305-5.565-7.624-4.3-4.105-9.56-6.605-15.83-7.509-3.03-0.439-3.64-0.569-19.18-0.596h-21.16z" fill="url(#instagram-d)"/><path d="m66.004 18c-13.036 0-14.672 0.057-19.792 0.29-5.11 0.234-8.598 1.043-11.65 2.23-3.157 1.226-5.835 2.866-8.503 5.535-2.67 2.668-4.31 5.346-5.54 8.502-1.19 3.053-2 6.542-2.23 11.65-0.229 5.12-0.289 6.757-0.289 19.793s0.058 14.667 0.29 19.787c0.235 5.11 1.044 8.598 2.23 11.65 1.227 3.157 2.867 5.835 5.536 8.503 2.667 2.67 5.345 4.314 8.5 5.54 3.054 1.187 6.543 1.996 11.652 2.23 5.12 0.233 6.755 0.29 19.79 0.29 13.037 0 14.668-0.057 19.788-0.29 5.11-0.234 8.602-1.043 11.656-2.23 3.156-1.226 5.83-2.87 8.497-5.54 2.67-2.668 4.31-5.346 5.54-8.502 1.18-3.053 1.99-6.542 2.23-11.65 0.23-5.12 0.29-6.752 0.29-19.788s-0.06-14.672-0.29-19.792c-0.24-5.11-1.05-8.598-2.23-11.65-1.23-3.157-2.87-5.835-5.54-8.503-2.67-2.67-5.34-4.31-8.5-5.535-3.06-1.187-6.55-1.996-11.66-2.23-5.12-0.233-6.75-0.29-19.79-0.29zm-4.306 8.65c1.278-0.002 2.704 0 4.306 0 12.816 0 14.335 0.046 19.396 0.276 4.68 0.214 7.22 0.996 8.912 1.653 2.24 0.87 3.837 1.91 5.516 3.59 1.68 1.68 2.72 3.28 3.592 5.52 0.657 1.69 1.44 4.23 1.653 8.91 0.23 5.06 0.28 6.58 0.28 19.39s-0.05 14.33-0.28 19.39c-0.214 4.68-0.996 7.22-1.653 8.91-0.87 2.24-1.912 3.835-3.592 5.514-1.68 1.68-3.275 2.72-5.516 3.59-1.69 0.66-4.232 1.44-8.912 1.654-5.06 0.23-6.58 0.28-19.396 0.28-12.817 0-14.336-0.05-19.396-0.28-4.68-0.216-7.22-0.998-8.913-1.655-2.24-0.87-3.84-1.91-5.52-3.59s-2.72-3.276-3.592-5.517c-0.657-1.69-1.44-4.23-1.653-8.91-0.23-5.06-0.276-6.58-0.276-19.398s0.046-14.33 0.276-19.39c0.214-4.68 0.996-7.22 1.653-8.912 0.87-2.24 1.912-3.84 3.592-5.52s3.28-2.72 5.52-3.592c1.692-0.66 4.233-1.44 8.913-1.655 4.428-0.2 6.144-0.26 15.09-0.27zm29.928 7.97c-3.18 0-5.76 2.577-5.76 5.758 0 3.18 2.58 5.76 5.76 5.76s5.76-2.58 5.76-5.76-2.58-5.76-5.76-5.76zm-25.622 6.73c-13.613 0-24.65 11.037-24.65 24.65s11.037 24.645 24.65 24.645 24.646-11.032 24.646-24.645-11.034-24.65-24.647-24.65zm0 8.65c8.836 0 16 7.163 16 16 0 8.836-7.164 16-16 16-8.837 0-16-7.164-16-16 0-8.837 7.163-16 16-16z" fill="#fff"/></svg><svg viewBox="0 0 40 36.8" width="100" height="100" id="like-on" y="632"><title>icon-like-on</title><g id="like-on-Layer_2" data-name="Layer 2"><g id="like-on-&#xB808;&#xC774;&#xC5B4;_1" data-name="&#xB808;&#xC774;&#xC5B4; 1"><path d="m19.88 6.5a10.47 10.47 0 0 1 9.59 -6.5c5.78 0 9.94 4.95 10.46 10.84a10.74 10.74 0 0 1 -0.34 4.09 18.1 18.1 0 0 1 -5.52 9.2l-14.19 12.67-14-12.67a18.1 18.1 0 0 1 -5.48 -9.2 10.81 10.81 0 0 1 -0.34 -4.09c0.53-5.9 4.69-10.84 10.47-10.84a10.14 10.14 0 0 1 9.35 6.5z" fill="#bf1d1d"/></g></g></svg><svg viewBox="0 0 40 36.8" width="100" height="100" id="like" y="732"><title>icon-like</title><g id="like-Layer_2" data-name="Layer 2"><g id="like-&#xB808;&#xC774;&#xC5B4;_1" data-name="&#xB808;&#xC774;&#xC5B4; 1"><path d="m19.88 6.5a10.47 10.47 0 0 1 9.59 -6.5c5.78 0 9.94 4.95 10.46 10.84a10.74 10.74 0 0 1 -0.34 4.09 18.1 18.1 0 0 1 -5.52 9.2l-14.19 12.67-14-12.67a18.1 18.1 0 0 1 -5.48 -9.2 10.81 10.81 0 0 1 -0.34 -4.09c0.53-5.9 4.69-10.84 10.47-10.84a10.14 10.14 0 0 1 9.35 6.5z" fill="#ccc"/></g></g></svg><svg viewBox="0 0 45.28 42.76" width="100" height="100" id="profile" y="832"><title>icon-profile</title><g id="profile-Layer_2" data-name="Layer 2"><g id="profile-&#xB808;&#xC774;&#xC5B4;_1" data-name="&#xB808;&#xC774;&#xC5B4; 1"><path d="m38.41 29.09a25.13 25.13 0 0 0 -8.58 -3.79 14.88 14.88 0 0 0 4.87 -11.3c0-7.74-5.41-14-12.06-14s-12.07 6.3-12.07 14a14.88 14.88 0 0 0 4.88 11.3 25.13 25.13 0 0 0 -8.58 3.79c-4.43 3.12-6.87 7.34-6.87 11.91a1.81 1.81 0 0 0 1.81 1.81h41.66a1.81 1.81 0 0 0 1.81 -1.81c0-4.53-2.44-8.74-6.87-11.86zm-3.71 10.06v-3.23a1.81 1.81 0 0 0 -3.61 0v3.23h-16.9v-3.23a1.81 1.81 0 0 0 -3.61 0v3.23h-6.78a12 12 0 0 1 5.15 -7.15 23.89 23.89 0 0 1 13.69 -4 23.89 23.89 0 0 1 13.69 4 11.94 11.94 0 0 1 5.15 7.1zm-20.51-25.15c0-5.75 3.79-10.42 8.45-10.42s8.45 4.71 8.45 10.42-3.79 10.46-8.45 10.46-8.45-4.68-8.45-10.46z" fill="#666"/></g></g></svg><svg id="search" viewBox="0 0 28.5 27.41" data-name="&#xB808;&#xC774;&#xC5B4; 1" width="100" height="100" y="932"><title>icon-search</title><path d="m27.54 21.85l-7.46-7.46a10.43 10.43 0 1 0 -9.65 6.48 10.34 10.34 0 0 0 5.38 -1.53l7.12 7.12a3.26 3.26 0 1 0 4.61 -4.61zm-13.82-5.85a6.45 6.45 0 0 1 -3.28 0.92 6.52 6.52 0 1 1 6.56 -6.48 6.45 6.45 0 0 1 -0.42 2.24 6.52 6.52 0 0 1 -2.86 3.32z" fill="#aaa"/></svg><svg viewBox="0 0 30.24 43.85" width="100" height="100" id="shopping-bag" y="1032"><title>icon-shopping-bag</title><g id="shopping-bag-Layer_2" data-name="Layer 2"><g id="shopping-bag-&#xB808;&#xC774;&#xC5B4;_1" data-name="&#xB808;&#xC774;&#xC5B4; 1"><path d="m27.4 10.17h-3.24v-5.69l-4.47-4.48h-9.15l-4.46 4.48v5.69h-3.25a2.84 2.84 0 0 0 -2.83 2.83v28a2.84 2.84 0 0 0 2.83 2.83h24.57a2.84 2.84 0 0 0 2.84 -2.83v-28a2.84 2.84 0 0 0 -2.84 -2.83zm-16.86-5.69h9.15v5.69h-9.15zm16.7 36.37h-24.24v-27.68h3.08v5.05h4.46v-5.05h9.15v5.05h4.46v-5.05h3.08z" fill="#666"/></g></g></svg><svg viewBox="0 0 43.09 40.99" width="100" height="100" id="star-on" y="1132"><title>icon-star-on</title><g id="star-on-Layer_2" data-name="Layer 2"><g id="star-on-&#xB808;&#xC774;&#xC5B4;_1" data-name="&#xB808;&#xC774;&#xC5B4; 1"><path d="m21.55 0 6.65 13.49l14.89 2.16-10.77 10.51 2.54 14.84-13.31-7-13.32 7 2.54-14.83-10.77-10.51 14.89-2.16z" fill="#bf1d1d"/></g></g></svg><svg viewBox="0 0 43.09 40.99" width="100" height="100" id="star" y="1232"><title>icon-star</title><g id="star-Layer_2" data-name="Layer 2"><g id="star-&#xB808;&#xC774;&#xC5B4;_1" data-name="&#xB808;&#xC774;&#xC5B4; 1"><path d="m21.55 0 6.65 13.49l14.89 2.16-10.77 10.51 2.54 14.84-13.31-7-13.32 7 2.54-14.83-10.77-10.51 14.89-2.16z" fill="#ccc"/></g></g></svg><svg viewBox="0 0 325 325" width="100" height="100" id="taobao" y="1332"><title>sns-taobao</title><g id="taobao-Layer_2" data-name="Layer 2"><g id="taobao-&#xB808;&#xC774;&#xC5B4;_1" data-name="&#xB808;&#xC774;&#xC5B4; 1"><rect width="325" fill="#e8741f" rx="40" ry="40" height="325"/><g fill="#fff"><ellipse cy="97.15" cx="88.88" rx="20.04" ry="17.99"/><path d="m59.71 142.24 12.29-19.13s17.31 13.43 22.54 18 14.57 12.3 14.35 24.82-3.87 23.45-6.83 31-22.31 47.07-22.31 47.07l-29.6-18.45s28.47-26.33 39.39-42.35c3.42-5 7.51-18.22-4.1-25s-25.73-15.96-25.73-15.96z"/><path d="m97.74 130.85s16.17-10.47 32.11-54.2c4.55 1.59 27.55 7.74 27.55 7.74l-7.51 13.89s34.38-10.47 64-10.47 16.17-0.68 28.69 3.42 25.28 12.52 28.46 26.19 6.6 59.21 0.23 100.42-1.37 9.57-10.25 18-19.58 12.52-38.48 12.52-28.92-3.64-28.92-3.64l3.87-15.94s11.61 4.33 20.72 4.33 16.85-3.87 20.95-8.65 3.64-5.47 3.87-10 0.45-92-0.46-95-2-14.12-16.17-16.85a76.64 76.64 0 0 0 -28.69 -0.23c-3.42 0.68-24.82 5.92-35.52 10.25 4.1 1.37 12.07 3.42 12.07 3.42a70.77 70.77 0 0 1 -10.26 14.8c9.11-0.23 69.68 0 69.68 0v13.66h-38.93v18.22h38.48v13.66h-38.48v28.92s6.38 0 15.71-7.29c-0.68-5-0.46-5.69-2.73-13 5.92-1.37 17.76-5.46 17.76-5.46l14.8 36.66-22.09 8.65-4.1-14.8s-6.6 7.51-22.77 12.3c-22.51 6.66-36.89 6.38-40.76 6.15 0 0-10.93 0.45-17.53-2.51s-16.17-9.79-16.17-29.37a48.07 48.07 0 0 1 1.59 -12.07l27.78 0.23s-1.37 9.79-1.37 12.3-2.05 13.21 18 13c0-14.35-0.23-33.93-0.23-33.93l-39.64-0.23v-13.67h39.39v-17.27h-10s-10.93 10.25-17.08 16.4l-11.38-10a131.49 131.49 0 0 0 22.07 -33.53c-5.24 2-14.35 6.15-14.35 6.15s-6.38 8.2-14.35 16.62c-5.67-3.19-19.56-9.79-19.56-9.79z"/></g></g></g></svg><svg viewBox="0 0 325 325" width="100" height="100" id="wechat" y="1432"><title>sns-wechat</title><g id="wechat-Layer_2" data-name="Layer 2"><g id="wechat-&#xB808;&#xC774;&#xC5B4;_1" data-name="&#xB808;&#xC774;&#xC5B4; 1"><rect width="325" fill="#2dc100" rx="40" ry="40" height="325"/><g id="wechat-_Group_" fill="#fff" data-name="&lt;Group&gt;"><path id="wechat-_Compound_Path_" d="m210.74 125.95c-23 1.2-43 8.17-59.22 23.92-16.4 15.91-23.89 35.4-21.84 59.57-9-1.11-17.17-2.34-25.4-3a15.78 15.78 0 0 0 -8.63 1.46c-8 4.51-15.66 9.6-24.74 15.28 1.67-7.54 2.75-14.14 4.65-20.49 1.4-4.67 0.75-7.26-3.54-10.3-27.6-19.49-39.24-48.65-30.53-78.67 8.06-27.78 27.84-44.62 54.72-53.4 36.69-12 77.92 0.24 100.23 29.37a68.65 68.65 0 0 1 14.3 36.3zm-105.82-9.36a10.6 10.6 0 0 0 -10.2 -10.59 10.3 10.3 0 0 0 -10.72 10 10.17 10.17 0 0 0 10.09 10.5 10.47 10.47 0 0 0 10.84 -9.91zm55.21-10.59a10.61 10.61 0 0 0 -10.37 10.45 10.35 10.35 0 0 0 10.64 10.12 10.28 10.28 0 1 0 -0.27 -20.56z" data-name="&lt;Compound Path&gt;"/><path id="wechat-_Compound_Path_2" d="m262.4 269.29c-7.28-3.24-14-8.11-21.07-8.85s-14.53 3.35-21.94 4.1c-22.57 2.31-42.8-4-59.47-19.4-31.71-29.33-27.18-74.31 9.51-98.35 32.61-21.36 80.43-14.24 103.43 15.4 20.06 25.87 17.71 60.2-6.79 81.93-7.09 6.29-9.64 11.46-5.09 19.76 0.84 1.53 0.94 3.47 1.42 5.4zm-82.88-80.29a8.57 8.57 0 1 0 0.06 -17.13 8.57 8.57 0 1 0 -0.06 17.13zm53.43-17.11a8.57 8.57 0 0 0 -8.5 8.19 8.45 8.45 0 1 0 8.5 -8.19z" data-name="&lt;Compound Path&gt;"/></g></g></g></svg><svg viewBox="0 0 325 325" width="100" height="100" id="weibo" y="1532"><title>sns-weibo</title><g id="weibo-Layer_2" data-name="Layer 2"><g id="weibo-&#xB808;&#xC774;&#xC5B4;_1" data-name="&#xB808;&#xC774;&#xC5B4; 1"><rect width="325" fill="#f29600" rx="40" ry="40" height="325"/><g fill="#fff"><path d="m285.84 122.4c1.06 13.78-1.27 30.28-10.36 31.09-14.85 1.32-7.1-15-6.9-24.87 0.54-28.53-23.81-48.35-47.67-48.35-6.76 0-22.46 4.58-20-9.67 1.09-6.28 6.41-6.19 11.74-6.9 40.08-5.37 70.35 22.24 73.19 58.7z"/><path d="m220.21 155.56c17.25 9.44 38 14.13 34.54 42.14-0.82 6.71-4.88 15.68-9 21.4-29.16 40.81-117.1 58-172 26.95-18.42-10.41-37.48-25.63-34.54-56 2.53-26.1 20.08-46.32 37.31-63.54 16.43-16.44 33.76-29.3 57.33-35.23 25.58-6.43 33.14 14.89 26.25 35.92 14.81-1 46.22-17.53 60.1-1.38 6.13 7.18 3.8 19.9 0.01 29.74zm-18.65 66.31c5.53-6.27 11.08-15.81 11-26.93-0.07-34.33-43.32-47-77.36-44.21-18.62 1.53-31.15 5.46-44.21 13.13-10.67 6.26-23.15 16.44-26.25 31.77-7 34.46 30.5 50.66 58 52.5 31.87 2.13 63.71-9.13 78.82-26.26z"/><path d="m252 122.4c1.45 10.52-1.56 19.64-7.6 20-10.07 0.67-6.3-6.89-6.91-15.89-0.38-5.54-5-11.94-9-13.82-7.86-3.68-20 2.68-20-8.29 0-8.14 7.06-7.29 11.06-7.6 17.45-1.29 30.39 10.77 32.45 25.6z"/><path d="m171.17 191.48c14.72 44.48-62 65.17-76 26.94-9.38-25.56 13.15-45.9 36.61-48.35 20.04-2.07 34.98 8.11 39.39 21.41zm-35.23 7.6c3.12 5.41 10.3 1.52 9.67-2.76-0.76-4.95-9.74-4.22-9.67 2.76zm-12.44 23.49c12.89-3.07 14.63-27.35-4.83-22.8-16.35 3.82-13.19 27.09 4.83 22.8z"/></g></g></g></svg></svg>
