<svg xmlns="http://www.w3.org/2000/svg" viewBox="0 0 118 118"><g stroke="#294D67" stroke-linecap="round" stroke-linejoin="round" stroke-miterlimit="10"><circle fill="#3DB3CE" stroke-width="6" cx="59" cy="59" r="56"/><path fill="none" stroke-width="6" d="M71 100H47M59 100V77"/><path fill="#75C695" stroke-width="6" d="M28 83s13.4 4.9 29-.5c16-5.6 33 .5 33 .5L73 62H45L28 83z"/><path fill="#75C695" stroke-width="6" d="M34 65.5s10.8 4.8 23.4.5C70.3 61.5 84 65 84 65L68.3 46H49.7L34 65.5z"/><path fill="#75C695" stroke-width="6" d="M40 47.8s8.2 4.7 17.8 1.4C67.6 45.8 78 47 78 47L59 27 40 47.8z"/><path fill="#F7AD43" stroke-width="4" d="M59 14.8l3.7 6.5 7.3 1.5-5.1 5.5.9 7.4-6.8-3.1-6.8 3.1.9-7.4-5.1-5.5 7.3-1.5z"/></g></svg>