<svg xmlns="http://www.w3.org/2000/svg" width="118" height="118" viewBox="0 0 118 118"><circle fill="#75C695" stroke="#294D67" stroke-width="6" stroke-linecap="round" stroke-linejoin="round" stroke-miterlimit="10" cx="59" cy="59" r="56"/><path fill="#C6D8E0" stroke="#294D67" stroke-width="6" stroke-linecap="round" stroke-linejoin="round" stroke-miterlimit="10" d="M71 97H35c-1.1 0-2-.9-2-2V25c0-1.1.9-2 2-2h48c1.1 0 2 .9 2 2v58c0 7.7-6.3 14-14 14z"/><g stroke="#294D67" stroke-linecap="round" stroke-linejoin="round" stroke-miterlimit="10"><path fill="#7B99A3" stroke-width="2" d="M41 31h36v30H41z"/><path fill="#75C695" stroke-width="4" d="M46 36h26v20H46z"/></g><path fill="#294D67" d="M52 74h-1v-1c0-1.7-1.3-3-3-3s-3 1.3-3 3v1h-1c-1.7 0-3 1.3-3 3s1.3 3 3 3h1v1c0 1.7 1.3 3 3 3s3-1.3 3-3v-1h1c1.7 0 3-1.3 3-3s-1.3-3-3-3z"/><circle fill="#F5876F" stroke="#294D67" stroke-width="2" stroke-miterlimit="10" cx="72.6" cy="73.7" r="4"/><circle fill="#F5876F" stroke="#294D67" stroke-width="2" stroke-miterlimit="10" cx="63.6" cy="80.7" r="4"/><path fill="none" stroke="#294D67" stroke-width="2" stroke-linecap="round" stroke-linejoin="round" stroke-miterlimit="10" d="M79 84l-3-3M76 87l-3-3M73 90l-3-3"/></svg>