<svg xmlns="http://www.w3.org/2000/svg" width="118" height="118" viewBox="0 0 118 118"><circle fill="#F5876F" stroke="#294D67" stroke-width="6" stroke-linecap="round" stroke-linejoin="round" stroke-miterlimit="10" cx="59" cy="59" r="56"/><path fill="#C6D8E0" stroke="#294D67" stroke-width="4" stroke-linecap="round" stroke-linejoin="round" stroke-miterlimit="10" d="M77.7 69c.8-.7 1.5-1.6 1.9-2.7 1.4-3.6-.4-7.7-4.1-9.1-2.8-1.1-5.9-.2-7.8 1.9L64 62.7l10 10 3.7-3.7z"/><path fill="#FFF" d="M56.1 55.2C47.6 51.9 38 55 35 63s-.5 17.8 8 21c6.5 2.5 12 2 12 2h36S64.6 58.4 56.1 55.2z"/><path fill="none" stroke="#294D67" stroke-width="6" stroke-linecap="round" stroke-linejoin="round" stroke-miterlimit="10" d="M56.1 55.2C47.6 51.9 38 55 35 63s-.5 17.8 8 21c6.5 2.5 12 2 12 2h36S64.6 58.4 56.1 55.2z"/><path fill="#FFF" stroke="#294D67" stroke-width="4" stroke-linecap="round" stroke-linejoin="round" stroke-miterlimit="10" d="M65.3 61c-.7-.8-1.6-1.5-2.7-1.9-3.6-1.4-7.7.4-9.1 4.1-1.1 2.8-.2 5.9 1.9 7.8l3.7 3.7 10-10-3.8-3.7z"/><path fill="none" stroke="#294D67" stroke-width="6" stroke-linecap="round" stroke-linejoin="round" stroke-miterlimit="10" d="M34 70c-7.2 0-13-5.8-13-13v-2c0-7.2 5.8-13 13-13h16.5c4.7 0 8.5-3.8 8.5-8.5S55.2 25 50.5 25H35"/><circle fill="#C6D8E0" stroke="#294D67" stroke-width="2" stroke-linecap="round" stroke-linejoin="round" stroke-miterlimit="10" cx="69" cy="75.7" r="2.2"/></svg>