<svg fill="#fff" xmlns="http://www.w3.org/2000/svg" width="388" height="35.3" viewBox="0 0 388 35.3"><path d="M24 35v-.5c1.2-.1 2.2-.3 3-.6.8-.3 1.3-.7 1.6-1.1.1-.1.1-.3.2-.6 0-.3.1-.6.1-1s.1-.8.1-1.2v-1.2-3.3-3.2-2.7-1.7H10v13c0 .9.2 1.5.4 1.8.4.5.9 1 1.6 1.3.7.3 1.4.5 2.1.5v.5H0v-.5c.8-.1 1.6-.3 2.3-.6.7-.3 1.3-.7 1.7-1.1.1-.2.2-.4.3-.8.1-.4.1-.8.2-1.3 0-.5.1-1 .1-1.6v-1.6-1.8-2.5-2.8V8.3 6.6c0-.6 0-1.1-.1-1.6 0-.5-.1-.9-.2-1.3.1-.5-.1-.8-.3-1.1-.4-.5-1-.9-1.6-1.1C1.7 1.2 1 1.1.1 1V.5h14.3V1c-.4 0-.9.1-1.4.2-.5.1-1 .3-1.4.6-.4.3-.8.6-1.1 1.1-.3.5-.4 1.1-.5 1.8V17h19v-2.8-2.5-2.4-2.8c0-.6-.1-1.2-.1-1.9s-.2-1.2-.5-1.6c-.6-.9-1.2-1.4-2-1.6-.8-.3-1.5-.4-2.3-.4V.5h14.4V1c-.8.1-1.5.3-2.3.7-.7.3-1.3.8-1.6 1.5-.1.2-.2.5-.3.9-.1.4-.1.8-.1 1.3v23.2c0 .9 0 1.8.1 2.6 0 .8.2 1.3.4 1.6.4.6 1 1.1 1.7 1.3.7.3 1.5.4 2.3.5v.4H24zm54.6-10.4c-1 2.2-2.3 4.1-3.9 5.7-1.6 1.6-3.6 2.8-5.8 3.7-2.2.9-4.5 1.3-7 1.3-2.4 0-4.7-.4-6.9-1.3-2.2-.8-4.1-2.1-5.7-3.6-1.6-1.6-2.9-3.4-3.9-5.6-.9-2.2-1.4-4.5-1.4-7.1 0-2.8.5-5.2 1.5-7.4s2.3-4.1 4-5.6c1.7-1.5 3.7-2.7 5.9-3.5C57.7.4 60.1 0 62.6 0c2.7 0 5.2.5 7.3 1.4 2.2 1 4 2.2 5.5 3.9 1.5 1.6 2.7 3.5 3.5 5.6.8 2.1 1.2 4.3 1.2 6.6 0 2.6-.5 5-1.5 7.1zm-5.2-12.9c-.5-2-1.2-3.8-2.3-5.4-1-1.6-2.3-2.9-3.8-3.9S64 .9 62 .9c-2.1 0-3.9.5-5.4 1.5-1.5 1-2.8 2.3-3.7 3.9-1 1.6-1.7 3.4-2.2 5.5-.5 2-.7 4.1-.7 6.2 0 2.2.3 4.3.8 6.3s1.3 3.8 2.3 5.3c1 1.5 2.3 2.8 3.8 3.7 1.5.9 3.3 1.4 5.3 1.4s3.8-.5 5.3-1.5 2.7-2.3 3.7-4c1-1.6 1.7-3.4 2.2-5.4.5-2 .7-4 .7-6 0-2.2-.2-4.2-.7-6.1zM116.3 35H85.5v-.5c.8-.1 1.6-.3 2.4-.6.8-.3 1.4-.7 1.8-1.2.2-.2.3-.5.4-.8.1-.4.2-.8.3-1.3.1-.5.1-1 .2-1.5 0-.5.1-1 .1-1.6v-1.8c0-.8 0-1.6.1-2.5v-2.8V8.3 6.6c0-.6 0-1.1-.1-1.6 0-.5-.1-.9-.2-1.3-.2-.4-.3-.7-.5-.9-.4-.5-1-1-1.8-1.2-.8-.3-1.5-.5-2.4-.6V.5h15.3V1c-.4.1-.9.2-1.5.3-.6.1-1.1.3-1.6.6s-.9.7-1.3 1.2-.6 1.2-.6 2.1C96 6.3 96 7.3 96 8.3v19.8c0 1 .1 2 .1 2.9 0 .9.2 1.6.5 2.1.1.2.4.3.8.5s.8.3 1.4.4c.5.1 1.1.2 1.8.3.6.1 1.3.1 1.9.1h1.2c.6 0 1.2 0 1.9-.1.7 0 1.4-.1 2.1-.2.7-.1 1.3-.2 1.9-.4 1.3-.4 2.3-.8 3.2-1.4.8-.6 1.6-1.2 2.2-2 .6-.8 1.1-1.6 1.5-2.4.4-.9.8-1.8 1.2-2.8l.5.1-1.9 9.8zm35.7 0h-29l-.2-.3 24.3-33.4H137.7c-1 0-1.9 0-2.5.1-1.2.1-2.3.3-3.3.7-1 .4-1.9.9-2.7 1.6-.4.3-.9.8-1.4 1.3-.6.6-1.1 1.2-1.7 1.9-.6.7-1.1 1.3-1.7 2-.5.7-1 1.3-1.3 1.9l-.5-.2L126.1.4c.4 0 1.3.1 2.4.1h24.8l.1.3-24.2 33.3H139.5c.8 0 1.7-.1 2.7-.2 2.6-.3 4.9-1.3 7-3.1 2.1-1.8 3.9-4.1 5.5-6.8l.5.2L152 35zm56.1-33.4c-.6.4-.9.6-1 .7-.1.1-.2.3-.4.5s-.4.5-.7.9c-.3.4-.5.9-.8 1.5-.3.6-.6 1.4-.9 2.3-.5 1.6-1.1 3.3-1.8 5.2-.7 1.9-1.3 3.9-2 5.9-.7 2-1.4 4-2.1 6.1-.7 2-1.4 4-2 5.8l-2 4.6h-.5c-.9-2.3-1.7-4.5-2.4-6.6-.7-2.1-1.5-4.1-2.2-6.1-.7-2-1.4-3.8-2-5.7-.6-1.8-1.3-3.7-2-5.5-.5 1.5-1.1 3-1.6 4.6-.6 1.6-1.2 3.3-1.7 4.9-.6 1.7-1.2 3.3-1.7 4.9-.6 1.6-1.1 3.2-1.7 4.7l-2.1 4.7h-.6c-1-2.6-1.9-5.1-2.8-7.4-.9-2.3-1.7-4.6-2.5-6.7-.8-2.2-1.6-4.3-2.4-6.3-.8-2-1.5-4.1-2.3-6.1-.2-.6-.4-1.1-.6-1.6-.2-.4-.3-.9-.5-1.2-.1-.4-.3-.8-.5-1.1-.2-.4-.3-.7-.5-1.1-.1-.2-.2-.4-.4-.7-.2-.3-.4-.6-.7-.8-.3-.3-.7-.5-1.2-.7-.4-.2-1-.3-1.7-.4V.5h13.5V1c-.2 0-.4 0-.8.1l-1.2.3c-.4.2-.8.4-1.1.7-.3.3-.5.8-.5 1.3 0 .3.2 1 .5 2s.8 2.3 1.3 3.8 1.1 3.1 1.8 4.9c.7 1.8 1.3 3.5 2 5.2.7 1.7 1.3 3.3 1.8 4.8.6 1.5 1 2.7 1.4 3.7.1-.3.3-.9.7-2 .4-1.1.9-2.4 1.4-4 .6-1.6 1.2-3.4 1.9-5.5.7-2 1.4-4.2 2.1-6.4-.5-1.3-.9-2.4-1.3-3.4s-.8-1.9-1.2-2.9c-.1-.3-.3-.5-.5-.8-.2-.3-.5-.6-.9-.8-.4-.3-.8-.5-1.4-.7-.5-.2-1.2-.3-2-.3V.5h15V1c-.2 0-.5.1-1 .1-.5.1-1 .2-1.5.4s-.9.4-1.3.7c-.4.3-.6.7-.6 1.2 0 .2.2.8.5 1.9.4 1.1.8 2.4 1.3 4s1.2 3.3 1.8 5.2c.7 1.9 1.3 3.6 1.9 5.4.6 1.7 1.2 3.2 1.7 4.6.5 1.4.9 2.3 1.1 3 .1-.2.3-.7.5-1.4s.5-1.6.9-2.6.8-2.2 1.2-3.5c.4-1.3.9-2.6 1.3-3.9.4-1.3.9-2.7 1.3-4 .4-1.3.8-2.6 1.2-3.7.4-1.5.7-2.5.8-3.2.1-.7.1-1.2.1-1.5 0-.5-.1-.9-.4-1.2-.3-.3-.6-.6-1.1-.8-.4-.2-.9-.4-1.3-.5-.3-.1-.7-.2-1.1-.2V.5h10.6V1c-.8.1-1.5.3-2.1.6zM244.7 35h-29.4v-.5c.8-.1 1.5-.3 2.2-.6.7-.3 1.3-.7 1.7-1.2.2-.2.3-.5.4-.8.1-.4.2-.8.3-1.3.1-.5.1-1 .2-1.5v-1.6-1.8-2.5-2.8V8.3 6.5c0-.6 0-1.2-.1-1.7 0-.5-.1-1-.2-1.5-.1-.4-.3-.7-.5-.9-.5-.5-1-.8-1.5-1-.5-.1-1.3-.3-2.1-.4V.5h26.5l3.3 7.9-.5.2c-2.6-3.2-5-5.4-7.3-6.5-.5-.3-1.6-.5-3-.7-1.5-.2-3.3-.3-5.4-.3-.7 0-1.4 0-2.1.1-.7 0-1.2.1-1.6.2-.1.5-.1 1.6-.2 3.2s-.1 3.5-.1 5.6V17h1c.5 0 1 0 1.7-.1.6 0 1.2-.1 1.9-.1.6 0 1.1-.1 1.6-.2 1-.2 1.8-.5 2.4-.9.6-.4 1.2-.8 1.6-1.4.4-.5.7-1.2 1-1.9.2-.7.5-1.5.6-2.4h.6v15.1h-.6c-.3-1-.6-2.1-1.2-3.2-.5-1.1-1.1-1.9-1.7-2.4-.5-.4-1.1-.8-1.8-1.1-.7-.3-1.6-.5-2.5-.5-.5 0-.9-.1-1.2-.1h-3.2c-.1.5-.1 1.1-.1 2V28.2c0 1 .1 2 .2 2.9.1.9.3 1.6.6 2 .3.4 1 .8 2.1 1 1.1.2 2.3.3 3.6.3h2.1c.8 0 1.7-.1 2.7-.2 1-.1 2-.4 2.8-.7.9-.4 1.7-.9 2.5-1.6.8-.7 1.6-1.5 2.3-2.5.8-1 1.5-2.2 2.3-3.5l.5.1-2.4 9zm9.6 0v-.5c.8-.1 1.5-.3 2.2-.6.7-.3 1.3-.7 1.8-1.3.2-.2.3-.5.4-.8.1-.4.1-.8.2-1.3 0-.5.1-1 .1-1.5v-1.6-1.8-2.5-2.8-12-1.7c0-.6 0-1.1-.1-1.6 0-.5-.1-.9-.2-1.3s-.2-.7-.4-.9c-.5-.5-1-.9-1.7-1.2-.7-.2-1.4-.4-2.2-.5V.5h14.4V1c-.7.1-1.4.3-2.2.5-.8.3-1.4.8-1.8 1.5-.3.5-.4 1.2-.5 2.1 0 .8 0 1.6-.1 2.4V31c0 .9.2 1.5.4 1.8.4.5 1 1 1.8 1.3.8.3 1.6.5 2.3.5v.4h-14.4zm53.1 0h-30.8v-.5c.8-.1 1.6-.3 2.4-.6.8-.3 1.4-.7 1.8-1.2.2-.2.3-.5.4-.8.1-.4.2-.8.3-1.3.1-.5.1-1 .2-1.5 0-.5.1-1 .1-1.6v-1.8-2.5-2.8V8.3 6.6c0-.6 0-1.1-.1-1.6 0-.5-.1-.9-.2-1.3s-.2-.7-.4-.9c-.4-.5-1.1-1-1.8-1.2-.7-.3-1.5-.5-2.4-.6V.5h15.3V1c-.4.1-.9.2-1.5.3-.6.1-1.1.3-1.6.6s-1 .7-1.3 1.2c-.4.5-.6 1.2-.6 2.1 0 1.1-.1 2.1-.1 3.1v19.8c0 1 .1 2 .1 2.9 0 .9.2 1.6.5 2.1.1.2.4.3.8.5s.9.3 1.4.4c.5.1 1.1.2 1.8.3.6.1 1.3.1 1.9.1h1.2c.6 0 1.2 0 1.8-.1.7 0 1.4-.1 2.1-.2.7-.1 1.3-.2 1.9-.4 1.3-.4 2.3-.8 3.2-1.4.8-.6 1.6-1.2 2.2-2 .6-.8 1.1-1.6 1.5-2.4.4-.9.8-1.8 1.2-2.8l.5.1-1.8 9.8zm35 0H313v-.5c.8-.1 1.5-.3 2.2-.6.7-.3 1.3-.7 1.7-1.2.2-.2.3-.5.4-.8.1-.4.2-.8.3-1.3.1-.5.1-1 .2-1.5v-1.6-1.8-2.5-2.8V8.3 6.5c0-.6 0-1.2-.1-1.7 0-.5-.1-1-.2-1.5-.1-.4-.3-.7-.5-.9-.5-.5-1-.8-1.5-1-.5-.1-1.2-.3-2.1-.4V.5H340l3.3 7.9-.5.2c-2.6-3.2-5-5.4-7.3-6.5-.5-.3-1.6-.5-3-.7-1.5-.2-3.3-.3-5.4-.3-.7 0-1.4 0-2.1.1-.7 0-1.2.1-1.6.2-.1.5-.1 1.6-.2 3.2 0 1.6-.1 3.5-.1 5.6V17h1c.5 0 1 0 1.7-.1.6 0 1.2-.1 1.9-.1.6 0 1.1-.1 1.6-.2 1-.2 1.8-.5 2.4-.9.6-.4 1.2-.8 1.6-1.4.4-.5.7-1.2 1-1.9.2-.7.5-1.5.6-2.4h.6v15.1h-.6c-.3-1-.6-2.1-1.2-3.2-.5-1.1-1.1-1.9-1.7-2.4-.5-.4-1.1-.8-1.8-1.1-.7-.3-1.6-.5-2.5-.5-.5 0-.9-.1-1.2-.1h-3.3c-.1.5-.1 1.1-.1 2V28.2c0 1 .1 2 .2 2.9.1.9.3 1.6.6 2 .3.4 1 .8 2.1 1 1.1.2 2.3.3 3.6.3h2.1c.8 0 1.7-.1 2.7-.2 1-.1 2-.4 2.8-.7.9-.4 1.7-.9 2.5-1.6.8-.7 1.6-1.5 2.3-2.5.8-1 1.5-2.2 2.3-3.5l.5.1-2.4 9zm35.8 0l-.6-.6c-.1-.1-.3-.3-.4-.5-.2-.2-.4-.5-.6-.8-.2-.4-.6-.9-1.1-1.7-.6-.9-1.1-1.7-1.6-2.4s-.9-1.4-1.4-2.1c-.5-.7-1-1.4-1.6-2.1-.6-.7-1.2-1.5-2-2.4-.6-.7-1.3-1.4-2.1-2.1-.8-.6-1.5-1-2.4-1.2-.6-.1-1.1-.2-1.4-.2-.3 0-.7 0-1.1-.1v9.3c0 1 .1 1.9.1 2.6 0 .7.2 1.3.5 1.8.3.4.8.8 1.5 1.3.7.4 1.8.7 3.1.7v.5h-15.4v-.5c.8-.1 1.6-.3 2.3-.6.7-.3 1.3-.6 1.7-1.2.2-.2.3-.5.4-.9.1-.4.2-.8.2-1.3s.1-1 .1-1.5.1-1.1.1-1.6v-1.8-2.5-2.8-12-1.7c0-.6 0-1.2-.1-1.7 0-.5-.1-1-.2-1.4-.1-.4-.3-.7-.5-.9-.5-.5-1-.9-1.6-1-.6-.2-1.3-.3-2.2-.5V.5H365.1c2.1 0 4 .1 5.7.2 1.7.1 3.2.6 4.6 1.3 1.4.7 2.5 1.7 3.4 3 .9 1.3 1.3 2.9 1.3 4.8 0 1.2-.2 2.2-.6 3.2-.4.9-1 1.8-1.7 2.5s-1.6 1.3-2.5 1.9c-1 .5-2 .9-3 1.3v.1c.5.3 1.1.7 1.6 1.2s1 1.2 1.5 1.8c.8 1.2 1.7 2.5 2.7 3.9 1 1.4 1.8 2.7 2.6 3.7 1.2 1.7 2.3 2.9 3.5 3.6 1.1.8 2.4 1.3 3.9 1.5v.5h-9.9zm-4.8-29.9c-.8-1.2-2-2.2-3.5-3-.8-.4-1.6-.6-2.4-.8-.9-.2-1.7-.2-2.7-.2-.7 0-1.2 0-1.6.1-.4 0-.7.1-1 .1 0 .2-.1.4-.1.5 0 .1-.1.3-.1.6v.9c0 .4 0 1-.1 1.7 0 1.1-.1 2.4-.1 3.8v9.4c1.3 0 2.5-.1 3.7-.2 1.1-.1 2.2-.3 3.3-.7 1-.3 1.9-.8 2.6-1.3.7-.5 1.3-1.2 1.8-1.8.5-.7.8-1.4 1-2.2.2-.8.3-1.6.3-2.5.1-1.7-.3-3.1-1.1-4.4z"></path></svg>