<?xml version="1.0" encoding="iso-8859-1"?>
<!-- Generator: Adobe Illustrator 18.0.0, SVG Export Plug-In . SVG Version: 6.00 Build 0)  -->
<!DOCTYPE svg PUBLIC "-//W3C//DTD SVG 1.1//EN" "http://www.w3.org/Graphics/SVG/1.1/DTD/svg11.dtd">
<svg version="1.1" id="Capa_1" xmlns="http://www.w3.org/2000/svg" xmlns:xlink="http://www.w3.org/1999/xlink" x="0px" y="0px"
	 viewBox="0 0 54 54" style="enable-background:new 0 0 54 54;" xml:space="preserve">
<g>
	<path d="M41.824,0H12.176C5.462,0,0,5.462,0,12.176v29.648C0,48.538,5.462,54,12.176,54h29.648C48.538,54,54,48.538,54,41.824
		V12.176C54,5.462,48.538,0,41.824,0z M52,41.824C52,47.435,47.435,52,41.824,52H12.176C6.565,52,2,47.435,2,41.824V12.176
		C2,6.565,6.565,2,12.176,2h29.648C47.435,2,52,6.565,52,12.176V41.824z"/>
	<path d="M16.6,12L8.36,40h3.12l2.64-9.04h8.32L25.2,40h3.24l-8.52-28H16.6z M14.88,28l3.36-11.36L21.72,28H14.88z"/>
	<path d="M36.96,19.6c-2.213,0-3.994,0.601-5.34,1.801c-1.347,1.199-2.02,2.88-2.02,5.04v8.199c0,3.895,2.32,5.841,6.96,5.841
		c2.24,0,4.386-0.627,6.44-1.881l-1.08-2.359c-1.974,1.094-3.787,1.64-5.44,1.64c-2.667,0-4-1.133-4-3.399V32.4L44,31.8V26.32
		c0-2.106-0.62-3.754-1.86-4.94C40.9,20.193,39.173,19.6,36.96,19.6z M41.08,29.24l-8.6,0.439V26.48c0-1.387,0.406-2.44,1.22-3.16
		c0.813-0.721,1.806-1.08,2.98-1.08c1.173,0,2.2,0.3,3.08,0.899c0.88,0.601,1.32,1.607,1.32,3.021V29.24z"/>
</g>
<g>
</g>
<g>
</g>
<g>
</g>
<g>
</g>
<g>
</g>
<g>
</g>
<g>
</g>
<g>
</g>
<g>
</g>
<g>
</g>
<g>
</g>
<g>
</g>
<g>
</g>
<g>
</g>
<g>
</g>
</svg>
