<?xml version="1.0" encoding="iso-8859-1"?>
<!-- Generator: Adobe Illustrator 18.0.0, SVG Export Plug-In . SVG Version: 6.00 Build 0)  -->
<!DOCTYPE svg PUBLIC "-//W3C//DTD SVG 1.1//EN" "http://www.w3.org/Graphics/SVG/1.1/DTD/svg11.dtd">
<svg version="1.1" id="Capa_1" xmlns="http://www.w3.org/2000/svg" xmlns:xlink="http://www.w3.org/1999/xlink" x="0px" y="0px"
	 viewBox="0 0 58 58" style="enable-background:new 0 0 58 58;" xml:space="preserve">
<!-- <style>
.path {
	fill: #6100ff;
}
</style> -->
<g>
	<path class="path" d="M50.949,12.187l-1.361-1.361l-9.504-9.505c-0.001-0.001-0.001-0.001-0.002-0.001l-0.77-0.771
		C38.957,0.195,38.486,0,37.985,0H8.963C7.604,0,6.5,1.105,6.5,2.463V39v16.537C6.5,56.895,7.604,58,8.963,58h40.074
		c1.358,0,2.463-1.105,2.463-2.463V39V13.515C51.5,13.02,51.299,12.535,50.949,12.187z M39.5,12V3.565L47.935,12H45.5H39.5z
		 M40.5,14h2.731c-0.346,0.597-0.992,1-1.731,1c-0.723,0-1.353-0.389-1.704-0.964C40.028,14.015,40.262,14,40.5,14z M49.5,55.537
		c0,0.255-0.208,0.463-0.463,0.463H8.963C8.708,56,8.5,55.792,8.5,55.537V41h41V55.537z M8.5,39V2.463C8.5,2.208,8.708,2,8.963,2
		h28.595C37.525,2.126,37.5,2.256,37.5,2.391V12v0.461c-3.071,0.968-5.503,3.382-6.502,6.44C30.311,18.346,29.45,18,28.5,18
		c-1.859,0-3.411,1.28-3.858,3H21.5v-2h-6v6h6v-2h2.921c-0.336,2.663-1.985,4.978-4.389,6.163C19.364,27.884,18.04,27,16.5,27
		c-2.206,0-4,1.794-4,4s1.794,4,4,4c2.146,0,3.888-1.702,3.982-3.825c2.655-1.151,4.647-3.387,5.524-6.073
		C26.692,25.655,27.552,26,28.5,26c1.859,0,3.411-1.28,3.858-3H35.5v2h6v-6h-6v2h-2.931c0.379-3.019,2.444-5.514,5.222-6.518
		C38.383,15.955,39.818,17,41.5,17c1.859,0,3.411-1.28,3.858-3h3.75c0.135,0,0.265-0.025,0.392-0.058V39H8.5z M30.5,22
		c0,1.103-0.897,2-2,2s-2-0.897-2-2s0.897-2,2-2S30.5,20.897,30.5,22z M19.5,23h-2v-2h2V23z M18.5,31c0,1.103-0.897,2-2,2
		s-2-0.897-2-2s0.897-2,2-2S18.5,29.897,18.5,31z M37.5,21h2v2h-2V21z"/>
	<path class="path" d="M23.515,51.908h3.787L28.026,54h1.695l-3.5-10.063h-1.627L21.067,54h1.709L23.515,51.908z M25.415,46.453l1.49,4.348
		h-3.008L25.415,46.453z"/>
	<rect class="path" x="31.868" y="43.924" width="1.668" height="10.076"/>
</g>
<g>
</g>
<g>
</g>
<g>
</g>
<g>
</g>
<g>
</g>
<g>
</g>
<g>
</g>
<g>
</g>
<g>
</g>
<g>
</g>
<g>
</g>
<g>
</g>
<g>
</g>
<g>
</g>
<g>
</g>
</svg>
