<?xml version="1.0" encoding="iso-8859-1"?>
<!-- Generator: Adobe Illustrator 18.0.0, SVG Export Plug-In . SVG Version: 6.00 Build 0)  -->
<!DOCTYPE svg PUBLIC "-//W3C//DTD SVG 1.1//EN" "http://www.w3.org/Graphics/SVG/1.1/DTD/svg11.dtd">
<svg version="1.1" id="Capa_1" xmlns="http://www.w3.org/2000/svg" xmlns:xlink="http://www.w3.org/1999/xlink" x="0px" y="0px"
	 viewBox="0 0 54 54" style="enable-background:new 0 0 54 54;" xml:space="preserve">
<g>
	<path d="M41.824,0H12.176C5.462,0,0,5.462,0,12.176v29.648C0,48.538,5.462,54,12.176,54h29.648C48.538,54,54,48.538,54,41.824
		V12.176C54,5.462,48.538,0,41.824,0z M52,41.824C52,47.435,47.436,52,41.824,52H12.176C6.564,52,2,47.435,2,41.824V12.176
		C2,6.565,6.564,2,12.176,2h29.648C47.436,2,52,6.565,52,12.176V41.824z"/>
	<path d="M17.239,12L9,40h3.12l2.64-9.04h8.32L25.84,40h3.24L20.56,12H17.239z M15.52,28l3.36-11.36L22.359,28H15.52z"/>
	<path d="M41.96,33.08c0,3.094-1.507,4.64-4.521,4.64c-3.094,0-4.64-1.533-4.64-4.6V19.96h-2.88v13.16c0,4.88,2.506,7.32,7.52,7.32
		c1.946,0,3.493-0.641,4.641-1.921V40h2.76V19.96h-2.88V33.08z"/>
</g>
<g>
</g>
<g>
</g>
<g>
</g>
<g>
</g>
<g>
</g>
<g>
</g>
<g>
</g>
<g>
</g>
<g>
</g>
<g>
</g>
<g>
</g>
<g>
</g>
<g>
</g>
<g>
</g>
<g>
</g>
</svg>
