<?xml version="1.0" encoding="iso-8859-1"?>
<!-- Generator: Adobe Illustrator 18.0.0, SVG Export Plug-In . SVG Version: 6.00 Build 0)  -->
<!DOCTYPE svg PUBLIC "-//W3C//DTD SVG 1.1//EN" "http://www.w3.org/Graphics/SVG/1.1/DTD/svg11.dtd">
<svg version="1.1" id="Capa_1" xmlns="http://www.w3.org/2000/svg" xmlns:xlink="http://www.w3.org/1999/xlink" x="0px" y="0px"
	 viewBox="0 0 58 58" style="enable-background:new 0 0 58 58;" xml:space="preserve">
<g>
	<path d="M50.949,12.187l-0.771-0.771L40.084,1.321L40.083,1.32l-0.768-0.768C38.965,0.201,38.48,0,37.985,0H8.963
		C7.777,0,6.5,0.916,6.5,2.926V39v16.537V56c0,0.838,0.843,1.654,1.839,1.91c0.05,0.013,0.097,0.032,0.148,0.042
		C8.644,57.983,8.803,58,8.963,58h40.074c0.16,0,0.319-0.017,0.475-0.048c0.052-0.01,0.1-0.029,0.15-0.042
		C50.658,57.653,51.5,56.838,51.5,56v-0.463V39V13.978C51.5,13.212,51.408,12.646,50.949,12.187z M39.5,3.565L47.935,12H39.5V3.565z
		 M8.963,56c-0.071,0-0.135-0.025-0.198-0.049C8.609,55.876,8.5,55.72,8.5,55.537V41h41v14.537c0,0.183-0.11,0.339-0.265,0.414
		C49.172,55.975,49.108,56,49.037,56H8.963z M8.5,39V2.926C8.5,2.709,8.533,2,8.963,2h28.595C37.525,2.126,37.5,2.256,37.5,2.392V14
		h11.608c0.135,0,0.265-0.025,0.391-0.058c0,0.014,0.001,0.02,0.001,0.036V39H8.5z"/>
	<path d="M20.889,43.938L17.361,54h1.709l0.738-2.092h3.787L24.32,54h1.695l-3.5-10.063H20.889z M20.191,50.801l1.518-4.348
		l1.49,4.348H20.191z"/>
	<polygon points="31.908,52.619 29.57,43.924 27.697,43.924 30.828,54.055 32.961,54.055 36.242,43.924 34.383,43.924 	"/>
	<rect x="38.32" y="43.924" width="1.668" height="10.076"/>
	<path d="M36.037,21.156l-11-7c-0.309-0.195-0.698-0.208-1.019-0.033C23.699,14.299,23.5,14.635,23.5,15v14
		c0,0.365,0.199,0.701,0.519,0.877C24.169,29.959,24.334,30,24.5,30c0.187,0,0.374-0.053,0.537-0.156l11-7
		C36.325,22.66,36.5,22.342,36.5,22S36.325,21.34,36.037,21.156z M25.5,27.179V16.821L33.637,22L25.5,27.179z"/>
</g>
<g>
</g>
<g>
</g>
<g>
</g>
<g>
</g>
<g>
</g>
<g>
</g>
<g>
</g>
<g>
</g>
<g>
</g>
<g>
</g>
<g>
</g>
<g>
</g>
<g>
</g>
<g>
</g>
<g>
</g>
</svg>
