<?xml version="1.0" encoding="iso-8859-1"?>
<!-- Generator: Adobe Illustrator 18.0.0, SVG Export Plug-In . SVG Version: 6.00 Build 0)  -->
<!DOCTYPE svg PUBLIC "-//W3C//DTD SVG 1.1//EN" "http://www.w3.org/Graphics/SVG/1.1/DTD/svg11.dtd">
<svg version="1.1" id="Capa_1" xmlns="http://www.w3.org/2000/svg" xmlns:xlink="http://www.w3.org/1999/xlink" x="0px" y="0px"
	 viewBox="0 0 54 54" style="enable-background:new 0 0 54 54;" xml:space="preserve">
<g>
	<path d="M41.824,0H12.176C5.462,0,0,5.462,0,12.176v29.648C0,48.538,5.462,54,12.176,54h29.648C48.538,54,54,48.538,54,41.824
		V12.176C54,5.462,48.538,0,41.824,0z M52,41.824C52,47.435,47.436,52,41.824,52H12.176C6.565,52,2,47.435,2,41.824V12.176
		C2,6.565,6.565,2,12.176,2h29.648C47.436,2,52,6.565,52,12.176V41.824z"/>
	<path d="M26.32,24.48v-0.04c0-0.026,0.013-0.054,0.04-0.08C28.12,23.16,29,21.374,29,19c0-2.373-0.66-4.133-1.98-5.28
		C25.7,12.574,23.946,12,21.76,12h-8.64v28h9.08c3.493,0,5.88-1.253,7.16-3.76c0.72-1.36,1.08-2.88,1.08-4.561
		c0-1.893-0.394-3.433-1.18-4.62C28.473,25.874,27.493,25.014,26.32,24.48z M16,14.8h5.08c3.173,0,4.76,1.427,4.76,4.28
		c0,2.934-1.56,4.4-4.68,4.4H16V14.8z M25.74,36.08c-1,0.827-2.394,1.24-4.18,1.24H16V26.28h6.12c1.413,0,2.62,0.439,3.62,1.319
		c1,0.881,1.5,2.308,1.5,4.28C27.24,33.854,26.74,35.254,25.74,36.08z"/>
	<path d="M37.08,21v-1.04h-2.8V40h2.88V25.16c0-0.88,0.393-1.58,1.18-2.101c0.786-0.52,1.68-0.779,2.681-0.779
		c1,0,1.966,0.146,2.899,0.439L44.64,20c-1.094-0.213-2.094-0.32-3-0.32C39.8,19.68,38.28,20.12,37.08,21z"/>
</g>
<g>
</g>
<g>
</g>
<g>
</g>
<g>
</g>
<g>
</g>
<g>
</g>
<g>
</g>
<g>
</g>
<g>
</g>
<g>
</g>
<g>
</g>
<g>
</g>
<g>
</g>
<g>
</g>
<g>
</g>
</svg>
