<?xml version="1.0" encoding="iso-8859-1"?>
<!-- Generator: Adobe Illustrator 18.0.0, SVG Export Plug-In . SVG Version: 6.00 Build 0)  -->
<!DOCTYPE svg PUBLIC "-//W3C//DTD SVG 1.1//EN" "http://www.w3.org/Graphics/SVG/1.1/DTD/svg11.dtd">
<svg version="1.1" id="Capa_1" xmlns="http://www.w3.org/2000/svg" xmlns:xlink="http://www.w3.org/1999/xlink" x="0px" y="0px"
	 viewBox="0 0 58 58" style="enable-background:new 0 0 58 58;" xml:space="preserve">
<g>
	<path d="M50.95,12.187l-0.771-0.771L40.084,1.321L39.313,0.55C38.964,0.201,38.48,0,37.985,0H8.963C7.777,0,6.5,0.916,6.5,2.926V39
		v16.537V56c0,0.837,0.842,1.653,1.838,1.91c0.05,0.013,0.098,0.032,0.15,0.042C8.644,57.983,8.803,58,8.963,58h40.074
		c0.16,0,0.319-0.017,0.475-0.048c0.052-0.01,0.1-0.029,0.15-0.042C50.658,57.653,51.5,56.837,51.5,56v-0.463V39V13.978
		C51.5,13.211,51.408,12.645,50.95,12.187z M47.935,12H39.5V3.565L47.935,12z M8.963,56c-0.071,0-0.135-0.026-0.198-0.049
		C8.609,55.877,8.5,55.721,8.5,55.537V41h41v14.537c0,0.184-0.109,0.339-0.265,0.414C49.172,55.974,49.108,56,49.037,56H8.963z
		 M8.5,39V2.926C8.5,2.709,8.533,2,8.963,2h28.595C37.525,2.126,37.5,2.256,37.5,2.391V14h11.609c0.135,0,0.264-0.025,0.39-0.058
		c0,0.015,0.001,0.021,0.001,0.036V39H8.5z"/>
	<path d="M22.683,45.4c-0.424-0.446-0.957-0.805-1.6-1.073s-1.388-0.403-2.235-0.403h-3.035V54h3.814
		c0.127,0,0.323-0.016,0.588-0.048c0.264-0.032,0.556-0.104,0.875-0.219c0.319-0.114,0.649-0.285,0.991-0.513
		s0.649-0.54,0.923-0.937s0.499-0.889,0.677-1.477s0.267-1.297,0.267-2.126c0-0.602-0.105-1.188-0.314-1.757
		C23.423,46.355,23.106,45.847,22.683,45.4z M21.486,51.73c-0.492,0.711-1.294,1.066-2.406,1.066h-1.627v-7.629h0.957
		c0.784,0,1.422,0.103,1.914,0.308s0.882,0.474,1.169,0.807s0.48,0.704,0.581,1.114c0.1,0.41,0.15,0.825,0.15,1.244
		C22.225,49.989,21.979,51.02,21.486,51.73z"/>
	<path d="M32.431,49.365c-0.205-0.2-0.426-0.355-0.663-0.465c-0.237-0.109-0.46-0.178-0.67-0.205
		c0.164-0.036,0.335-0.111,0.513-0.226s0.335-0.258,0.472-0.431s0.25-0.376,0.342-0.608c0.091-0.232,0.137-0.49,0.137-0.772
		c0-0.483-0.091-0.9-0.273-1.251c-0.183-0.351-0.429-0.636-0.738-0.854c-0.31-0.219-0.666-0.378-1.066-0.479
		c-0.401-0.101-0.816-0.15-1.244-0.15H26.34V54h3.787c0.055,0,0.168-0.007,0.342-0.021c0.173-0.014,0.371-0.053,0.595-0.116
		c0.223-0.063,0.456-0.157,0.697-0.28c0.241-0.123,0.465-0.292,0.67-0.506s0.376-0.485,0.513-0.813s0.205-0.72,0.205-1.176
		c0-0.374-0.068-0.704-0.205-0.991S32.636,49.565,32.431,49.365z M27.98,45.168h1.094c0.419,0,0.756,0.046,1.012,0.137
		c0.255,0.091,0.451,0.21,0.588,0.355s0.228,0.308,0.273,0.485c0.045,0.178,0.068,0.349,0.068,0.513c0,0.41-0.057,0.725-0.171,0.943
		c-0.114,0.219-0.262,0.374-0.444,0.465c-0.183,0.091-0.378,0.142-0.588,0.15c-0.21,0.009-0.415,0.014-0.615,0.014h-1.148H27.98
		V45.168z M31.166,52.332c-0.273,0.31-0.652,0.465-1.135,0.465H27.98v-3.459h1.928c0.547,0,0.961,0.169,1.244,0.506
		c0.282,0.337,0.424,0.752,0.424,1.244C31.576,51.607,31.439,52.022,31.166,52.332z"/>
	<polygon points="35.5,54 37.168,54 37.168,49.461 41.379,49.461 41.379,48.34 37.168,48.34 37.168,45.168 41.803,45.168 
		41.803,43.924 35.5,43.924 	"/>
	<path d="M25.5,13h-12v4v2v2v2v2v2v2v2v4h10h2h21v-4v-2v-2v-2v-2v-2v-4h-21V13z M15.5,19h8v2h-8V19z M15.5,23h8v2h-8V23z M15.5,27h8
		v2h-8V27z M23.5,33h-8v-2h8V33z M44.5,33h-19v-2h19V33z M44.5,29h-19v-2h19V29z M44.5,25h-19v-2h19V25z M44.5,19v2h-19v-2H44.5z
		 M15.5,17v-2h8v2H15.5z"/>
</g>
<g>
</g>
<g>
</g>
<g>
</g>
<g>
</g>
<g>
</g>
<g>
</g>
<g>
</g>
<g>
</g>
<g>
</g>
<g>
</g>
<g>
</g>
<g>
</g>
<g>
</g>
<g>
</g>
<g>
</g>
</svg>
