<?xml version="1.0" encoding="iso-8859-1"?>
<!-- Generator: Adobe Illustrator 18.0.0, SVG Export Plug-In . SVG Version: 6.00 Build 0)  -->
<!DOCTYPE svg PUBLIC "-//W3C//DTD SVG 1.1//EN" "http://www.w3.org/Graphics/SVG/1.1/DTD/svg11.dtd">
<svg version="1.1" id="Capa_1" xmlns="http://www.w3.org/2000/svg" xmlns:xlink="http://www.w3.org/1999/xlink" x="0px" y="0px"
	 viewBox="0 0 54 54" style="enable-background:new 0 0 54 54;" xml:space="preserve">
<g>
	<path d="M41.824,0H12.176C5.462,0,0,5.462,0,12.176v29.648C0,48.538,5.462,54,12.176,54h29.648C48.538,54,54,48.538,54,41.824
		V12.176C54,5.462,48.538,0,41.824,0z M52,41.824C52,47.435,47.436,52,41.824,52H12.176C6.564,52,2,47.435,2,41.824V12.176
		C2,6.565,6.564,2,12.176,2h29.648C47.436,2,52,6.565,52,12.176V41.824z"/>
	<path d="M12.721,11.96H5.2V40h8.32C19.174,40,22,37.334,22,32V21.04c0-2.746-0.793-4.946-2.38-6.6S15.733,11.96,12.721,11.96z
		 M19.12,32.4c0,1.066-0.187,1.946-0.56,2.64c-0.827,1.573-2.721,2.36-5.681,2.36h-4.8V14.72h5.04c1.681,0,3.101,0.487,4.26,1.46
		c1.16,0.974,1.74,2.46,1.74,4.46V32.4z"/>
	<polygon points="42.2,36.04 38.08,19.96 35.24,19.96 31.12,36.04 26.28,19.96 23.2,19.96 29.44,40 32.88,40 36.601,25.44 40.28,40 
		43.721,40 50,19.96 46.92,19.96 	"/>
</g>
<g>
</g>
<g>
</g>
<g>
</g>
<g>
</g>
<g>
</g>
<g>
</g>
<g>
</g>
<g>
</g>
<g>
</g>
<g>
</g>
<g>
</g>
<g>
</g>
<g>
</g>
<g>
</g>
<g>
</g>
</svg>
