<?xml version="1.0" encoding="iso-8859-1"?>
<!-- Generator: Adobe Illustrator 18.0.0, SVG Export Plug-In . SVG Version: 6.00 Build 0)  -->
<!DOCTYPE svg PUBLIC "-//W3C//DTD SVG 1.1//EN" "http://www.w3.org/Graphics/SVG/1.1/DTD/svg11.dtd">
<svg version="1.1" id="Capa_1" xmlns="http://www.w3.org/2000/svg" xmlns:xlink="http://www.w3.org/1999/xlink" x="0px" y="0px"
	 viewBox="0 0 58 58" style="enable-background:new 0 0 58 58;" xml:space="preserve">
<g>
	<path d="M50.95,12.187l-0.77-0.77l0,0L40.084,1.321c0,0-0.001-0.001-0.002-0.001l-0.768-0.768C38.965,0.201,38.48,0,37.985,0H8.963
		C7.777,0,6.5,0.916,6.5,2.926V39v16.537V56c0,0.838,0.843,1.654,1.839,1.91c0.05,0.013,0.097,0.032,0.148,0.042
		C8.644,57.983,8.803,58,8.963,58h40.074c0.16,0,0.319-0.017,0.475-0.048c0.051-0.01,0.098-0.029,0.148-0.042
		C50.657,57.654,51.5,56.838,51.5,56v-0.463V39V13.978C51.5,13.213,51.408,12.646,50.95,12.187z M39.5,3.565L47.935,12H39.5V3.565z
		 M8.963,56c-0.071,0-0.135-0.025-0.198-0.049C8.609,55.876,8.5,55.72,8.5,55.537V41h41v14.537c0,0.183-0.109,0.339-0.265,0.414
		C49.172,55.975,49.108,56,49.037,56H8.963z M8.5,39V2.926C8.5,2.709,8.533,2,8.963,2h28.595C37.525,2.126,37.5,2.256,37.5,2.392V14
		h11.609c0.135,0,0.264-0.025,0.39-0.058c0,0.014,0.001,0.02,0.001,0.036V39H8.5z"/>
	<path d="M19.683,45.4c-0.424-0.446-0.957-0.805-1.6-1.073s-1.388-0.403-2.235-0.403h-3.035V54h3.814
		c0.127,0,0.323-0.016,0.588-0.048c0.264-0.032,0.556-0.104,0.875-0.219c0.319-0.114,0.649-0.285,0.991-0.513
		s0.649-0.54,0.923-0.937s0.499-0.889,0.677-1.477s0.267-1.297,0.267-2.126c0-0.602-0.105-1.188-0.314-1.757
		C20.423,46.355,20.106,45.847,19.683,45.4z M18.486,51.73c-0.492,0.711-1.294,1.066-2.406,1.066h-1.627v-7.629h0.957
		c0.784,0,1.422,0.103,1.914,0.308s0.882,0.474,1.169,0.807s0.48,0.704,0.581,1.114c0.1,0.41,0.15,0.825,0.15,1.244
		C19.225,49.989,18.979,51.02,18.486,51.73z"/>
	<polygon points="32.213,52.619 30.436,43.924 28.576,43.924 26.662,52.619 24.885,43.924 23.025,43.924 25.582,54.055 
		27.729,54.055 29.492,46.453 31.146,54.055 33.279,54.055 36,43.924 34.141,43.924 	"/>
	<path d="M42.234,49.926h1.709v2.488c-0.073,0.101-0.187,0.178-0.342,0.232s-0.316,0.098-0.485,0.13s-0.337,0.055-0.506,0.068
		s-0.303,0.021-0.403,0.021c-0.328,0-0.641-0.077-0.937-0.232s-0.561-0.392-0.793-0.711s-0.415-0.729-0.547-1.23
		c-0.132-0.501-0.203-1.094-0.212-1.777c0.009-0.702,0.082-1.294,0.219-1.777c0.137-0.483,0.326-0.877,0.567-1.183
		s0.515-0.521,0.82-0.649s0.627-0.191,0.964-0.191c0.301,0,0.593,0.06,0.875,0.178s0.533,0.31,0.752,0.574l1.135-1.012
		c-0.374-0.364-0.798-0.638-1.271-0.82s-0.984-0.273-1.531-0.273c-0.593,0-1.144,0.111-1.654,0.335s-0.955,0.549-1.333,0.978
		c-0.378,0.429-0.675,0.964-0.889,1.606c-0.214,0.643-0.321,1.388-0.321,2.235s0.107,1.595,0.321,2.242
		c0.214,0.647,0.51,1.185,0.889,1.613c0.378,0.429,0.82,0.752,1.326,0.971s1.06,0.328,1.661,0.328c0.301,0,0.604-0.022,0.909-0.068
		s0.602-0.123,0.889-0.232s0.561-0.248,0.82-0.417s0.494-0.385,0.704-0.649v-3.896h-3.336V49.926z"/>
	<path d="M41.5,21h-4v-6h-2v6h-4v4h-2V13h-17v17.065h17V27h2v4h4v6h2v-6h4v-4h6v-2h-6V21z M27.5,28.065h-13V15h13v10h-2v2h2V28.065z
		 M39.5,29h-6v-6h6V29z"/>
</g>
<g>
</g>
<g>
</g>
<g>
</g>
<g>
</g>
<g>
</g>
<g>
</g>
<g>
</g>
<g>
</g>
<g>
</g>
<g>
</g>
<g>
</g>
<g>
</g>
<g>
</g>
<g>
</g>
<g>
</g>
</svg>
