<?xml version="1.0" encoding="iso-8859-1"?>
<!-- Generator: Adobe Illustrator 18.0.0, SVG Export Plug-In . SVG Version: 6.00 Build 0)  -->
<!DOCTYPE svg PUBLIC "-//W3C//DTD SVG 1.1//EN" "http://www.w3.org/Graphics/SVG/1.1/DTD/svg11.dtd">
<svg version="1.1" id="Capa_1" xmlns="http://www.w3.org/2000/svg" xmlns:xlink="http://www.w3.org/1999/xlink" x="0px" y="0px"
	 viewBox="0 0 58 58" style="enable-background:new 0 0 58 58;" xml:space="preserve">
<g>
	<path d="M50.949,12.187l-0.771-0.771L40.085,1.322l-0.771-0.771C38.958,0.195,38.486,0,37.985,0H8.963C7.604,0,6.5,1.104,6.5,2.463
		V39v16.537C6.5,56.896,7.604,58,8.963,58h40.074c1.358,0,2.463-1.104,2.463-2.463V39V13.515
		C51.5,13.014,51.305,12.542,50.949,12.187z M47.935,12H39.5V3.565L47.935,12z M49.5,55.537c0,0.255-0.208,0.463-0.463,0.463H8.963
		C8.708,56,8.5,55.792,8.5,55.537V41h41V55.537z M8.5,39V2.463C8.5,2.208,8.708,2,8.963,2h28.595
		C37.525,2.126,37.5,2.256,37.5,2.392V14h11.608c0.135,0,0.265-0.025,0.392-0.058V39H8.5z"/>
	<polygon points="18.246,49.461 22.457,49.461 22.457,48.34 18.246,48.34 18.246,45.168 22.881,45.168 22.881,43.924 16.578,43.924 
		16.578,54 18.246,54 	"/>
	<polygon points="30.934,52.756 26.299,52.756 26.299,43.924 24.631,43.924 24.631,54 30.934,54 	"/>
	<path d="M34.652,51.908h3.787L39.164,54h1.695l-3.5-10.063h-1.627L32.205,54h1.709L34.652,51.908z M36.553,46.453l1.49,4.348
		h-3.008L36.553,46.453z"/>
	<path d="M35.985,14.929l-0.707-0.707c-4.289-4.289-11.268-4.289-15.557,0s-4.289,11.268,0,15.557
		c2.145,2.145,4.961,3.217,7.778,3.217s5.634-1.072,7.778-3.217l0.707-0.707L28.914,22L35.985,14.929z M33.118,29.032
		c-3.53,2.826-8.712,2.603-11.982-0.668c-3.509-3.51-3.509-9.219,0-12.729c1.755-1.755,4.06-2.632,6.364-2.632
		c1.991,0,3.981,0.654,5.618,1.964L26.086,22L33.118,29.032z"/>
	<circle cx="26.5" cy="17" r="2"/>
	<path d="M36.5,21h-3c-0.553,0-1,0.447-1,1s0.447,1,1,1h3c0.553,0,1-0.447,1-1S37.053,21,36.5,21z"/>
	<path d="M42.5,21h-2c-0.553,0-1,0.447-1,1s0.447,1,1,1h2c0.553,0,1-0.447,1-1S43.053,21,42.5,21z"/>
</g>
<g>
</g>
<g>
</g>
<g>
</g>
<g>
</g>
<g>
</g>
<g>
</g>
<g>
</g>
<g>
</g>
<g>
</g>
<g>
</g>
<g>
</g>
<g>
</g>
<g>
</g>
<g>
</g>
<g>
</g>
</svg>
