<?xml version="1.0" encoding="iso-8859-1"?>
<!-- Generator: Adobe Illustrator 18.0.0, SVG Export Plug-In . SVG Version: 6.00 Build 0)  -->
<!DOCTYPE svg PUBLIC "-//W3C//DTD SVG 1.1//EN" "http://www.w3.org/Graphics/SVG/1.1/DTD/svg11.dtd">
<svg version="1.1" id="Capa_1" xmlns="http://www.w3.org/2000/svg" xmlns:xlink="http://www.w3.org/1999/xlink" x="0px" y="0px"
	 viewBox="0 0 54 54" style="enable-background:new 0 0 54 54;" xml:space="preserve">
<g>
	<path d="M41.824,0H12.176C5.462,0,0,5.462,0,12.176v29.648C0,48.538,5.462,54,12.176,54h29.648C48.538,54,54,48.538,54,41.824
		V12.176C54,5.462,48.538,0,41.824,0z M52,41.824C52,47.435,47.435,52,41.824,52H12.176C6.565,52,2,47.435,2,41.824V12.176
		C2,6.565,6.565,2,12.176,2h29.648C47.435,2,52,6.565,52,12.176V41.824z"/>
	<path d="M19.84,12L11.6,40h3.12l2.64-9.04h8.32L28.44,40h3.24l-8.52-28H19.84z M18.12,28l3.36-11.36L24.96,28H18.12z"/>
	<path d="M36.859,11.6c-0.44,0-0.827,0.167-1.16,0.5c-0.334,0.334-0.5,0.714-0.5,1.141s0.166,0.807,0.5,1.14
		c0.333,0.334,0.72,0.5,1.16,0.5c0.44,0,0.82-0.16,1.14-0.479c0.32-0.32,0.48-0.707,0.48-1.16S38.32,12.4,38,12.08
		C37.68,11.76,37.3,11.6,36.859,11.6z"/>
	<rect x="35.359" y="19.96" width="2.88" height="20.04"/>
</g>
<g>
</g>
<g>
</g>
<g>
</g>
<g>
</g>
<g>
</g>
<g>
</g>
<g>
</g>
<g>
</g>
<g>
</g>
<g>
</g>
<g>
</g>
<g>
</g>
<g>
</g>
<g>
</g>
<g>
</g>
</svg>
