<?xml version="1.0" encoding="iso-8859-1"?>
<!-- Generator: Adobe Illustrator 18.0.0, SVG Export Plug-In . SVG Version: 6.00 Build 0)  -->
<!DOCTYPE svg PUBLIC "-//W3C//DTD SVG 1.1//EN" "http://www.w3.org/Graphics/SVG/1.1/DTD/svg11.dtd">
<svg version="1.1" id="Capa_1" xmlns="http://www.w3.org/2000/svg" xmlns:xlink="http://www.w3.org/1999/xlink" x="0px" y="0px"
	 viewBox="0 0 54 54" style="enable-background:new 0 0 54 54;" xml:space="preserve">
<g>
	<path d="M41.824,0H12.176C5.462,0,0,5.462,0,12.176v29.648C0,48.538,5.462,54,12.176,54h29.648C48.538,54,54,48.538,54,41.824
		V12.176C54,5.462,48.538,0,41.824,0z M52,41.824C52,47.435,47.435,52,41.824,52H12.176C6.565,52,2,47.435,2,41.824V12.176
		C2,6.565,6.565,2,12.176,2h29.648C47.435,2,52,6.565,52,12.176V41.824z"/>
	<polygon points="13.56,14.64 16.2,14.72 16.2,40 19.08,40 19.08,12 13.56,12 	"/>
	<path d="M37.16,20.76c-1.147-0.746-2.554-1.12-4.22-1.12s-3.086,0.254-4.26,0.761c-2.267,1.04-3.4,2.96-3.4,5.76v7.56
		c0,2.641,1.04,4.494,3.12,5.561c1.573,0.8,3.333,1.2,5.28,1.2c1.946,0,4.066-0.16,6.36-0.48V12h-2.88V20.76z M37.16,37.48
		C35.8,37.693,34.413,37.8,33,37.8c-1.414,0-2.6-0.359-3.56-1.08c-0.88-0.692-1.32-1.653-1.32-2.88v-7.12
		c0-1.253,0.353-2.286,1.06-3.1c0.706-0.813,1.846-1.22,3.42-1.22c1.653,0,3.173,0.373,4.56,1.119V37.48z"/>
</g>
<g>
</g>
<g>
</g>
<g>
</g>
<g>
</g>
<g>
</g>
<g>
</g>
<g>
</g>
<g>
</g>
<g>
</g>
<g>
</g>
<g>
</g>
<g>
</g>
<g>
</g>
<g>
</g>
<g>
</g>
</svg>
