<?xml version="1.0" encoding="iso-8859-1"?>
<!-- Generator: Adobe Illustrator 18.0.0, SVG Export Plug-In . SVG Version: 6.00 Build 0)  -->
<!DOCTYPE svg PUBLIC "-//W3C//DTD SVG 1.1//EN" "http://www.w3.org/Graphics/SVG/1.1/DTD/svg11.dtd">
<svg version="1.1" id="Capa_1" xmlns="http://www.w3.org/2000/svg" xmlns:xlink="http://www.w3.org/1999/xlink" x="0px" y="0px"
	 viewBox="0 0 58 58" style="enable-background:new 0 0 58 58;" xml:space="preserve">
<g>
	<path d="M50.949,12.187l-1.361-1.361l-9.504-9.505c-0.001-0.001-0.001-0.001-0.001-0.001l-0.771-0.771
		C38.957,0.195,38.486,0,37.985,0H8.963C7.776,0,6.5,0.916,6.5,2.926V39v16.537V56c0,0.837,0.841,1.652,1.836,1.909
		c0.051,0.014,0.1,0.033,0.152,0.043C8.644,57.983,8.803,58,8.963,58h40.074c0.16,0,0.319-0.017,0.475-0.048
		c0.052-0.01,0.101-0.029,0.152-0.043C50.659,57.652,51.5,56.837,51.5,56v-0.463V39V13.978C51.5,13.211,51.407,12.644,50.949,12.187
		z M39.075,25l-6.773-1.815C32.421,22.804,32.5,22.41,32.5,22c0-1.068-0.416-2.073-1.172-2.828C30.573,18.417,29.568,18,28.5,18
		c-0.355,0-0.697,0.062-1.031,0.151l-1.813-6.764c0.931-0.248,1.886-0.382,2.844-0.382c2.817,0,5.634,1.072,7.778,3.216
		C39.192,17.136,40.121,21.29,39.075,25z M38.33,26.92c-0.089,0.179-0.187,0.353-0.285,0.526c-0.073,0.128-0.147,0.256-0.225,0.381
		c-0.086,0.138-0.175,0.275-0.268,0.409c-0.114,0.166-0.235,0.329-0.36,0.49c-0.077,0.099-0.151,0.2-0.231,0.297
		c-0.215,0.259-0.44,0.513-0.682,0.755c-0.316,0.316-0.656,0.607-1.008,0.882c-0.073,0.057-0.148,0.108-0.221,0.163
		c-0.314,0.231-0.638,0.45-0.977,0.648c-0.027,0.016-0.054,0.032-0.082,0.048l-1.677-6.261l6.038,1.618
		C38.343,26.891,38.337,26.906,38.33,26.92z M17.887,19.156l6.764,1.812C24.562,21.303,24.5,21.645,24.5,22
		c0,1.068,0.416,2.073,1.172,2.828C26.427,25.583,27.432,26,28.5,26c0.646,0,1.26-0.169,1.819-0.456l1.827,6.82
		c-3.866,1.353-8.339,0.499-11.425-2.585C17.848,26.905,16.91,22.826,17.887,19.156z M18.615,17.198
		c0.101-0.211,0.211-0.416,0.325-0.619c0.061-0.107,0.124-0.214,0.188-0.319c0.099-0.163,0.201-0.324,0.309-0.482
		c0.107-0.156,0.221-0.308,0.337-0.459c0.085-0.111,0.167-0.225,0.256-0.333c0.218-0.262,0.445-0.519,0.691-0.765
		c0.245-0.245,0.502-0.473,0.764-0.69c0.109-0.09,0.224-0.173,0.336-0.259c0.15-0.115,0.302-0.229,0.456-0.335
		c0.157-0.107,0.318-0.209,0.481-0.308c0.106-0.065,0.212-0.128,0.32-0.189c0.203-0.114,0.409-0.224,0.621-0.326
		c0.023-0.011,0.047-0.022,0.071-0.033l1.9,7.09l-7.091-1.9C18.593,17.247,18.603,17.222,18.615,17.198z M27.369,20.356l0.064-0.044
		C27.75,20.111,28.116,20,28.5,20c0.534,0,1.036,0.208,1.414,0.586S30.5,21.466,30.5,22s-0.208,1.036-0.586,1.414
		c-0.756,0.756-2.072,0.756-2.828,0C26.708,23.036,26.5,22.534,26.5,22c0-0.384,0.111-0.749,0.312-1.065l0.046-0.067
		c0.051-0.075,0.112-0.146,0.174-0.216c0.02-0.021,0.034-0.045,0.054-0.066c0.015-0.015,0.033-0.025,0.048-0.039
		C27.209,20.478,27.287,20.413,27.369,20.356z M39.5,3.565L47.935,12H39.5V3.565z M8.963,56c-0.071,0-0.135-0.025-0.198-0.049
		C8.61,55.877,8.5,55.721,8.5,55.537V41h41v14.537c0,0.184-0.11,0.34-0.265,0.414C49.172,55.975,49.108,56,49.037,56H8.963z M8.5,39
		V2.926C8.5,2.709,8.533,2,8.963,2h28.595C37.525,2.126,37.5,2.256,37.5,2.391v10.243c-3.384-3.253-8.103-4.31-12.361-3.176
		l-0.013-0.047l-1.022,0.367c-0.027,0.01-0.051,0.023-0.077,0.032c-0.383,0.14-0.759,0.299-1.13,0.475
		c-0.059,0.028-0.119,0.054-0.178,0.082c-0.344,0.171-0.68,0.36-1.011,0.563c-0.075,0.046-0.153,0.087-0.227,0.134
		c-0.306,0.196-0.602,0.412-0.894,0.637c-0.08,0.061-0.165,0.116-0.244,0.179c-0.357,0.288-0.704,0.595-1.035,0.927
		c-0.332,0.332-0.639,0.679-0.928,1.036c-0.062,0.077-0.115,0.159-0.174,0.237c-0.226,0.294-0.444,0.592-0.642,0.9
		c-0.047,0.073-0.087,0.149-0.132,0.223c-0.204,0.333-0.394,0.671-0.566,1.016c-0.028,0.056-0.052,0.115-0.08,0.172
		c-0.178,0.374-0.338,0.753-0.479,1.139c-0.009,0.025-0.022,0.048-0.031,0.073l-0.366,1.022l0.046,0.012
		c-1.154,4.337-0.045,9.157,3.35,12.553c2.534,2.534,5.863,3.801,9.192,3.801c1.41,0,2.815-0.241,4.164-0.696l0.015,0.057
		l0.677-0.298c0.065-0.026,0.129-0.058,0.194-0.086l0.197-0.087c0.046-0.02,0.088-0.045,0.133-0.066
		c0.305-0.139,0.607-0.285,0.903-0.448c0.076-0.042,0.149-0.089,0.224-0.133c0.267-0.155,0.533-0.312,0.791-0.487
		c0.143-0.096,0.277-0.203,0.415-0.305c0.185-0.137,0.373-0.268,0.552-0.415c0.321-0.264,0.631-0.542,0.926-0.837
		c0.325-0.325,0.628-0.664,0.911-1.014c0.057-0.071,0.106-0.148,0.162-0.22c0.225-0.29,0.443-0.584,0.64-0.889
		c0.039-0.061,0.072-0.126,0.11-0.187c0.206-0.33,0.4-0.665,0.573-1.009c0.025-0.05,0.046-0.102,0.071-0.153
		c0.177-0.361,0.337-0.727,0.478-1.1c0.008-0.021,0.019-0.04,0.027-0.061l0.386-1.031l-0.046-0.012
		c1.088-3.895,0.33-8.194-2.27-11.517h10.374c0.135,0,0.265-0.025,0.391-0.058c0,0.015,0.001,0.021,0.001,0.036V39H8.5z"/>
	<rect x="19.785" y="43.924" width="1.668" height="10.076"/>
	<path d="M28.569,49.064c-0.314-0.228-0.654-0.422-1.019-0.581c-0.365-0.159-0.702-0.323-1.012-0.492
		c-0.311-0.169-0.57-0.364-0.779-0.588c-0.21-0.224-0.314-0.518-0.314-0.882c0-0.146,0.036-0.299,0.109-0.458
		c0.072-0.159,0.173-0.303,0.301-0.431c0.127-0.128,0.273-0.234,0.438-0.321s0.337-0.139,0.52-0.157
		c0.328-0.027,0.597-0.032,0.807-0.014c0.209,0.019,0.378,0.05,0.506,0.096c0.127,0.046,0.226,0.091,0.294,0.137
		s0.13,0.082,0.185,0.109c0.009-0.009,0.036-0.055,0.082-0.137c0.045-0.082,0.1-0.185,0.164-0.308
		c0.063-0.123,0.132-0.255,0.205-0.396c0.072-0.142,0.137-0.271,0.191-0.39c-0.265-0.173-0.611-0.299-1.039-0.376
		c-0.429-0.077-0.853-0.116-1.271-0.116c-0.41,0-0.8,0.063-1.169,0.191s-0.692,0.313-0.971,0.554s-0.499,0.535-0.663,0.882
		s-0.246,0.743-0.246,1.189c0,0.492,0.104,0.902,0.314,1.23c0.209,0.328,0.474,0.613,0.793,0.854
		c0.318,0.241,0.66,0.451,1.025,0.629c0.364,0.178,0.704,0.355,1.019,0.533s0.576,0.376,0.786,0.595
		c0.209,0.219,0.314,0.483,0.314,0.793c0,0.511-0.148,0.896-0.444,1.155s-0.723,0.39-1.278,0.39c-0.183,0-0.379-0.019-0.588-0.055
		c-0.21-0.036-0.42-0.084-0.629-0.144c-0.21-0.06-0.412-0.123-0.608-0.191s-0.358-0.139-0.485-0.212l-0.287,1.176
		c0.154,0.137,0.34,0.253,0.554,0.349s0.439,0.171,0.677,0.226c0.236,0.055,0.472,0.094,0.704,0.116s0.458,0.034,0.677,0.034
		c0.51,0,0.966-0.077,1.367-0.232c0.4-0.155,0.738-0.362,1.012-0.622s0.485-0.561,0.636-0.902s0.226-0.695,0.226-1.06
		c0-0.538-0.105-0.978-0.314-1.319C29.146,49.577,28.884,49.292,28.569,49.064z"/>
	<path d="M38.358,45.072c-0.378-0.429-0.82-0.754-1.326-0.978s-1.06-0.335-1.661-0.335s-1.155,0.111-1.661,0.335
		s-0.948,0.549-1.326,0.978s-0.675,0.964-0.889,1.606s-0.321,1.388-0.321,2.235s0.107,1.595,0.321,2.242s0.511,1.185,0.889,1.613
		s0.82,0.752,1.326,0.971s1.06,0.328,1.661,0.328s1.155-0.109,1.661-0.328s0.948-0.542,1.326-0.971s0.675-0.966,0.889-1.613
		s0.321-1.395,0.321-2.242s-0.107-1.593-0.321-2.235S38.736,45.501,38.358,45.072z M37.682,50.698
		c-0.137,0.487-0.326,0.882-0.567,1.183s-0.515,0.518-0.82,0.649s-0.627,0.198-0.964,0.198c-0.328,0-0.641-0.07-0.937-0.212
		s-0.561-0.364-0.793-0.67s-0.415-0.699-0.547-1.183s-0.203-1.066-0.212-1.75c0.009-0.702,0.082-1.294,0.219-1.777
		s0.326-0.877,0.567-1.183s0.515-0.521,0.82-0.649s0.626-0.191,0.964-0.191c0.328,0,0.641,0.068,0.937,0.205s0.561,0.36,0.793,0.67
		s0.415,0.704,0.547,1.183s0.202,1.06,0.212,1.743C37.891,49.616,37.818,50.211,37.682,50.698z"/>
</g>
<g>
</g>
<g>
</g>
<g>
</g>
<g>
</g>
<g>
</g>
<g>
</g>
<g>
</g>
<g>
</g>
<g>
</g>
<g>
</g>
<g>
</g>
<g>
</g>
<g>
</g>
<g>
</g>
<g>
</g>
</svg>
