<?xml version="1.0" encoding="iso-8859-1"?>
<!-- Generator: Adobe Illustrator 18.0.0, SVG Export Plug-In . SVG Version: 6.00 Build 0)  -->
<!DOCTYPE svg PUBLIC "-//W3C//DTD SVG 1.1//EN" "http://www.w3.org/Graphics/SVG/1.1/DTD/svg11.dtd">
<svg version="1.1" id="Capa_1" xmlns="http://www.w3.org/2000/svg" xmlns:xlink="http://www.w3.org/1999/xlink" x="0px" y="0px"
	 viewBox="0 0 58 58" style="enable-background:new 0 0 58 58;" xml:space="preserve">
<g>
	<path d="M50.949,12.187l-5.818-5.818l-5.047-5.048l0,0l-0.77-0.77C38.964,0.201,38.48,0,37.985,0H8.963
		C7.777,0,6.5,0.916,6.5,2.926V39v16.537V56c0,0.837,0.842,1.653,1.838,1.91c0.05,0.013,0.098,0.032,0.15,0.042
		C8.644,57.983,8.803,58,8.963,58h40.074c0.16,0,0.319-0.017,0.475-0.048c0.052-0.01,0.101-0.029,0.152-0.043
		C50.659,57.652,51.5,56.837,51.5,56v-0.463V39V13.978C51.5,13.211,51.407,12.644,50.949,12.187z M47.935,12H39.5V3.565l4.248,4.249
		L47.935,12z M8.963,2h28.595C37.525,2.126,37.5,2.256,37.5,2.391V14h11.608c0.135,0,0.265-0.025,0.391-0.058
		c0,0.015,0.001,0.021,0.001,0.036v12.693l-8.311-7.896c-0.195-0.185-0.445-0.284-0.725-0.274c-0.269,0.01-0.521,0.127-0.703,0.325
		l-9.795,10.727l-4.743-4.743c-0.369-0.369-0.958-0.392-1.355-0.055L8.5,37.836V2.926C8.5,2.709,8.533,2,8.963,2z M8.963,56
		c-0.071,0-0.135-0.026-0.198-0.049C8.609,55.877,8.5,55.721,8.5,55.537V41h41v14.537c0,0.184-0.11,0.34-0.265,0.414
		C49.172,55.975,49.108,56,49.037,56H8.963z M10.218,39l14.245-12.124L34.776,37.19c0.391,0.391,1.023,0.391,1.414,0
		s0.391-1.023,0-1.414l-4.807-4.807l9.168-10.041l8.949,8.501V39H10.218z"/>
	<path d="M19.354,51.43c-0.019,0.446-0.171,0.764-0.458,0.95s-0.672,0.28-1.155,0.28c-0.191,0-0.396-0.022-0.615-0.068
		s-0.429-0.098-0.629-0.157c-0.201-0.06-0.385-0.123-0.554-0.191c-0.169-0.068-0.299-0.135-0.39-0.198l-0.697,1.107
		c0.182,0.137,0.405,0.26,0.67,0.369c0.264,0.109,0.54,0.207,0.827,0.294s0.565,0.15,0.834,0.191
		c0.269,0.041,0.503,0.062,0.704,0.062c0.401,0,0.791-0.039,1.169-0.116c0.378-0.077,0.713-0.214,1.005-0.41
		c0.292-0.196,0.524-0.456,0.697-0.779c0.173-0.323,0.26-0.723,0.26-1.196v-7.848h-1.668V51.43z"/>
	<path d="M28.767,44.744c-0.333-0.273-0.709-0.479-1.128-0.615c-0.419-0.137-0.843-0.205-1.271-0.205h-2.898V54h1.641v-3.637h1.217
		c0.528,0,1.012-0.077,1.449-0.232s0.811-0.374,1.121-0.656c0.31-0.282,0.551-0.631,0.725-1.046c0.173-0.415,0.26-0.877,0.26-1.388
		c0-0.483-0.103-0.918-0.308-1.306S29.099,45.018,28.767,44.744z M28.145,48.073c-0.101,0.278-0.232,0.494-0.396,0.649
		s-0.344,0.267-0.54,0.335c-0.196,0.068-0.395,0.103-0.595,0.103h-1.504v-3.992h1.23c0.419,0,0.756,0.066,1.012,0.198
		c0.255,0.132,0.453,0.296,0.595,0.492c0.141,0.196,0.234,0.401,0.28,0.615c0.045,0.214,0.068,0.403,0.068,0.567
		C28.295,47.451,28.245,47.795,28.145,48.073z"/>
	<path d="M35.76,49.926h1.709v2.488c-0.073,0.101-0.187,0.178-0.342,0.232c-0.155,0.055-0.317,0.098-0.485,0.13
		c-0.169,0.032-0.337,0.055-0.506,0.068c-0.169,0.014-0.303,0.021-0.403,0.021c-0.328,0-0.641-0.077-0.937-0.232
		c-0.296-0.155-0.561-0.392-0.793-0.711s-0.415-0.729-0.547-1.23c-0.132-0.501-0.203-1.094-0.212-1.777
		c0.009-0.702,0.082-1.294,0.219-1.777s0.326-0.877,0.567-1.183c0.241-0.306,0.515-0.521,0.82-0.649
		c0.305-0.128,0.626-0.191,0.964-0.191c0.301,0,0.592,0.06,0.875,0.178c0.282,0.118,0.533,0.31,0.752,0.574l1.135-1.012
		c-0.374-0.364-0.798-0.638-1.271-0.82c-0.474-0.183-0.984-0.273-1.531-0.273c-0.593,0-1.144,0.111-1.654,0.335
		c-0.511,0.224-0.955,0.549-1.333,0.978c-0.378,0.429-0.675,0.964-0.889,1.606c-0.214,0.643-0.321,1.388-0.321,2.235
		s0.107,1.595,0.321,2.242c0.214,0.647,0.51,1.185,0.889,1.613c0.378,0.429,0.82,0.752,1.326,0.971s1.06,0.328,1.661,0.328
		c0.301,0,0.604-0.022,0.909-0.068c0.305-0.046,0.602-0.123,0.889-0.232s0.561-0.248,0.82-0.417s0.494-0.385,0.704-0.649v-3.896
		H35.76V49.926z"/>
	<path d="M19.069,23.638c3.071,0,5.569-2.498,5.569-5.569S22.14,12.5,19.069,12.5S13.5,14.998,13.5,18.069
		S15.998,23.638,19.069,23.638z M19.069,14.5c1.968,0,3.569,1.601,3.569,3.569s-1.601,3.569-3.569,3.569S15.5,20.037,15.5,18.069
		S17.101,14.5,19.069,14.5z"/>
</g>
<g>
</g>
<g>
</g>
<g>
</g>
<g>
</g>
<g>
</g>
<g>
</g>
<g>
</g>
<g>
</g>
<g>
</g>
<g>
</g>
<g>
</g>
<g>
</g>
<g>
</g>
<g>
</g>
<g>
</g>
</svg>
