<?xml version="1.0" encoding="iso-8859-1"?>
<!-- Generator: Adobe Illustrator 18.0.0, SVG Export Plug-In . SVG Version: 6.00 Build 0)  -->
<!DOCTYPE svg PUBLIC "-//W3C//DTD SVG 1.1//EN" "http://www.w3.org/Graphics/SVG/1.1/DTD/svg11.dtd">
<svg version="1.1" id="Capa_1" xmlns="http://www.w3.org/2000/svg" xmlns:xlink="http://www.w3.org/1999/xlink" x="0px" y="0px"
	 viewBox="0 0 58 58" style="enable-background:new 0 0 58 58;" xml:space="preserve">
<g>
	<path d="M50.949,12.187l-0.771-0.771L40.085,1.322l-0.771-0.771C38.958,0.195,38.486,0,37.985,0H8.963C7.604,0,6.5,1.104,6.5,2.463
		V39v16.537C6.5,56.896,7.604,58,8.963,58h40.074c1.358,0,2.463-1.104,2.463-2.463V39V13.515
		C51.5,13.014,51.305,12.542,50.949,12.187z M47.935,12H39.5V3.565L47.935,12z M49.5,55.537c0,0.255-0.208,0.463-0.463,0.463H8.963
		C8.708,56,8.5,55.792,8.5,55.537V41h41V55.537z M8.5,39V2.463C8.5,2.208,8.708,2,8.963,2h28.595
		C37.525,2.126,37.5,2.256,37.5,2.392V14h11.608c0.135,0,0.265-0.025,0.392-0.058V39H8.5z"/>
	<polygon points="17.426,47.068 19.695,52.674 21.145,52.674 23.4,47.068 23.4,54 25.068,54 25.068,43.924 23.4,43.924 
		20.42,50.814 17.426,43.924 15.758,43.924 15.758,54 17.426,54 	"/>
	<path d="M29.211,50.363h1.217c0.528,0,1.012-0.077,1.449-0.232s0.812-0.374,1.121-0.656s0.552-0.631,0.725-1.046
		s0.26-0.877,0.26-1.388c0-0.483-0.103-0.918-0.308-1.306s-0.474-0.718-0.807-0.991s-0.709-0.479-1.128-0.615
		s-0.843-0.205-1.271-0.205H27.57V54h1.641V50.363z M29.211,45.168h1.23c0.419,0,0.757,0.066,1.012,0.198s0.453,0.296,0.595,0.492
		s0.234,0.401,0.28,0.615s0.068,0.403,0.068,0.567c0,0.41-0.05,0.754-0.15,1.032s-0.232,0.494-0.396,0.649s-0.344,0.267-0.54,0.335
		s-0.395,0.103-0.595,0.103h-1.504V45.168z"/>
	<path d="M38.111,52.893c-0.429,0-0.766-0.016-1.012-0.048s-0.438-0.073-0.574-0.123s-0.241-0.103-0.314-0.157
		s-0.15-0.104-0.232-0.15l-0.369,1.176c0.173,0.109,0.48,0.217,0.923,0.321s1.046,0.157,1.812,0.157
		c0.109,0,0.262-0.009,0.458-0.027s0.412-0.06,0.649-0.123s0.48-0.162,0.731-0.294s0.477-0.308,0.677-0.526s0.367-0.494,0.499-0.827
		s0.198-0.727,0.198-1.183c0-0.374-0.063-0.704-0.191-0.991s-0.287-0.531-0.479-0.731s-0.398-0.355-0.622-0.465
		s-0.439-0.178-0.649-0.205c0.164-0.036,0.342-0.111,0.533-0.226s0.364-0.258,0.52-0.431s0.282-0.376,0.383-0.608
		s0.15-0.49,0.15-0.772c0-0.483-0.084-0.902-0.253-1.258s-0.396-0.647-0.684-0.875s-0.622-0.395-1.005-0.499
		s-0.788-0.157-1.217-0.157c-0.61,0-1.078,0.036-1.401,0.109s-0.595,0.142-0.813,0.205l0.479,1.23
		c0.128-0.046,0.316-0.107,0.567-0.185s0.586-0.116,1.005-0.116s0.747,0.048,0.984,0.144s0.417,0.221,0.54,0.376
		s0.198,0.323,0.226,0.506s0.041,0.355,0.041,0.52c0,0.41-0.06,0.725-0.178,0.943s-0.269,0.374-0.451,0.465s-0.376,0.142-0.581,0.15
		s-0.408,0.014-0.608,0.014h-0.93l0.014,1.107h1.381c0.547,0,0.962,0.169,1.244,0.506s0.424,0.752,0.424,1.244
		c0,0.52-0.155,0.95-0.465,1.292S38.74,52.893,38.111,52.893z"/>
	<path d="M34.362,13.636c-3.914-3.131-4.757-6.277-4.862-6.738V6c0-0.553-0.447-1-1-1s-1,0.447-1,1v1v8.359v9.053h-3.706
		c-3.882,0-6.294,1.961-6.294,5.117c0,3.466,2.24,5.706,5.706,5.706c3.471,0,6.294-2.823,6.294-6.294V17.468l0.298,0.243
		c0.34,0.336,0.861,0.72,1.521,1.205c2.318,1.709,6.2,4.567,5.224,7.793C36.514,26.807,36.5,26.904,36.5,27
		c0,0.43,0.278,0.826,0.71,0.957C37.307,27.986,37.404,28,37.5,28c0.43,0,0.826-0.278,0.957-0.71
		c1.627-5.375-0.422-9.39-1.787-11.304C36.103,15.19,35.37,14.443,34.362,13.636z M27.5,28.941c0,2.368-1.926,4.294-4.294,4.294
		c-2.355,0-3.706-1.351-3.706-3.706c0-2.576,2.335-3.117,4.294-3.117H27.5V28.941z M32.505,17.308
		c-0.571-0.422-1.065-0.785-1.371-1.081l-1.634-1.34v-3.473c0.827,1.174,1.987,2.483,3.612,3.783
		c0.858,0.688,1.472,1.308,1.929,1.95c0.716,1.003,1.431,2.339,1.788,3.978C35.502,19.515,33.745,18.221,32.505,17.308z"/>
</g>
<g>
</g>
<g>
</g>
<g>
</g>
<g>
</g>
<g>
</g>
<g>
</g>
<g>
</g>
<g>
</g>
<g>
</g>
<g>
</g>
<g>
</g>
<g>
</g>
<g>
</g>
<g>
</g>
<g>
</g>
</svg>
