<?xml version="1.0" encoding="iso-8859-1"?>
<!-- Generator: Adobe Illustrator 18.0.0, SVG Export Plug-In . SVG Version: 6.00 Build 0)  -->
<!DOCTYPE svg PUBLIC "-//W3C//DTD SVG 1.1//EN" "http://www.w3.org/Graphics/SVG/1.1/DTD/svg11.dtd">
<svg version="1.1" id="Capa_1" xmlns="http://www.w3.org/2000/svg" xmlns:xlink="http://www.w3.org/1999/xlink" x="0px" y="0px"
	 viewBox="0 0 54 54" style="enable-background:new 0 0 54 54;" xml:space="preserve">
<g>
	<path d="M41.824,0H12.176C5.462,0,0,5.462,0,12.176v29.648C0,48.538,5.462,54,12.176,54h29.648C48.538,54,54,48.538,54,41.824
		V12.176C54,5.462,48.538,0,41.824,0z M52,41.824C52,47.435,47.435,52,41.824,52H12.176C6.565,52,2,47.435,2,41.824V12.176
		C2,6.565,6.565,2,12.176,2h29.648C47.435,2,52,6.565,52,12.176V41.824z"/>
	<path d="M19.92,12h-9.64v28h2.88v-9.2h7.04c1.36,0,2.533-0.246,3.52-0.74c0.986-0.493,1.72-1.065,2.2-1.72
		c0.48-0.653,0.86-1.493,1.14-2.52c0.28-1.026,0.446-1.88,0.5-2.561c0.053-0.68,0.08-1.486,0.08-2.42c0-2.64-0.634-4.773-1.9-6.399
		C24.473,12.813,22.533,12,19.92,12z M24.74,22.6c-0.014,0.4-0.107,1-0.28,1.801c-0.173,0.8-0.414,1.413-0.72,1.84
		c-0.307,0.427-0.794,0.826-1.46,1.2C21.613,27.813,20.8,28,19.84,28h-6.68V14.8h6.52c3.386,0,5.08,2.027,5.08,6.08
		C24.76,21.627,24.753,22.2,24.74,22.6z"/>
	<path d="M41.22,29.44c-1.054-0.427-2.114-0.813-3.18-1.16c-1.067-0.347-2.027-0.773-2.88-1.28c-0.854-0.506-1.28-1.2-1.28-2.08
		c0-0.8,0.34-1.46,1.02-1.979c0.68-0.521,1.713-0.78,3.1-0.78c1.386,0,2.506,0.334,3.36,1l0.92-2.521L41.8,20.36
		c-0.32-0.187-0.854-0.38-1.6-0.58c-0.747-0.2-1.547-0.3-2.4-0.3c-2.427,0-4.18,0.579-5.26,1.739s-1.62,2.414-1.62,3.761
		s0.493,2.486,1.48,3.42c0.8,0.8,1.727,1.387,2.78,1.76c1.053,0.374,2.1,0.727,3.14,1.06c1.04,0.334,1.92,0.787,2.64,1.36
		c0.72,0.573,1.08,1.347,1.08,2.32s-0.42,1.72-1.26,2.239c-0.84,0.521-1.834,0.78-2.98,0.78s-2.16-0.273-3.04-0.82
		c-0.88-0.546-1.374-1.313-1.48-2.3l-2.8,0.12c0.053,1.6,0.733,2.947,2.04,4.04c1.306,1.093,3.113,1.64,5.42,1.64
		c2.306,0,4.06-0.554,5.26-1.659c1.2-1.106,1.8-2.406,1.8-3.9c0-1.493-0.367-2.693-1.1-3.6S42.273,29.867,41.22,29.44z"/>
</g>
<g>
</g>
<g>
</g>
<g>
</g>
<g>
</g>
<g>
</g>
<g>
</g>
<g>
</g>
<g>
</g>
<g>
</g>
<g>
</g>
<g>
</g>
<g>
</g>
<g>
</g>
<g>
</g>
<g>
</g>
</svg>
