<?xml version="1.0" encoding="iso-8859-1"?>
<!-- Generator: Adobe Illustrator 18.0.0, SVG Export Plug-In . SVG Version: 6.00 Build 0)  -->
<!DOCTYPE svg PUBLIC "-//W3C//DTD SVG 1.1//EN" "http://www.w3.org/Graphics/SVG/1.1/DTD/svg11.dtd">
<svg version="1.1" id="Capa_1" xmlns="http://www.w3.org/2000/svg" xmlns:xlink="http://www.w3.org/1999/xlink" x="0px" y="0px"
	 viewBox="0 0 54 54" style="enable-background:new 0 0 54 54;" xml:space="preserve">
<g>
	<path d="M41.824,0H12.176C5.462,0,0,5.462,0,12.176v29.648C0,48.538,5.462,54,12.176,54h29.648C48.538,54,54,48.538,54,41.824
		V12.176C54,5.462,48.538,0,41.824,0z M52,41.824C52,47.435,47.436,52,41.824,52H12.176C6.564,52,2,47.435,2,41.824V12.176
		C2,6.565,6.564,2,12.176,2h29.648C47.436,2,52,6.565,52,12.176V41.824z"/>
	<path d="M23.72,12h-9.64v28h2.88v-9.2H24c1.36,0,2.533-0.246,3.521-0.74c0.986-0.493,1.72-1.065,2.199-1.72
		c0.48-0.653,0.86-1.493,1.141-2.52s0.446-1.88,0.5-2.561c0.053-0.68,0.08-1.486,0.08-2.42c0-2.64-0.634-4.773-1.9-6.399
		C28.273,12.813,26.333,12,23.72,12z M28.54,22.6c-0.014,0.4-0.106,1-0.28,1.801c-0.173,0.8-0.413,1.413-0.72,1.84
		s-0.794,0.826-1.46,1.2C25.413,27.813,24.601,28,23.641,28H16.96V14.8h6.521c3.386,0,5.08,2.027,5.08,6.08
		C28.561,21.627,28.554,22.2,28.54,22.6z"/>
	<rect x="36.12" y="12" width="2.88" height="28"/>
</g>
<g>
</g>
<g>
</g>
<g>
</g>
<g>
</g>
<g>
</g>
<g>
</g>
<g>
</g>
<g>
</g>
<g>
</g>
<g>
</g>
<g>
</g>
<g>
</g>
<g>
</g>
<g>
</g>
<g>
</g>
</svg>
