<?xml version="1.0" encoding="iso-8859-1"?>
<!-- Generator: Adobe Illustrator 18.0.0, SVG Export Plug-In . SVG Version: 6.00 Build 0)  -->
<!DOCTYPE svg PUBLIC "-//W3C//DTD SVG 1.1//EN" "http://www.w3.org/Graphics/SVG/1.1/DTD/svg11.dtd">
<svg version="1.1" id="Capa_1" xmlns="http://www.w3.org/2000/svg" xmlns:xlink="http://www.w3.org/1999/xlink" x="0px" y="0px"
	 viewBox="0 0 58 58" style="enable-background:new 0 0 58 58;" xml:space="preserve">
<g>
	<path d="M50.949,12.187l-5.818-5.818l-5.047-5.048l0,0l-0.77-0.77C38.964,0.201,38.48,0,37.985,0H8.963
		C7.605,0,6.5,1.105,6.5,2.463V39v16.537C6.5,56.895,7.605,58,8.963,58h40.074c1.358,0,2.463-1.105,2.463-2.463V39V13.515
		C51.5,13.02,51.299,12.535,50.949,12.187z M39.5,12V8.903V3.565L47.935,12h-6.741H39.5z M24.022,31.168
		C23.868,31.071,23.696,31,23.5,31c-0.501,0-0.899,0.375-0.971,0.856c-0.298,0.069-0.604,0.113-0.923,0.113l-1.111,0.006
		C20.482,31.435,20.044,31,19.5,31c-0.548,0-0.99,0.441-0.997,0.987L16.221,32c0.262-0.396,0.465-0.823,0.63-1.253
		C17.027,30.899,17.249,31,17.5,31c0.552,0,1-0.448,1-1c0-0.552-0.448-1-1-1c-0.063,0-0.119,0.025-0.179,0.036
		c0.072-0.403,0.118-0.776,0.143-1.081l0.082-0.504c0.017-0.165,0.059-0.321,0.094-0.479C18.123,26.901,18.5,26.502,18.5,26
		c0-0.208-0.079-0.391-0.188-0.551c0.175-0.243,0.372-0.467,0.595-0.665C19.075,24.911,19.274,25,19.5,25c0.552,0,1-0.448,1-1
		c0-0.025-0.012-0.045-0.014-0.07c0.358-0.103,0.73-0.174,1.12-0.174c0.121,0,0.235,0.025,0.354,0.036l0.167,0.021
		c0.135,0.017,0.263,0.053,0.394,0.082C22.517,23.932,22.5,23.963,22.5,24c0,0.552,0.448,1,1,1c0.273,0,0.52-0.111,0.7-0.288
		c0.191,0.156,0.367,0.326,0.527,0.513c0.021,0.025,0.041,0.049,0.062,0.075C24.611,25.48,24.5,25.727,24.5,26c0,0.552,0.448,1,1,1
		c0.035,0,0.065-0.016,0.099-0.02c0.01,0.048,0.029,0.092,0.038,0.141l0.005,0.026c0.041,0.234,0.072,0.471,0.072,0.716
		c0,0.399-0.075,0.778-0.182,1.143C25.52,29.006,25.511,29,25.5,29c-0.552,0-1,0.448-1,1c0,0.208,0.078,0.39,0.187,0.55
		C24.487,30.779,24.267,30.988,24.022,31.168z M26.516,24.247c-0.007-0.009-0.013-0.017-0.02-0.026
		c-0.605-0.811-1.405-1.465-2.332-1.895l2.123-2.123l2.828,2.828l-2.071,2.07C26.893,24.801,26.715,24.516,26.516,24.247z
		 M30.531,21.617l-2.828-2.828L30.49,16c1.479-1.479,4.86-4.282,7.01-5.551v3.442c-1.419,1.91-3.22,3.976-4.181,4.938L30.531,21.617
		z M49.5,55.537c0,0.255-0.208,0.463-0.463,0.463H8.963C8.708,56,8.5,55.792,8.5,55.537V41h41V55.537z M8.5,39V2.463
		C8.5,2.208,8.708,2,8.963,2h28.595C37.525,2.126,37.5,2.256,37.5,2.391v5.804c-2.573,1.169-7.029,4.996-8.424,6.391l-7.185,7.185
		c-0.095-0.004-0.189-0.014-0.285-0.014c-2.971,0-5.463,2.125-5.983,5.016l-0.108,0.073l-0.02,0.536
		c-0.034,0.942-0.302,4.052-2.343,4.546c-0.517,0.129-0.858,0.625-0.793,1.152L12.52,34h6.98l2.106-0.03
		c3.367,0,6.107-2.74,6.107-6.107c0-0.193-0.011-0.383-0.029-0.572l7.049-7.048c1.223-1.224,3.591-3.976,5.141-6.243h9.234
		c0.135,0,0.265-0.025,0.392-0.058V39H8.5z"/>
	<path d="M18.385,50.363h1.217c0.528,0,1.012-0.077,1.449-0.232s0.811-0.374,1.121-0.656c0.31-0.282,0.551-0.631,0.725-1.046
		c0.173-0.415,0.26-0.877,0.26-1.388c0-0.483-0.103-0.918-0.308-1.306s-0.474-0.718-0.807-0.991
		c-0.333-0.273-0.709-0.479-1.128-0.615c-0.419-0.137-0.843-0.205-1.271-0.205h-2.898V54h1.641V50.363z M18.385,45.168h1.23
		c0.419,0,0.756,0.066,1.012,0.198c0.255,0.132,0.453,0.296,0.595,0.492c0.141,0.196,0.234,0.401,0.28,0.615
		c0.045,0.214,0.068,0.403,0.068,0.567c0,0.41-0.05,0.754-0.15,1.032c-0.101,0.278-0.232,0.494-0.396,0.649
		c-0.164,0.155-0.344,0.267-0.54,0.335c-0.196,0.068-0.395,0.103-0.595,0.103h-1.504V45.168z"/>
	<path d="M27.477,52.756c-0.183,0-0.378-0.019-0.588-0.055c-0.21-0.036-0.419-0.084-0.629-0.144c-0.21-0.06-0.413-0.123-0.608-0.191
		c-0.196-0.068-0.358-0.139-0.485-0.212l-0.287,1.176c0.155,0.137,0.339,0.253,0.554,0.349c0.214,0.096,0.439,0.171,0.677,0.226
		c0.237,0.055,0.472,0.094,0.704,0.116s0.458,0.034,0.677,0.034c0.51,0,0.966-0.077,1.367-0.232
		c0.401-0.155,0.738-0.362,1.012-0.622s0.485-0.561,0.636-0.902s0.226-0.695,0.226-1.06c0-0.538-0.105-0.978-0.314-1.319
		c-0.21-0.342-0.472-0.627-0.786-0.854s-0.654-0.422-1.019-0.581c-0.365-0.159-0.702-0.323-1.012-0.492
		c-0.31-0.169-0.57-0.364-0.779-0.588c-0.21-0.224-0.314-0.518-0.314-0.882c0-0.146,0.036-0.299,0.109-0.458
		c0.073-0.159,0.173-0.303,0.301-0.431c0.127-0.128,0.273-0.234,0.438-0.321s0.337-0.139,0.52-0.157
		c0.328-0.027,0.597-0.032,0.807-0.014c0.209,0.019,0.378,0.05,0.506,0.096c0.127,0.046,0.226,0.091,0.294,0.137
		s0.13,0.082,0.185,0.109c0.009-0.009,0.036-0.055,0.082-0.137c0.045-0.082,0.1-0.185,0.164-0.308
		c0.063-0.123,0.132-0.255,0.205-0.396c0.073-0.142,0.137-0.271,0.191-0.39c-0.265-0.173-0.611-0.299-1.039-0.376
		c-0.429-0.077-0.853-0.116-1.271-0.116c-0.41,0-0.8,0.063-1.169,0.191s-0.693,0.313-0.971,0.554
		c-0.278,0.241-0.499,0.535-0.663,0.882s-0.246,0.743-0.246,1.189c0,0.492,0.104,0.902,0.314,1.23
		c0.209,0.328,0.474,0.613,0.793,0.854c0.319,0.241,0.661,0.451,1.025,0.629c0.364,0.178,0.704,0.355,1.019,0.533
		s0.576,0.376,0.786,0.595c0.209,0.219,0.314,0.483,0.314,0.793c0,0.511-0.148,0.896-0.444,1.155
		C28.458,52.626,28.032,52.756,27.477,52.756z"/>
	<path d="M36.896,53.952c0.264-0.032,0.556-0.104,0.875-0.219c0.319-0.114,0.649-0.285,0.991-0.513s0.649-0.54,0.923-0.937
		s0.499-0.889,0.677-1.477s0.267-1.297,0.267-2.126c0-0.602-0.105-1.188-0.314-1.757c-0.21-0.569-0.526-1.078-0.95-1.524
		s-0.957-0.805-1.6-1.073s-1.388-0.403-2.235-0.403h-3.035V54h3.814C36.436,54,36.632,53.984,36.896,53.952z M34.135,52.797v-7.629
		h0.957c0.784,0,1.422,0.103,1.914,0.308s0.882,0.474,1.169,0.807s0.48,0.704,0.581,1.114c0.1,0.41,0.15,0.825,0.15,1.244
		c0,1.349-0.246,2.379-0.738,3.09s-1.294,1.066-2.406,1.066H34.135z"/>
	<circle cx="21.5" cy="26" r="1"/>
	<circle cx="23.5" cy="28" r="1"/>
	<circle cx="19.5" cy="28" r="1"/>
	<circle cx="21.5" cy="30" r="1"/>
</g>
<g>
</g>
<g>
</g>
<g>
</g>
<g>
</g>
<g>
</g>
<g>
</g>
<g>
</g>
<g>
</g>
<g>
</g>
<g>
</g>
<g>
</g>
<g>
</g>
<g>
</g>
<g>
</g>
<g>
</g>
</svg>
