<?xml version="1.0" encoding="iso-8859-1"?>
<!-- Generator: Adobe Illustrator 18.0.0, SVG Export Plug-In . SVG Version: 6.00 Build 0)  -->
<!DOCTYPE svg PUBLIC "-//W3C//DTD SVG 1.1//EN" "http://www.w3.org/Graphics/SVG/1.1/DTD/svg11.dtd">
<svg version="1.1" id="Capa_1" xmlns="http://www.w3.org/2000/svg" xmlns:xlink="http://www.w3.org/1999/xlink" x="0px" y="0px"
	 viewBox="0 0 58 58" style="enable-background:new 0 0 58 58;" xml:space="preserve">
<g>
	<path d="M50.949,12.187l-0.771-0.771L40.085,1.322l-0.771-0.771C38.958,0.195,38.486,0,37.985,0H8.963C7.604,0,6.5,1.104,6.5,2.463
		v53.074C6.5,56.896,7.604,58,8.963,58h40.074c1.358,0,2.463-1.104,2.463-2.463V13.515C51.5,13.014,51.305,12.542,50.949,12.187z
		 M39.5,3.565L47.935,12H39.5V3.565z M49.5,55.537c0,0.255-0.208,0.463-0.463,0.463H8.963C8.708,56,8.5,55.792,8.5,55.537V2.463
		C8.5,2.208,8.708,2,8.963,2h28.595C37.525,2.126,37.5,2.256,37.5,2.392V14h11.608c0.135,0,0.265-0.025,0.392-0.058V55.537z"/>
	<path d="M32.968,34.054C35.134,32.043,36.5,29.182,36.5,26c0-6.065-4.935-11-11-11s-11,4.935-11,11s4.935,11,11,11
		c2.16,0,4.17-0.635,5.872-1.714l10.421,10.421C41.988,45.902,42.244,46,42.5,46s0.512-0.098,0.707-0.293
		c0.391-0.391,0.391-1.023,0-1.414L32.968,34.054z M25.5,35c-4.963,0-9-4.037-9-9s4.037-9,9-9s9,4.037,9,9S30.463,35,25.5,35z"/>
	<path d="M25.5,21h-6c-0.553,0-1,0.447-1,1s0.447,1,1,1h6c0.553,0,1-0.447,1-1S26.053,21,25.5,21z"/>
	<path d="M28.5,23h2c0.553,0,1-0.447,1-1s-0.447-1-1-1h-2c-0.553,0-1,0.447-1,1S27.947,23,28.5,23z"/>
	<path d="M24.5,29h-2c-0.553,0-1,0.447-1,1s0.447,1,1,1h2c0.553,0,1-0.447,1-1S25.053,29,24.5,29z"/>
	<path d="M30.5,29h-2c-0.553,0-1,0.447-1,1s0.447,1,1,1h2c0.553,0,1-0.447,1-1S31.053,29,30.5,29z"/>
	<path d="M24.5,26c0-0.553-0.447-1-1-1h-4c-0.553,0-1,0.447-1,1s0.447,1,1,1h4C24.053,27,24.5,26.553,24.5,26z"/>
	<path d="M32.5,25h-5c-0.553,0-1,0.447-1,1s0.447,1,1,1h5c0.553,0,1-0.447,1-1S33.053,25,32.5,25z"/>
</g>
<g>
</g>
<g>
</g>
<g>
</g>
<g>
</g>
<g>
</g>
<g>
</g>
<g>
</g>
<g>
</g>
<g>
</g>
<g>
</g>
<g>
</g>
<g>
</g>
<g>
</g>
<g>
</g>
<g>
</g>
</svg>
