<?xml version="1.0" encoding="iso-8859-1"?>
<!-- Generator: Adobe Illustrator 18.0.0, SVG Export Plug-In . SVG Version: 6.00 Build 0)  -->
<!DOCTYPE svg PUBLIC "-//W3C//DTD SVG 1.1//EN" "http://www.w3.org/Graphics/SVG/1.1/DTD/svg11.dtd">
<svg version="1.1" id="Capa_1" xmlns="http://www.w3.org/2000/svg" xmlns:xlink="http://www.w3.org/1999/xlink" x="0px" y="0px"
	 viewBox="0 0 58 58" style="enable-background:new 0 0 58 58;" xml:space="preserve">
<g>
	<path d="M50.949,12.187l-1.361-1.361l-9.504-9.505c-0.001-0.001-0.001-0.001-0.002-0.001l-0.77-0.771
		C38.957,0.195,38.486,0,37.985,0H8.963C7.604,0,6.5,1.105,6.5,2.463V39v16.537C6.5,56.895,7.604,58,8.963,58h40.074
		c1.358,0,2.463-1.105,2.463-2.463V39V13.515C51.5,13.02,51.299,12.535,50.949,12.187z M47.935,12H39.5V3.565L47.935,12z
		 M49.5,55.537c0,0.255-0.208,0.463-0.463,0.463H8.963C8.708,56,8.5,55.792,8.5,55.537V41h41V55.537z M8.5,39V2.463
		C8.5,2.208,8.708,2,8.963,2h28.595C37.525,2.126,37.5,2.256,37.5,2.391V14h11.608c0.135,0,0.265-0.025,0.392-0.058V39H8.5z"/>
	<path d="M19.205,52.756c-0.183,0-0.378-0.019-0.588-0.055s-0.419-0.084-0.629-0.144s-0.412-0.123-0.608-0.191
		s-0.357-0.139-0.485-0.212l-0.287,1.176c0.155,0.137,0.34,0.253,0.554,0.349s0.439,0.171,0.677,0.226s0.472,0.094,0.704,0.116
		s0.458,0.034,0.677,0.034c0.511,0,0.966-0.077,1.367-0.232s0.738-0.362,1.012-0.622s0.485-0.561,0.636-0.902
		s0.226-0.695,0.226-1.06c0-0.538-0.104-0.978-0.314-1.319s-0.472-0.627-0.786-0.854s-0.654-0.422-1.019-0.581
		s-0.702-0.323-1.012-0.492s-0.569-0.364-0.779-0.588s-0.314-0.518-0.314-0.882c0-0.146,0.036-0.299,0.109-0.458
		s0.173-0.303,0.301-0.431s0.273-0.234,0.438-0.321s0.337-0.139,0.52-0.157c0.328-0.027,0.597-0.032,0.807-0.014
		s0.378,0.05,0.506,0.096s0.226,0.091,0.294,0.137s0.13,0.082,0.185,0.109c0.009-0.009,0.036-0.055,0.082-0.137
		s0.101-0.185,0.164-0.308s0.132-0.255,0.205-0.396s0.137-0.271,0.191-0.39c-0.265-0.173-0.61-0.299-1.039-0.376
		s-0.853-0.116-1.271-0.116c-0.41,0-0.8,0.063-1.169,0.191s-0.692,0.313-0.971,0.554s-0.499,0.535-0.663,0.882
		s-0.246,0.743-0.246,1.189c0,0.492,0.104,0.902,0.314,1.23s0.474,0.613,0.793,0.854s0.661,0.451,1.025,0.629
		s0.704,0.355,1.019,0.533s0.576,0.376,0.786,0.595s0.314,0.483,0.314,0.793c0,0.511-0.148,0.896-0.444,1.155
		C20.187,52.626,19.761,52.756,19.205,52.756z"/>
	<polygon points="28.994,54.055 32.275,43.924 30.416,43.924 27.941,52.619 25.604,43.924 23.73,43.924 26.861,54.055 	"/>
	<path d="M35.358,52.77c0.378,0.429,0.82,0.752,1.326,0.971s1.06,0.328,1.661,0.328c0.301,0,0.604-0.022,0.909-0.068
		s0.602-0.123,0.889-0.232s0.561-0.248,0.82-0.417s0.494-0.385,0.704-0.649v-3.896h-3.336v1.121h1.709v2.488
		c-0.073,0.101-0.187,0.178-0.342,0.232s-0.316,0.098-0.485,0.13s-0.337,0.055-0.506,0.068s-0.303,0.021-0.403,0.021
		c-0.328,0-0.641-0.077-0.937-0.232s-0.561-0.392-0.793-0.711s-0.415-0.729-0.547-1.23s-0.203-1.094-0.212-1.777
		c0.009-0.702,0.082-1.294,0.219-1.777s0.326-0.877,0.567-1.183s0.515-0.521,0.82-0.649s0.627-0.191,0.964-0.191
		c0.301,0,0.593,0.06,0.875,0.178s0.533,0.31,0.752,0.574l1.135-1.012c-0.374-0.364-0.798-0.638-1.271-0.82
		s-0.984-0.273-1.531-0.273c-0.593,0-1.144,0.111-1.654,0.335s-0.955,0.549-1.333,0.978s-0.675,0.964-0.889,1.606
		s-0.321,1.388-0.321,2.235s0.107,1.595,0.321,2.242S34.98,52.341,35.358,52.77z"/>
	<path d="M40.5,19h-6v-4h-10v4h-6v-2h-6v6h6v-2h3.548c-4.566,2.636-7.548,7.588-7.548,13c0,0.552,0.447,1,1,1s1-0.448,1-1
		c0-5.246,3.229-9.999,8-11.995V25h10v-2.995c4.771,1.997,8,6.75,8,11.995c0,0.552,0.447,1,1,1s1-0.448,1-1
		c0-5.412-2.982-10.364-7.548-13H40.5v2h6v-6h-6V19z M16.5,21h-2v-2h2V21z M32.5,23h-6v-3.754V17h6v2.246V23z M42.5,19h2v2h-2V19z"
		/>
</g>
<g>
</g>
<g>
</g>
<g>
</g>
<g>
</g>
<g>
</g>
<g>
</g>
<g>
</g>
<g>
</g>
<g>
</g>
<g>
</g>
<g>
</g>
<g>
</g>
<g>
</g>
<g>
</g>
<g>
</g>
</svg>
