<svg xmlns="http://www.w3.org/2000/svg" width="36" height="10" viewBox="0 0 36 10">
  <defs>
    <style>
      .cls-1 {
        fill: #3c3d48;
        fill-rule: evenodd;
        opacity: 0.5;
      }
    </style>
  </defs>
  <path id="PayPal" class="cls-1" d="M296.953,3084.02a4.124,4.124,0,0,0-1.933-.34,8.289,8.289,0,0,0-1.309.1c-0.322.05-.354,0.06-0.554,0.1a0.633,0.633,0,0,0-.475.5l-0.132.54c-0.075.34,0.123,0.33,0.211,0.3a5.847,5.847,0,0,1,.643-0.19,4.881,4.881,0,0,1,1.015-.14,2.7,2.7,0,0,1,.981.14,0.5,0.5,0,0,1,.327.49,0.349,0.349,0,0,1-.018.15,0.183,0.183,0,0,1-.157.1,14.629,14.629,0,0,0-1.594.17,5.077,5.077,0,0,0-1.373.37,2.119,2.119,0,0,0-.93.73,1.986,1.986,0,0,0-.31,1.12,1.307,1.307,0,0,0,.441,1.02,1.667,1.667,0,0,0,1.141.39,2.888,2.888,0,0,0,.678-0.07,3.3,3.3,0,0,0,.521-0.17,2.53,2.53,0,0,0,.445-0.25c0.159-.1.268-0.18,0.408-0.27l0,0.01-0.039.17c0,0.01,0,.01,0,0.01h0a0.316,0.316,0,0,0,.289.4l0,0.01h1a0.032,0.032,0,0,0,.015-0.01,0.558,0.558,0,0,0,.463-0.4l0.79-3.38a2.093,2.093,0,0,0,.04-0.28,2.38,2.38,0,0,0,.019-0.26A1.132,1.132,0,0,0,296.953,3084.02Zm-1.914,4.03a3.147,3.147,0,0,1-.424.22,1.527,1.527,0,0,1-.564.12,1.26,1.26,0,0,1-.615-0.12,0.416,0.416,0,0,1-.211-0.4,0.8,0.8,0,0,1,.156-0.52,1.048,1.048,0,0,1,.462-0.31,3.763,3.763,0,0,1,.712-0.16c0.247-.03.735-0.09,0.8-0.09s0.1-.03.076,0.13c-0.012.07-.153,0.65-0.218,0.91A0.491,0.491,0,0,1,295.039,3088.05Zm-11.672-4.3a0.94,0.94,0,0,0-.678.41s-1.55,2.64-1.7,2.9c-0.083.14-.167,0.06-0.181,0s-0.479-2.88-.479-2.88a0.591,0.591,0,0,0-.591-0.42h-0.965a0.321,0.321,0,0,0-.327.41s0.738,4.16.882,5.13a1.087,1.087,0,0,1-.007.64l-0.958,1.66c-0.14.22-.063,0.41,0.169,0.41l1.119-.01a0.916,0.916,0,0,0,.678-0.4l4.306-7.24s0.412-.61.032-0.61c-0.258.01-1.3,0-1.3,0m-13.6,1.47a2.261,2.261,0,0,1-1.365.36h-0.265a0.323,0.323,0,0,1-.329-0.41l0.325-1.4a0.538,0.538,0,0,1,.516-0.4l0.354-.01a1.72,1.72,0,0,1,.94.21,0.7,0.7,0,0,1,.311.64,1.155,1.155,0,0,1-.487,1.01m2.335-2.15a1.61,1.61,0,0,0-.594-0.63,2.853,2.853,0,0,0-.938-0.34,7.844,7.844,0,0,0-1.277-.1h-2.256a0.566,0.566,0,0,0-.519.41L265,3088.98a0.322,0.322,0,0,0,.328.41h1.082a0.551,0.551,0,0,0,.517-0.41l0.372-1.6a0.549,0.549,0,0,1,.516-0.4h0.309a5.13,5.13,0,0,0,3.085-.81,2.517,2.517,0,0,0,1.1-2.13,2.035,2.035,0,0,0-.206-0.97m17.3,2.18a2.326,2.326,0,0,1-1.364.35H287.77a0.319,0.319,0,0,1-.329-0.41l0.325-1.39a0.559,0.559,0,0,1,.514-0.41h0.355a1.718,1.718,0,0,1,.94.21,0.7,0.7,0,0,1,.314.64,1.184,1.184,0,0,1-.487,1.01m2.334-2.15a1.62,1.62,0,0,0-.595-0.63,2.641,2.641,0,0,0-.94-0.35,9.051,9.051,0,0,0-1.272-.1l-2.263.01a0.553,0.553,0,0,0-.515.4l-1.52,6.57a0.317,0.317,0,0,0,.324.41h1.085a0.56,0.56,0,0,0,.52-0.41l0.366-1.59a0.564,0.564,0,0,1,.519-0.41h0.309a5.2,5.2,0,0,0,3.086-.8,2.536,2.536,0,0,0,1.1-2.13,2.067,2.067,0,0,0-.206-0.97m-14.419.91a4.252,4.252,0,0,0-1.931-.34,9.677,9.677,0,0,0-1.31.1c-0.322.05-.354,0.06-0.555,0.1a0.631,0.631,0,0,0-.474.5l-0.132.54c-0.075.35,0.124,0.33,0.212,0.3,0.178-.05.276-0.1,0.642-0.19a5.567,5.567,0,0,1,1.015-.13,2.7,2.7,0,0,1,.98.14,0.481,0.481,0,0,1,.327.48,0.317,0.317,0,0,1-.017.15,0.154,0.154,0,0,1-.156.1c-0.618.04-1.06,0.1-1.6,0.17a5.047,5.047,0,0,0-1.373.38,2.1,2.1,0,0,0-.929.73,1.941,1.941,0,0,0-.311,1.12,1.3,1.3,0,0,0,.441,1.01,1.667,1.667,0,0,0,1.141.39,3,3,0,0,0,.679-0.06,3.4,3.4,0,0,0,.52-0.18,3.257,3.257,0,0,0,.446-0.24c0.157-.11.267-0.18,0.407-0.27l0,0.01-0.04.17h0l0,0.01a0.319,0.319,0,0,0,.288.4h1.023a0.569,0.569,0,0,0,.463-0.41l0.79-3.38a1.755,1.755,0,0,0,.04-0.28,1.911,1.911,0,0,0,.019-0.26A1.141,1.141,0,0,0,277.317,3084.01Zm-1.913,4.04a3.053,3.053,0,0,1-.425.21,1.523,1.523,0,0,1-.564.12,1.281,1.281,0,0,1-.615-0.11,0.419,0.419,0,0,1-.211-0.4,0.84,0.84,0,0,1,.158-0.53,1.131,1.131,0,0,1,.46-0.31,4.773,4.773,0,0,1,.714-0.16c0.246-.03.734-0.08,0.8-0.08s0.1-.04.076,0.13c-0.012.07-.153,0.64-0.218,0.9A0.589,0.589,0,0,1,275.4,3088.05Zm22.339,0.95c0.062-.23,1.449-6.51,1.449-6.51a0.559,0.559,0,0,1,.521-0.41h0.967a0.321,0.321,0,0,1,.327.41l-1.448,6.51a0.564,0.564,0,0,1-.518.41h-1" transform="translate(-265 -3082)"/>
</svg>
