<svg xmlns="http://www.w3.org/2000/svg" width="16" height="17" viewBox="0 0 16 17">
  <defs>
    <style>
      .cls-1 {
        fill: #3c3d48;
        fill-rule: evenodd;
      }
    </style>
  </defs>
  <path id="Icon-headset" class="cls-1" d="M143.462,46.994h-0.451V45.786a5.017,5.017,0,0,0-10.023,0V47.01h-0.451c-1.4,0-2.539,1.552-2.539,2.96s1.139,3.022,2.539,3.022H135V45.973a3,3,0,0,1,6,0v8.252a1.248,1.248,0,0,1-1.243,1.25h-0.128a1.8,1.8,0,1,0,0,1.457h0.128c1.484,0,3.255-1.214,3.255-2.707v-1.25h0.451c1.4,0,2.539-1.552,2.539-2.96S144.862,46.994,143.462,46.994ZM132.988,51h-0.451c-0.6,0-.559-0.43-0.559-1.034s-0.042-1,.559-1h0.451V51Zm10.474-.016h-0.451v-2h0.451c0.6,0,.559.429,0.559,1.034S144.063,50.987,143.462,50.987Z" transform="translate(-130 -41)"/>
</svg>
