<svg id="Instagram" xmlns="http://www.w3.org/2000/svg" width="26" height="26" viewBox="0 0 26 26">
  <defs>
    <style>
      .cls-1 {
        fill: #3f729b;
      }

      .cls-2 {
        fill: #fff;
        fill-rule: evenodd;
      }
    </style>
  </defs>
  <circle id="Base" class="cls-1" cx="13" cy="13" r="13"/>
  <path id="Icon" class="cls-2" d="M783.5,2848.99h-9a1.5,1.5,0,0,0-1.5,1.5v9.01a1.5,1.5,0,0,0,1.5,1.5h9a1.5,1.5,0,0,0,1.5-1.5v-9.01A1.5,1.5,0,0,0,783.5,2848.99Zm-4.5,4.5a1.578,1.578,0,0,1,1.5,1.5,1.5,1.5,0,1,1-3,0A1.578,1.578,0,0,1,779,2853.49Zm4.5,5.26a0.752,0.752,0,0,1-.75.75h-7.5a0.752,0.752,0,0,1-.75-0.75v-3.76a0.752,0.752,0,0,1,.75-0.75h0.857a3,3,0,1,0,5.786,0h0.857a0.752,0.752,0,0,1,.75.75v3.76Zm0-6.76a0.752,0.752,0,0,1-.75.75H782a0.753,0.753,0,0,1-.75-0.75v-0.75a0.753,0.753,0,0,1,.75-0.75h0.75a0.752,0.752,0,0,1,.75.75v0.75Z" transform="translate(-766 -2842)"/>
</svg>
