<svg id="Twitter" xmlns="http://www.w3.org/2000/svg" width="26" height="26" viewBox="0 0 26 26">
  <defs>
    <style>
      .cls-1 {
        fill: #55acee;
      }

      .cls-2 {
        fill: #fff;
        fill-rule: evenodd;
      }
    </style>
  </defs>
  <circle id="Base" class="cls-1" cx="13" cy="13" r="13"/>
  <path id="Icon" class="cls-2" d="M749,2851.18a4.819,4.819,0,0,1-1.414.4,2.522,2.522,0,0,0,1.083-1.4,5.018,5.018,0,0,1-1.564.62,2.436,2.436,0,0,0-1.8-.8,2.493,2.493,0,0,0-2.462,2.52,2.59,2.59,0,0,0,.064.58,6.942,6.942,0,0,1-5.074-2.64,2.564,2.564,0,0,0-.334,1.27,2.53,2.53,0,0,0,1.1,2.1,2.356,2.356,0,0,1-1.115-.31v0.03a2.506,2.506,0,0,0,1.975,2.47,2.323,2.323,0,0,1-.649.09,2.36,2.36,0,0,1-.463-0.04,2.474,2.474,0,0,0,2.3,1.75,4.846,4.846,0,0,1-3.058,1.08,5.7,5.7,0,0,1-.587-0.03,6.894,6.894,0,0,0,3.774,1.13,7.055,7.055,0,0,0,7-7.18c0-.11,0-0.22-0.007-0.33A5.091,5.091,0,0,0,749,2851.18Z" transform="translate(-730 -2842)"/>
</svg>
