<svg xmlns="http://www.w3.org/2000/svg" width="36" height="10" viewBox="0 0 36 10"><defs><style>.cls-1{fill:#3c3d48;fill-rule:evenodd;opacity:.5}</style></defs><path id="PayPal" class="cls-1" d="M296.953 3084.02a4.124 4.124 0 0 0-1.933-.34 8.289 8.289 0 0 0-1.309.1c-.322.05-.354.06-.554.1a.633.633 0 0 0-.475.5l-.132.54c-.075.34.123.33.211.3a5.847 5.847 0 0 1 .643-.19 4.881 4.881 0 0 1 1.015-.14 2.7 2.7 0 0 1 .981.14.5.5 0 0 1 .327.49.349.349 0 0 1-.018.15.183.183 0 0 1-.157.1 14.629 14.629 0 0 0-1.594.17 5.077 5.077 0 0 0-1.373.37 2.119 2.119 0 0 0-.93.73 1.986 1.986 0 0 0-.31 1.12 1.307 1.307 0 0 0 .441 1.02 1.667 1.667 0 0 0 1.141.39 2.888 2.888 0 0 0 .678-.07 3.3 3.3 0 0 0 .521-.17 2.53 2.53 0 0 0 .445-.25c.159-.1.268-.18.408-.27v.01l-.039.17v.01a.316.316 0 0 0 .289.4v.01h1a.032.032 0 0 0 .015-.01.558.558 0 0 0 .463-.4l.79-3.38a2.093 2.093 0 0 0 .04-.28 2.38 2.38 0 0 0 .019-.26 1.132 1.132 0 0 0-.603-1.06zm-1.914 4.03a3.147 3.147 0 0 1-.424.22 1.527 1.527 0 0 1-.564.12 1.26 1.26 0 0 1-.615-.12.416.416 0 0 1-.211-.4.8.8 0 0 1 .156-.52 1.048 1.048 0 0 1 .462-.31 3.763 3.763 0 0 1 .712-.16c.247-.03.735-.09.8-.09s.1-.03.076.13c-.012.07-.153.65-.218.91a.491.491 0 0 1-.174.22zm-11.672-4.3a.94.94 0 0 0-.678.41s-1.55 2.64-1.7 2.9c-.083.14-.167.06-.181 0s-.479-2.88-.479-2.88a.591.591 0 0 0-.591-.42h-.965a.321.321 0 0 0-.327.41s.738 4.16.882 5.13a1.087 1.087 0 0 1-.007.64l-.958 1.66c-.14.22-.063.41.169.41l1.119-.01a.916.916 0 0 0 .678-.4l4.306-7.24s.412-.61.032-.61c-.258.01-1.3 0-1.3 0m-13.6 1.47a2.261 2.261 0 0 1-1.365.36h-.265a.323.323 0 0 1-.329-.41l.325-1.4a.538.538 0 0 1 .516-.4l.354-.01a1.72 1.72 0 0 1 .94.21.7.7 0 0 1 .311.64 1.155 1.155 0 0 1-.487 1.01m2.335-2.15a1.61 1.61 0 0 0-.594-.63 2.853 2.853 0 0 0-.938-.34 7.844 7.844 0 0 0-1.277-.1h-2.256a.566.566 0 0 0-.519.41l-1.518 6.57a.322.322 0 0 0 .328.41h1.082a.551.551 0 0 0 .517-.41l.372-1.6a.549.549 0 0 1 .516-.4h.309a5.13 5.13 0 0 0 3.085-.81 2.517 2.517 0 0 0 1.1-2.13 2.035 2.035 0 0 0-.206-.97m17.3 2.18a2.326 2.326 0 0 1-1.364.35h-.269a.319.319 0 0 1-.329-.41l.325-1.39a.559.559 0 0 1 .514-.41h.355a1.718 1.718 0 0 1 .94.21.7.7 0 0 1 .314.64 1.184 1.184 0 0 1-.487 1.01m2.334-2.15a1.62 1.62 0 0 0-.595-.63 2.641 2.641 0 0 0-.94-.35 9.051 9.051 0 0 0-1.272-.1l-2.263.01a.553.553 0 0 0-.515.4l-1.52 6.57a.317.317 0 0 0 .324.41h1.085a.56.56 0 0 0 .52-.41l.366-1.59a.564.564 0 0 1 .519-.41h.309a5.2 5.2 0 0 0 3.086-.8 2.536 2.536 0 0 0 1.1-2.13 2.067 2.067 0 0 0-.206-.97m-14.419.91a4.252 4.252 0 0 0-1.931-.34 9.677 9.677 0 0 0-1.31.1c-.322.05-.354.06-.555.1a.631.631 0 0 0-.474.5l-.132.54c-.075.35.124.33.212.3.178-.05.276-.1.642-.19a5.567 5.567 0 0 1 1.015-.13 2.7 2.7 0 0 1 .98.14.481.481 0 0 1 .327.48.317.317 0 0 1-.017.15.154.154 0 0 1-.156.1c-.618.04-1.06.1-1.6.17a5.047 5.047 0 0 0-1.373.38 2.1 2.1 0 0 0-.929.73 1.941 1.941 0 0 0-.311 1.12 1.3 1.3 0 0 0 .441 1.01 1.667 1.667 0 0 0 1.141.39 3 3 0 0 0 .679-.06 3.4 3.4 0 0 0 .52-.18 3.257 3.257 0 0 0 .446-.24c.157-.11.267-.18.407-.27v.01l-.04.17v.01a.319.319 0 0 0 .288.4h1.023a.569.569 0 0 0 .463-.41l.79-3.38a1.755 1.755 0 0 0 .04-.28 1.911 1.911 0 0 0 .019-.26 1.141 1.141 0 0 0-.603-1.06zm-1.913 4.04a3.053 3.053 0 0 1-.425.21 1.523 1.523 0 0 1-.564.12 1.281 1.281 0 0 1-.615-.11.419.419 0 0 1-.211-.4.84.84 0 0 1 .158-.53 1.131 1.131 0 0 1 .46-.31 4.773 4.773 0 0 1 .714-.16c.246-.03.734-.08.8-.08s.1-.04.076.13c-.012.07-.153.64-.218.9a.589.589 0 0 1-.177.23zm22.339.95c.062-.23 1.449-6.51 1.449-6.51a.559.559 0 0 1 .521-.41h.967a.321.321 0 0 1 .327.41l-1.448 6.51a.564.564 0 0 1-.518.41h-1" transform="translate(-265 -3082)"/></svg>