<svg xmlns="http://www.w3.org/2000/svg" width="52" height="16" viewBox="0 0 52 16"><defs><style>.cls-1{fill:#3c3d48;fill-rule:evenodd;opacity:.5}</style></defs><path id="AmericanExpress" class="cls-1" d="M362.4 3089.11h4.972v1.27h-3.45v1.09h3.354v1.12h-3.354v1.15h3.45v1.23H362.4v-5.86zm14.58 2.29c1.869.09 2.025.97 2.025 1.91a1.775 1.775 0 0 1-1.95 1.69h-3.195v-1.26h2.49c.422 0 1.05 0 1.05-.56 0-.27-.11-.44-.56-.48-.2-.03-.939-.07-1.05-.07-1.689-.04-2.082-.84-2.082-1.8a1.665 1.665 0 0 1 1.812-1.7h3.2v1.25h-2.339c-.531.01-1.105-.06-1.105.51 0 .36.282.43.642.47.123 0 .952.04 1.064.04zm-5.727 0c1.869.09 2.026.97 2.026 1.91a1.774 1.774 0 0 1-1.951 1.69h-3.194v-1.26h2.489c.422 0 1.052 0 1.052-.56 0-.27-.111-.44-.561-.48-.2-.03-.94-.07-1.051-.07-1.689-.04-2.081-.84-2.081-1.8a1.665 1.665 0 0 1 1.812-1.7h3.195v1.25h-2.338c-.532.01-1.106-.06-1.106.51 0 .36.283.43.643.47.126 0 .957.04 1.067.04zm-18.036-2.27h-5.337l-1.742 1.81-1.687-1.83h-6v5.86h5.8l1.825-1.93 1.784 1.95h2.918V3093h2.047c.788 0 2.226-.03 2.226-2.08a1.671 1.671 0 0 0-1.832-1.79zm-9.757 4.61h-3.506v-1.15h3.354v-1.12h-3.354v-1.09h3.7l1.481 1.6zm5.815.68l-2.185-2.44 2.185-2.29v4.73zm3.43-2.63h-1.895v-1.41h1.9a.716.716 0 1 1-.003 1.41zm7.859.53a1.656 1.656 0 0 0-.774-3.19h-3.954v5.86h1.521v-2.07h1.991a.858.858 0 0 1 .746.99l.042 1.08h1.48l-.055-1.21c.002-.94-.274-1.38-.995-1.46zm-1.313-.61h-1.894v-1.33h1.9a.716.716 0 0 1 .836.68c.007.39-.217.65-.84.65zm-1.285-6.84V3079h-1.521v5.87h1.521zm-13.974-5.86h4.972v1.26h-3.449v1.1h3.352v1.11h-3.352v1.15h3.449v1.24h-4.972v-5.86zm10.6 3.19a1.656 1.656 0 0 0-.775-3.19h-3.955v5.86h1.522v-2.07h1.99a.853.853 0 0 1 .747.99l.043 1.08h1.479l-.055-1.21c.012-.94-.27-1.39-.988-1.46zm-1.314-.61h-1.894v-1.33h1.9a.716.716 0 0 1 .836.68c.008.39-.212.65-.835.65zm-12.8-2.58l-1.866 3.93-1.861-3.93h-2.385v5.64l-2.656-5.64h-2.012l-2.698 5.86h1.6l.593-1.31h3.037l.6 1.31h3.07v-4.36l2.032 4.36h1.384l2.081-4.28v4.28h1.522v-5.86h-2.428zm-10.718 3.28l.908-2.05.945 2.05h-1.853zm43.9-3.29v4.06l-2.56-4.06h-2.248v5.51l-2.593-5.5h-2.013l-2.1 4.53s-.885 0-.974-.02a1.169 1.169 0 0 1-.948-1.35v-.42c0-1.37.789-1.47 1.8-1.47h.939V3079h-1.986c-.692 0-2.2.5-2.246 2.91-.035 1.62.712 2.96 2.4 2.96h2.006l.594-1.31h3.036l.6 1.31h3v-4.29l2.738 4.29h2.075V3079h-1.521zm-9.343 3.3l.906-2.05.954 2.05h-1.86z" transform="translate(-327 -3079)"/></svg>