<svg xmlns="http://www.w3.org/2000/svg" width="39" height="23" viewBox="0 0 39 23"><defs><style>.cls-1{fill:#3c3d48;fill-rule:evenodd;opacity:.5}</style></defs><path id="MasterCard" class="cls-1" d="M137.932 3088.12a.417.417 0 0 0 .471.47 1.071 1.071 0 0 0 .942-1.16h-.314c-.706 0-1.099.23-1.099.69zm20.084 0a.417.417 0 0 0 .471.47 1.071 1.071 0 0 0 .942-1.16h-.314c-.785 0-1.099.23-1.099.69zm-9.571-2.31a.851.851 0 0 0-.784.85h1.412a.632.632 0 0 0-.628-.85zm17.024.15a1.424 1.424 0 0 0-1.02 1.62c0 .62.236.93.628.93.628 0 1.02-.7 1.02-1.62.078-.62-.157-.93-.628-.93zm-8.159-10.95a11.866 11.866 0 0 0-7.845 2.93 11.5 11.5 0 1 0 0 17.13 11.6 11.6 0 1 0 7.845-20.06zm-22.359 14.58l.706-4.48-1.647 4.48h-.863l-.078-4.48-.785 4.48h-1.177l1.02-5.86h1.8l.079 3.62 1.255-3.62h1.961l-1.019 5.86h-1.256zm4.237 0v-.46a1.648 1.648 0 0 1-1.334.54 1.191 1.191 0 0 1-1.177-1.32c0-1.15.785-1.85 2.2-1.85h.549a.564.564 0 0 0 .079-.31c0-.3-.236-.46-.785-.46a4.339 4.339 0 0 0-1.334.23c0-.07.157-1.08.157-1.08a6.079 6.079 0 0 1 1.491-.23c1.1 0 1.647.46 1.647 1.39a4.444 4.444 0 0 1-.078.93c-.079.69-.314 2.16-.392 2.54a5.11 5.11 0 0 1-1.023.08zm3.765-2.86a1.321 1.321 0 0 1 .863 1.32c0 1.08-.627 1.62-1.961 1.62a4.183 4.183 0 0 1-1.334-.16c0-.08.157-1.08.157-1.08a3 3 0 0 0 1.177.16c.471 0 .706-.16.706-.47 0-.23-.078-.31-.627-.54a1.287 1.287 0 0 1-.942-1.31c0-.85.471-1.62 1.883-1.62.314 0 .785.08 1.1.08l-.157 1.08a3.741 3.741 0 0 0-.941-.08c-.392 0-.628.16-.628.39a.819.819 0 0 0 .704.61zm2.746 1.78a.373.373 0 0 0 .314-.08l-.157 1.08a3.865 3.865 0 0 1-.941.16.964.964 0 0 1-1.02-1.08 10.081 10.081 0 0 1 .157-1.24l.549-3.24h1.255l-.157.7h.628l-.157 1.15h-.628c-.156.93-.392 2.01-.392 2.16a.69.69 0 0 0 .55.39zm2.981.08a2.828 2.828 0 0 0 1.334-.31l-.235 1.15a3.817 3.817 0 0 1-1.334.16 1.858 1.858 0 0 1-2.118-2.08c0-1.62.941-2.86 2.2-2.86a1.638 1.638 0 0 1 1.726 1.7 6.987 6.987 0 0 1-.157 1.16h-2.511a.926.926 0 0 0 1.095 1.08zm2.825 1h-1.255l.078-.31c.235-1.47.471-2.93.628-4.4h1.176c0 .23-.078.47-.078.7a1.289 1.289 0 0 1 1.255-.77 3.538 3.538 0 0 0-.471 1.38c-.784-.07-.862.47-1.333 3.4zm4.864-.08a3.009 3.009 0 0 1-1.1.16c-1.334 0-2.2-1.01-2.2-2.55 0-2.08 1.177-3.55 2.9-3.55a4.717 4.717 0 0 1 1.412.31l-.236 1.23a2.378 2.378 0 0 0-1.1-.3 1.906 1.906 0 0 0-1.647 2.16 1.212 1.212 0 0 0 1.176 1.38 2.385 2.385 0 0 0 1.1-.3zm3.922.08h-1.019v-.46a1.648 1.648 0 0 1-1.334.54 1.191 1.191 0 0 1-1.177-1.32c0-1.15.785-1.85 2.2-1.85h.549a.569.569 0 0 0 .078-.31c0-.3-.235-.46-.784-.46a4.333 4.333 0 0 0-1.334.23c0-.07.157-1.08.157-1.08a6.079 6.079 0 0 1 1.491-.23c1.1 0 1.647.46 1.647 1.39a4.444 4.444 0 0 1-.078.93 23.375 23.375 0 0 0-.396 2.62zm1.726 0h-1.255l.079-.31c.235-1.47.47-2.93.627-4.4h1.177c0 .23-.078.47-.078.7a1.289 1.289 0 0 1 1.255-.77 3.538 3.538 0 0 0-.471 1.38c-.784-.07-.941.47-1.334 3.4zm3.766 0l.079-.46a1.439 1.439 0 0 1-1.177.54c-.942 0-1.569-.78-1.569-2.01 0-1.54.941-2.93 2.039-2.93a1.488 1.488 0 0 1 1.177.62l.314-1.7h1.254l-.941 5.86h-1.177v.08z" transform="translate(-130 -3075)"/></svg>