<svg xmlns="http://www.w3.org/2000/svg" width="39" height="13" viewBox="0 0 39 13"><defs><style>.cls-1{fill:#3c3d48;fill-rule:evenodd;opacity:.5}</style></defs><path id="Visa" class="cls-1" d="M213.906 3092.78h-3.182l1.989-12.56h3.187zm-5.86-12.56l-3.033 8.64-.36-1.86-1.071-5.64a1.378 1.378 0 0 0-1.509-1.14h-5.016l-.058.22a11.512 11.512 0 0 1 3.329 1.43l2.765 10.91h3.315l5.064-12.56h-3.426zm25.032 12.56H236l-2.548-12.56h-2.558a1.469 1.469 0 0 0-1.469.94l-4.746 11.62H228l.663-1.86h4.046zm-3.5-4.44l1.672-4.7.941 4.7h-2.613zm-4.648-5.1l.454-2.69a8.944 8.944 0 0 0-2.862-.55c-1.58 0-5.33.71-5.33 4.16 0 3.24 4.4 3.28 4.4 4.99s-3.948 1.39-5.252.32l-.473 2.82a8.713 8.713 0 0 0 3.593.71c2.171 0 5.448-1.16 5.448-4.3 0-3.27-4.442-3.57-4.442-4.99s3.1-1.24 4.462-.47zm-20.277 3.76l-1.071-5.64a1.378 1.378 0 0 0-1.509-1.14h-5.016l-.058.22a12.164 12.164 0 0 1 4.723 2.43 9.812 9.812 0 0 1 2.931 4.13z" transform="translate(-197 -3080)"/></svg>