<svg id="Behance" xmlns="http://www.w3.org/2000/svg" width="26" height="26" viewBox="0 0 26 26"><defs><style>.cls-1{fill:#1769ff}.cls-2{fill:#fff;fill-rule:evenodd}</style></defs><circle id="Base" class="cls-1" cx="13" cy="13" r="13"/><path id="Icon" class="cls-2" d="M886.05 2854.47a1.66 1.66 0 0 0 1.42-1.86 2.431 2.431 0 0 0-2.633-2.61H880v9.8h4.84a2.793 2.793 0 0 0 2.954-2.89s.126-2.44-1.744-2.44zm-3.92-2.73h2.707s.658 0 .658 1.02-.387 1.17-.827 1.17h-2.538v-2.19zm2.57 6.32h-2.57v-2.62h2.707a1.094 1.094 0 0 1 .981 1.34 1.079 1.079 0 0 1-1.118 1.28zm7.033-5.57c-3.578 0-3.575 3.77-3.575 3.77a3.422 3.422 0 0 0 3.575 3.74s3.182.2 3.182-2.6h-1.636s.054 1.05-1.492 1.05a1.533 1.533 0 0 1-1.637-1.7h4.82s.53-4.26-3.237-4.26zm1.455 2.95h-3.055a1.711 1.711 0 0 1 1.637-1.51 1.438 1.438 0 0 1 1.418 1.51zm.382-4.87h-3.838v1.21h3.837v-1.21z" transform="translate(-874 -2842)"/></svg>