<svg xmlns="http://www.w3.org/2000/svg" width="15" height="20" viewBox="0 0 15 20"><defs><style>.cls-1{fill:#fff;fill-rule:evenodd}</style></defs><path id="Icon" class="cls-1" d="M223.008 1750v-2.51c0-2.15-2.278-3.49-4.509-3.49s-4.509 1.34-4.509 3.49v2.51l-2.99-.02v11.26a2.822 2.822 0 0 0 2.872 2.76h9.248a2.822 2.822 0 0 0 2.872-2.76s-.021-11.26 0-11.26c-.009-.01-2.984.02-2.984.02zm-7.019-2.52c0-1.02 1.477-1.75 2.51-1.75s2.48.62 2.48 1.75v2.52h-4.99v-2.52zm8.011 13.44a1.072 1.072 0 0 1-1.091 1.05h-8.822a1.071 1.071 0 0 1-1.091-1.05v-8.94c0-.01 8.435 0 11.018.01-.014-.01-.014 8.93-.014 8.93zm-2.863-6.72a4.548 4.548 0 0 1-5.267 0 .912.912 0 0 0-1.255.1.838.838 0 0 0 .1 1.21 6.025 6.025 0 0 0 7.577 0 .838.838 0 0 0 .1-1.21.912.912 0 0 0-1.259-.1z" transform="translate(-211 -1744)"/></svg>