<svg xmlns="http://www.w3.org/2000/svg" width="12" height="16" viewBox="0 0 12 16"><defs><style>.cls-1{fill:#3c3d48;fill-rule:evenodd}</style></defs><path id="Icon-face" class="cls-1" d="M1011 51.058a4.3 4.3 0 0 0 4-4.535 4.032 4.032 0 1 0-8 0 4.3 4.3 0 0 0 4 4.535zm0-7.058a2.587 2.587 0 1 1-2 2.52 2.31 2.31 0 0 1 2-2.52zm5.51 8.763l-.51-1.114a1 1 0 0 0-1.32-.5 1.006 1.006 0 0 0-.5 1.335l.5 1.118a3.358 3.358 0 0 1 .32 1.436.883.883 0 0 1-.82.96h-6.36a.881.881 0 0 1-.82-.957 3.5 3.5 0 0 1 .32-1.467l.5-1.1a1 1 0 1 0-1.82-.824l-.5 1.116a5.4 5.4 0 0 0-.5 2.277 2.882 2.882 0 0 0 2.82 2.973h6.36a2.89 2.89 0 0 0 2.82-2.976 5.5 5.5 0 0 0-.49-2.273z" transform="translate(-1005 -42)"/></svg>