<svg xmlns="http://www.w3.org/2000/svg" width="16" height="17" viewBox="0 0 16 17"><defs><style>.cls-1{fill:#3c3d48;fill-rule:evenodd}</style></defs><path id="Icon-headset" class="cls-1" d="M143.462 46.994h-.451v-1.208a5.017 5.017 0 0 0-10.023 0v1.224h-.451c-1.4 0-2.539 1.552-2.539 2.96s1.139 3.022 2.539 3.022H135v-7.019a3 3 0 0 1 6 0v8.252a1.248 1.248 0 0 1-1.243 1.25h-.128a1.8 1.8 0 1 0 0 1.457h.128c1.484 0 3.255-1.214 3.255-2.707v-1.25h.451c1.4 0 2.539-1.552 2.539-2.96s-1.14-3.021-2.54-3.021zM132.988 51h-.451c-.6 0-.559-.43-.559-1.034s-.042-1 .559-1h.451V51zm10.474-.016h-.451v-2h.451c.6 0 .559.429.559 1.034s.042.969-.559.969z" transform="translate(-130 -41)"/></svg>