<svg id="Dribbble" xmlns="http://www.w3.org/2000/svg" width="26" height="26" viewBox="0 0 26 26"><defs><style>.cls-1{fill:#9ba5a8}.cls-2{fill:#fff;fill-rule:evenodd}</style></defs><circle id="Base" class="cls-1" cx="13" cy="13" r="13"/><path id="Icon" class="cls-2" d="M851 2862a7 7 0 1 1 7-7 7.008 7.008 0 0 1-7 7zm5.9-6.04a8.643 8.643 0 0 0-3.724-.26 25.768 25.768 0 0 1 1.162 4.27 6.008 6.008 0 0 0 2.562-4.01zm-3.567 4.55a24.894 24.894 0 0 0-1.276-4.53c-.013 0-.026.01-.039.01a8.215 8.215 0 0 0-4.691 3.74 5.952 5.952 0 0 0 3.67 1.26 5.879 5.879 0 0 0 2.339-.48zm-6.778-1.5a9.507 9.507 0 0 1 4.86-3.95c.078-.02.157-.05.236-.07-.15-.34-.314-.68-.485-1.01a22.42 22.42 0 0 1-6.145.85v.18a5.971 5.971 0 0 0 1.537 4zm-1.411-5.23a21.887 21.887 0 0 0 5.528-.72 36.012 36.012 0 0 0-2.217-3.46 6 6 0 0 0-3.308 4.18zm4.452-4.58a31.853 31.853 0 0 1 2.231 3.5 6.807 6.807 0 0 0 3.134-2.16 5.934 5.934 0 0 0-5.361-1.34zm6.029 2.03a8.034 8.034 0 0 1-3.339 2.36c.14.28.273.57.4.86.044.1.087.21.129.31a14.078 14.078 0 0 1 4.163.19 5.944 5.944 0 0 0-1.35-3.72z" transform="translate(-838 -2842)"/></svg>