<svg xmlns="http://www.w3.org/2000/svg" viewBox="0 0 325 325"><title>sns-taobao</title><g id="Layer_2" data-name="Layer 2"><g id="레이어_1" data-name="레이어 1"><rect width="325" height="325" rx="40" ry="40" fill="#e8741f"/><ellipse cx="88.88" cy="97.15" rx="20.04" ry="17.99" fill="#fff"/><path d="M59.71,142.24,72,123.11s17.31,13.43,22.54,18,14.57,12.3,14.35,24.82-3.87,23.45-6.83,31S79.75,244,79.75,244l-29.6-18.45s28.47-26.33,39.39-42.35c3.42-5,7.51-18.22-4.1-25S59.71,142.24,59.71,142.24Z" fill="#fff"/><path d="M97.74,130.85s16.17-10.47,32.11-54.2c4.55,1.59,27.55,7.74,27.55,7.74l-7.51,13.89s34.38-10.47,64-10.47c0,0,16.17-.68,28.69,3.42s25.28,12.52,28.46,26.19,6.6,59.21.23,100.42c0,0-1.37,9.57-10.25,18s-19.58,12.52-38.48,12.52-28.92-3.64-28.92-3.64l3.87-15.94s11.61,4.33,20.72,4.33,16.85-3.87,20.95-8.65c0,0,3.64-5.47,3.87-10s.45-92-.46-95-2-14.12-16.17-16.85a76.64,76.64,0,0,0-28.69-.23c-3.42.68-24.82,5.92-35.52,10.25,4.1,1.37,12.07,3.42,12.07,3.42A70.77,70.77,0,0,1,164,130.85c9.11-.23,69.68,0,69.68,0v13.66H194.75v18.22h38.48v13.66H194.75v28.92s6.38,0,15.71-7.29c-.68-5-.46-5.69-2.73-13,5.92-1.37,17.76-5.46,17.76-5.46l14.8,36.66-22.09,8.65-4.1-14.8s-6.6,7.51-22.77,12.3c-22.51,6.66-36.89,6.38-40.76,6.15,0,0-10.93.45-17.53-2.51s-16.17-9.79-16.17-29.37a48.07,48.07,0,0,1,1.59-12.07l27.78.23s-1.37,9.79-1.37,12.3-2.05,13.21,18,13c0-14.35-.23-33.93-.23-33.93L123,175.94V162.27h39.39V145h-10s-10.93,10.25-17.08,16.4l-11.38-10A131.49,131.49,0,0,0,146,117.87c-5.24,2-14.35,6.15-14.35,6.15s-6.38,8.2-14.35,16.62C111.63,137.45,97.74,130.85,97.74,130.85Z" fill="#fff"/></g></g></svg>