<?xml version="1.0" encoding="utf-8"?>
<!-- Generator: Adobe Illustrator 21.1.0, SVG Export Plug-In . SVG Version: 6.00 Build 0)  -->
<svg version="1.1" id="레이어_1" xmlns="http://www.w3.org/2000/svg" xmlns:xlink="http://www.w3.org/1999/xlink" x="0px"
	 y="0px" viewBox="0 0 387 141.7" style="enable-background:new 0 0 387 141.7;" xml:space="preserve">
<style type="text/css">
	.st0{fill:#B02B3B;}
	.st1{fill:#555655;}
	.st2{fill:#787878;}
</style>
<g>
	<path class="st0" d="M323.9,45.7h-19v12.4h-7.1V34.6c-2,2.6-4.1,4.8-6.3,6.6l-4.2-5c5.5-5.3,9.8-11.4,12.7-18.1h-10.6v-6.6h13.3
		c0.6-1.9,1.2-4,1.8-6.5l7,1c-0.5,2.2-1,4-1.4,5.5h25v6.6h-27.5c-0.7,1.5-1.3,2.8-1.8,4h25.3v29.7c0,1.8-0.6,3.2-1.8,4.3
		c-1.2,1.1-2.6,1.6-4.4,1.6h-8.4l-0.8-7.2h7.1c0.9,0,1.3-0.5,1.3-1.4V45.7z M323.9,31.4v-3.6h-19v3.6H323.9z M304.9,40.4h19v-3.7
		h-19V40.4z"/>
	<path class="st0" d="M387,50.5l-1.1,6.6c-6.8,0.1-12.3,0.1-16.4,0.1c-7.3,0-12.5-0.4-15.7-1.3c-2.6-1-4.5-2.6-5.7-4.5
		c-2.6,2.9-5.2,5.1-7.9,6.7l-2.3-6.9c2.4-1.1,4.6-2.6,6.5-4.5V31.9h-5.3v-6.3h11.5v19.2c0,0.8,0.2,1.6,0.6,2.4
		c0.4,0.7,1.1,1.4,2.1,2c1,0.6,2,1,3,1.2c3.1,0.3,7.4,0.5,12.8,0.5C378.3,50.9,384.3,50.8,387,50.5z M351.7,17.7l-6.3,3.5
		c-0.4-1.1-1.4-3.1-2.8-5.9c-1.5-2.8-2.6-4.9-3.4-6.1l5.7-3.3C346.9,8.9,349.2,12.8,351.7,17.7z M374.2,40.7
		c-5.9,1.3-10.4,2-13.6,2.3l-0.9-5.5c0.8,0,2.5-0.2,5.3-0.5v-4.3H359v15.9h-5.9V28.3H365v-2.5h-10.7V6.5h28v19.3h-11.2v2.5h13.5
		v15.7c0,1.5-0.5,2.7-1.4,3.5c-0.9,0.8-2.1,1.2-3.5,1.2h-5.2l-0.9-5.8h3.9c0.9,0,1.3-0.5,1.3-1.5v-8.7h-8.1v4.4
		c0.7-0.1,1.6-0.2,2.5-0.4c-0.3-1.1-0.6-1.9-0.7-2.3l3.2-1c0.3,0.8,1.1,3.3,2.4,7.5l-3.5,1L374.2,40.7z M360,14.4h5v-3.2h-5V14.4z
		 M365,18h-5v3.3h5V18z M371.1,14.4h5.4v-3.2h-5.4V14.4z M376.5,18h-5.4v3.3h5.4V18z"/>
</g>
<polygon class="st1" points="182.1,72.3 181.5,72.3 181.3,72.8 165.8,100.2 149.7,72.8 149.4,72.3 148.8,72.3 145.2,72.3 
	143.5,72.3 144.4,73.8 163.1,105.5 163.1,127.8 163.1,128.8 164.1,128.8 167.4,128.8 168.4,128.8 168.4,127.8 168.4,105.5 
	186.6,73.8 187.5,72.3 185.8,72.3 "/>
<path class="st1" d="M224.6,72.3h-1v1v32.8c0,3.6-0.4,6.6-1.2,9c-0.8,2.3-1.8,4.2-3.1,5.6c-1.3,1.4-2.8,2.4-4.6,2.9
	c-1.8,0.6-3.7,0.9-5.7,0.9c-2,0-3.9-0.3-5.7-0.9c-1.7-0.6-3.3-1.6-4.6-2.9c-1.3-1.4-2.4-3.3-3.1-5.6c-0.8-2.4-1.2-5.4-1.2-9V73.3v-1
	h-1H190h-1v1v33.9c0,7.3,1.8,12.9,5.4,16.7c3.6,3.8,8.5,5.8,14.6,5.8c6.1,0,11-1.9,14.6-5.8c3.6-3.8,5.4-9.4,5.4-16.7V73.3v-1h-1
	H224.6z"/>
<polygon class="st1" points="234.7,121.7 233.7,121.7 233.7,122.7 233.7,129.2 233.7,130.2 234.7,130.2 240.8,130.2 241.8,130.2 
	241.8,129.2 241.8,122.7 241.8,121.7 240.8,121.7 "/>
<path class="st1" d="M283.4,119.3l-0.6-0.8l-0.8,0.7c-0.6,0.5-1.4,1.1-2.4,1.7c-0.9,0.6-2,1.2-3.2,1.7c-1.2,0.5-2.6,1-4.1,1.3
	c-1.5,0.3-3.1,0.5-4.8,0.5c-5.6,0-9.9-1.7-12.8-5.2c-2.9-3.5-4.4-8.8-4.4-15.7V96c0-3,0.4-5.7,1.1-8.1c0.7-2.4,1.8-4.4,3.1-6.1
	c1.3-1.6,3-2.9,5-3.8c2-0.9,4.3-1.3,6.9-1.3c3.1,0,5.8,0.4,7.9,1c2.2,0.7,4.3,1.8,6.5,3.2l0.8,0.6l0.6-0.8l1.8-2.6l0.6-0.8l-0.8-0.6
	c-2.1-1.5-4.6-2.8-7.5-3.8c-2.9-1-6.2-1.5-9.8-1.5c-3.5,0-6.6,0.6-9.3,1.8c-2.7,1.2-5,2.9-6.8,5.2c-1.8,2.2-3.2,4.9-4,8.1
	c-0.9,3.1-1.3,6.6-1.3,10.4v5.8c0,3.9,0.4,7.6,1.2,10.9c0.8,3.3,2.2,6.2,4,8.6c1.8,2.4,4.2,4.3,7,5.6c2.8,1.3,6.2,1.9,10.2,1.9
	c2.4,0,4.6-0.2,6.5-0.7c1.9-0.5,3.7-1,5.2-1.7c1.5-0.7,2.8-1.4,3.8-2.1c1-0.7,1.8-1.4,2.4-1.9l0.7-0.6l-0.6-0.7L283.4,119.3z"/>
<path class="st1" d="M325.7,78.8c-1.8-2.3-4.2-4.1-6.9-5.4c-2.7-1.3-6-1.9-9.6-1.9c-3.6,0-6.8,0.6-9.6,1.9c-2.8,1.3-5.1,3.1-6.9,5.4
	c-1.8,2.3-3.2,5-4.1,8.2c-0.9,3.1-1.4,6.5-1.4,10.2v6.9c0,3.7,0.5,7.1,1.4,10.2c0.9,3.1,2.3,5.9,4.1,8.2c1.8,2.3,4.2,4.1,6.9,5.4
	c2.7,1.3,6,1.9,9.6,1.9c3.6,0,6.8-0.6,9.6-1.9c2.8-1.3,5.1-3.1,6.9-5.4c1.8-2.3,3.2-5,4.1-8.2c0.9-3.1,1.4-6.5,1.4-10.2v-6.9
	c0-3.7-0.5-7.1-1.4-10.2C328.9,83.8,327.5,81,325.7,78.8z M325.8,103.9c0,6.8-1.5,12-4.4,15.5c-3,3.5-6.9,5.2-12.1,5.2
	c-5.2,0-9.1-1.7-12.1-5.2c-3-3.5-4.4-8.7-4.4-15.5v-6.7c0-6.8,1.5-12,4.4-15.5c3-3.5,6.9-5.2,12.1-5.2c5.2,0,9.1,1.7,12.1,5.2
	c3,3.5,4.4,8.7,4.4,15.5V103.9z"/>
<path class="st1" d="M386,72.3h-3.9h-0.6l-0.3,0.6l-19.2,39.8l-19.7-39.8l-0.3-0.6h-0.6h-3.8h-1v1v54.5v1h1h3.3h1v-1V83.2
	c0.7,1.5,1.5,3.1,2.3,4.7l15.3,31.2l0.3,0.6h0.6h2.9h0.6l0.3-0.6l15-30.2c0.8-1.6,1.6-3.1,2.3-4.6c0.1-0.1,0.1-0.3,0.2-0.5v43.9v1h1
	h3.3h1v-1V73.3v-1H386z"/>
<g>
	<path class="st2" d="M164.1,48.4c-0.1-0.3-0.2-0.6-0.3-0.9c-0.1-0.3-0.2-0.8-0.4-1.3v12.3h-2.2V43.9h3.3l3.2,9l3.1-9h3.3v14.5H172
		V46.2c-0.1,0.6-0.2,1.1-0.3,1.4c-0.1,0.3-0.2,0.6-0.3,0.8l-2.7,7.7h-1.9L164.1,48.4z"/>
	<path class="st2" d="M180.1,58.6c-1.1,0-1.9-0.3-2.5-0.8s-0.9-1.3-0.9-2.3v-0.6c0-0.5,0.1-0.9,0.2-1.3c0.1-0.4,0.3-0.7,0.6-1
		c0.3-0.3,0.7-0.5,1.2-0.7c0.5-0.2,1.1-0.2,1.8-0.2h2.3v-0.4c0-0.7-0.1-1.2-0.4-1.5c-0.3-0.3-0.7-0.5-1.4-0.5c-1,0-2,0.4-2.8,1.1
		l-1.1-1.9c0.5-0.4,1.1-0.7,1.7-1c0.6-0.3,1.4-0.5,2.2-0.5c0.6,0,1.1,0.1,1.6,0.2c0.5,0.2,0.9,0.4,1.3,0.7c0.4,0.3,0.6,0.7,0.8,1.1
		c0.2,0.4,0.3,0.9,0.3,1.5v7.8h-2l0-1.4c-0.1,0.2-0.3,0.5-0.5,0.7c-0.2,0.2-0.5,0.4-0.7,0.5c-0.3,0.1-0.5,0.2-0.8,0.3
		C180.6,58.6,180.3,58.6,180.1,58.6z M182.7,53.7h-2.2c-0.6,0-1,0.1-1.3,0.4c-0.2,0.3-0.4,0.6-0.4,1v0.2c0,0.4,0.1,0.6,0.3,0.8
		c0.2,0.2,0.6,0.3,1,0.3c0.9,0,1.6-0.2,2.1-0.7c0.2-0.2,0.3-0.5,0.4-0.7c0-0.3,0.1-0.6,0.1-1V53.7z"/>
	<path class="st2" d="M193.9,57.2L193.9,57.2c-0.3,0.5-0.7,0.9-1.2,1.1c-0.5,0.2-1.1,0.3-1.7,0.3c-1.3,0-2.2-0.4-2.9-1.2
		c-0.6-0.8-1-2-1-3.5v-2c0-0.8,0.1-1.4,0.3-2c0.2-0.6,0.5-1.1,0.8-1.5c0.4-0.4,0.8-0.7,1.3-0.9c0.5-0.2,1-0.3,1.6-0.3
		c0.4,0,0.7,0,1,0.1c0.3,0.1,0.6,0.2,0.8,0.3c0.2,0.1,0.4,0.2,0.5,0.4c0.1,0.1,0.2,0.3,0.3,0.4v-5.1h2.3v15.2h-2.2V57.2z
		 M189.4,53.5c0,0.9,0.2,1.7,0.5,2.2c0.3,0.5,0.8,0.8,1.5,0.8c0.4,0,0.7-0.1,1-0.2c0.3-0.1,0.5-0.3,0.7-0.6c0.2-0.2,0.4-0.5,0.5-0.9
		c0.1-0.3,0.2-0.7,0.2-1.1v-2.3c0-0.3,0-0.5-0.1-0.8c-0.1-0.3-0.2-0.5-0.4-0.7c-0.2-0.2-0.4-0.4-0.7-0.5c-0.3-0.1-0.6-0.2-1-0.2
		c-0.7,0-1.3,0.3-1.6,0.8c-0.3,0.5-0.5,1.2-0.5,2.2V53.5z"/>
	<path class="st2" d="M207.1,57.4c-0.5,0.4-1.1,0.7-1.7,0.9c-0.7,0.2-1.5,0.3-2.4,0.3c-0.6,0-1.1-0.1-1.7-0.3
		c-0.5-0.2-1-0.4-1.5-0.8c-0.4-0.4-0.8-0.9-1-1.6c-0.3-0.7-0.4-1.5-0.4-2.5v-1.1c0-0.9,0.1-1.7,0.4-2.3c0.2-0.7,0.6-1.2,1-1.6
		c0.4-0.4,0.9-0.7,1.4-0.9c0.6-0.2,1.1-0.3,1.8-0.3c0.6,0,1.2,0.1,1.8,0.3c0.5,0.2,1,0.5,1.4,0.9c0.4,0.4,0.7,0.9,0.9,1.5
		c0.2,0.6,0.3,1.3,0.3,2.1v1.8h-6.7c0,0.9,0.2,1.6,0.6,2c0.4,0.4,1,0.7,1.8,0.7c0.6,0,1.1-0.1,1.6-0.2c0.5-0.1,0.9-0.4,1.5-0.7
		L207.1,57.4z M205.2,51.9v-0.5c0-0.3,0-0.6-0.1-0.8c-0.1-0.3-0.2-0.5-0.4-0.7c-0.2-0.2-0.4-0.4-0.7-0.5c-0.3-0.1-0.6-0.2-1-0.2
		c-0.8,0-1.3,0.2-1.7,0.7s-0.6,1-0.6,1.6v0.4H205.2z"/>
	<path class="st2" d="M215,43h2.4v2.7H215V43z M215,47.4h2.3v11.1H215V47.4z"/>
	<path class="st2" d="M225.4,47.1c0.4,0,0.9,0.1,1.3,0.2c0.4,0.1,0.8,0.4,1.1,0.7c0.3,0.3,0.6,0.8,0.8,1.3c0.2,0.5,0.3,1.2,0.3,1.9
		v7.2h-2.3v-6.7c0-1.6-0.6-2.4-1.9-2.4c-0.2,0-0.4,0-0.6,0.1c-0.2,0.1-0.5,0.2-0.7,0.4c-0.2,0.2-0.4,0.4-0.6,0.8
		c-0.2,0.3-0.2,0.8-0.2,1.3v6.6h-2.3V47.4h2.2v1.3h0c0.4-0.6,0.8-1,1.3-1.2C224.2,47.2,224.8,47.1,225.4,47.1z"/>
	<path class="st2" d="M242.1,50.3l5.3,8.1h-2.9l-4-6.2l-1.2,1.5v4.8H237V43.9h2.3v6.7l5.2-6.7h2.7L242.1,50.3z"/>
	<path class="st2" d="M252.8,58.6c-0.7,0-1.4-0.1-1.9-0.3c-0.6-0.2-1.1-0.6-1.5-1c-0.4-0.4-0.7-1-0.9-1.6c-0.2-0.6-0.3-1.4-0.3-2.2
		v-1.3c0-0.8,0.1-1.5,0.3-2.2c0.2-0.6,0.5-1.2,0.9-1.6c0.4-0.4,0.9-0.8,1.5-1c0.6-0.2,1.2-0.3,1.9-0.3c0.7,0,1.3,0.1,1.9,0.3
		c0.6,0.2,1.1,0.6,1.5,1c0.4,0.4,0.7,1,0.9,1.6c0.2,0.6,0.3,1.4,0.3,2.2v1.3c0,0.8-0.1,1.5-0.3,2.2c-0.2,0.6-0.5,1.2-0.9,1.6
		c-0.4,0.4-0.9,0.8-1.5,1C254.1,58.5,253.5,58.6,252.8,58.6z M252.8,56.4c0.3,0,0.7-0.1,0.9-0.2c0.3-0.1,0.5-0.3,0.8-0.5
		c0.2-0.2,0.4-0.5,0.5-0.9c0.1-0.4,0.2-0.8,0.2-1.4v-1.2c0-1.1-0.2-1.8-0.6-2.3c-0.4-0.4-1-0.7-1.7-0.7c-0.7,0-1.3,0.2-1.7,0.7
		c-0.4,0.4-0.6,1.2-0.6,2.3v1.2c0,0.5,0.1,1,0.2,1.4c0.1,0.4,0.3,0.7,0.5,0.9c0.2,0.2,0.5,0.4,0.8,0.5
		C252.1,56.4,252.4,56.4,252.8,56.4z"/>
	<path class="st2" d="M265.6,49.6c-0.2-0.1-0.4-0.1-0.5-0.2c-0.2,0-0.4-0.1-0.7-0.1c-0.3,0-0.6,0.1-0.9,0.2
		c-0.3,0.1-0.5,0.3-0.7,0.5c-0.2,0.2-0.4,0.5-0.5,0.8c-0.1,0.3-0.2,0.6-0.2,1v6.6h-2.3V47.4h2.2V49h0c0.3-0.6,0.6-1,1.1-1.4
		c0.4-0.3,1-0.5,1.7-0.5c0.3,0,0.5,0,0.8,0.1c0.3,0,0.5,0.1,0.7,0.2L265.6,49.6z"/>
	<path class="st2" d="M276,57.4c-0.5,0.4-1.1,0.7-1.7,0.9c-0.7,0.2-1.5,0.3-2.4,0.3c-0.6,0-1.1-0.1-1.7-0.3c-0.5-0.2-1-0.4-1.5-0.8
		c-0.4-0.4-0.8-0.9-1-1.6c-0.3-0.7-0.4-1.5-0.4-2.5v-1.1c0-0.9,0.1-1.7,0.4-2.3c0.2-0.7,0.6-1.2,1-1.6c0.4-0.4,0.9-0.7,1.4-0.9
		c0.6-0.2,1.1-0.3,1.8-0.3c0.6,0,1.2,0.1,1.8,0.3c0.5,0.2,1,0.5,1.4,0.9c0.4,0.4,0.7,0.9,0.9,1.5c0.2,0.6,0.3,1.3,0.3,2.1v1.8h-6.7
		c0,0.9,0.2,1.6,0.6,2c0.4,0.4,1,0.7,1.8,0.7c0.6,0,1.1-0.1,1.6-0.2c0.5-0.1,0.9-0.4,1.5-0.7L276,57.4z M274.1,51.9v-0.5
		c0-0.3,0-0.6-0.1-0.8c-0.1-0.3-0.2-0.5-0.4-0.7c-0.2-0.2-0.4-0.4-0.7-0.5c-0.3-0.1-0.6-0.2-1-0.2c-0.8,0-1.3,0.2-1.7,0.7
		c-0.4,0.4-0.6,1-0.6,1.6v0.4H274.1z"/>
	<path class="st2" d="M281.5,58.6c-1.1,0-1.9-0.3-2.5-0.8c-0.6-0.5-0.9-1.3-0.9-2.3v-0.6c0-0.5,0.1-0.9,0.2-1.3s0.3-0.7,0.6-1
		c0.3-0.3,0.7-0.5,1.2-0.7c0.5-0.2,1.1-0.2,1.8-0.2h2.3v-0.4c0-0.7-0.1-1.2-0.4-1.5c-0.3-0.3-0.7-0.5-1.4-0.5c-1,0-2,0.4-2.8,1.1
		l-1.1-1.9c0.5-0.4,1.1-0.7,1.7-1c0.6-0.3,1.4-0.5,2.2-0.5c0.6,0,1.1,0.1,1.6,0.2c0.5,0.2,0.9,0.4,1.3,0.7c0.4,0.3,0.6,0.7,0.8,1.1
		c0.2,0.4,0.3,0.9,0.3,1.5v7.8h-2l0-1.4c-0.1,0.2-0.3,0.5-0.5,0.7c-0.2,0.2-0.5,0.4-0.7,0.5c-0.3,0.1-0.5,0.2-0.8,0.3
		C282,58.6,281.7,58.6,281.5,58.6z M284.1,53.7h-2.2c-0.6,0-1,0.1-1.3,0.4c-0.2,0.3-0.4,0.6-0.4,1v0.2c0,0.4,0.1,0.6,0.3,0.8
		c0.2,0.2,0.6,0.3,1,0.3c0.9,0,1.6-0.2,2.1-0.7c0.2-0.2,0.3-0.5,0.4-0.7c0-0.3,0.1-0.6,0.1-1V53.7z"/>
</g>
<g>
	<path class="st1" d="M64.1,76.1c-5.5,0-9.8,1.9-13,5.6c-3.2,3.7-4.7,9.1-4.7,16.3v6.8c0,7.1,1.6,12.5,4.7,16.3
		c3.2,3.7,7.5,5.6,13,5.6s9.8-1.9,13-5.6c3.2-3.7,4.7-9.1,4.7-16.3V98c0-7.1-1.6-12.5-4.7-16.3C73.9,78,69.6,76.1,64.1,76.1z"/>
	<path class="st1" d="M70.9,0C36.4,0,7.7,24.6,1.3,57.2H4l22.6,38.4l0.4,0.8l0.4-0.8l21.7-38.4h3.7l-24.2,42l-0.1,0.1v0.1v28.3
		c11.8,8.7,26.4,13.9,42.2,13.9c14.6,0,28.2-4.4,39.5-12c-5.3-0.2-9.7-2-12.9-5.5c-3.5-3.7-5.2-9.1-5.2-16.2V73.9h3.4V107
		c0,3.8,0.4,6.9,1.3,9.4c0.8,2.5,2,4.5,3.4,6c1.4,1.5,3.1,2.6,5,3.2c1.9,0.6,4,1,6.1,1c1.2,0,2.4-0.1,3.6-0.3
		c4.2-3.4,8.1-7.2,11.4-11.5c0.5-2.2,0.8-4.8,0.8-7.8V73.9h3.4v34.2c0,0.3,0,0.6,0,0.9c7.1-11,11.2-24.1,11.2-38.1
		C141.7,31.7,110,0,70.9,0z M85.2,104.9c0,3.6-0.4,6.9-1.3,10c-0.9,3.1-2.2,5.7-4,7.9c-1.8,2.2-4,3.9-6.6,5.2
		c-2.6,1.2-5.7,1.8-9.2,1.8c-3.5,0-6.6-0.6-9.2-1.8c-2.6-1.2-4.8-2.9-6.6-5.2c-1.8-2.2-3.1-4.8-4-7.9c-0.9-3.1-1.3-6.4-1.3-10v-6.9
		c0-3.6,0.4-6.9,1.3-10c0.9-3.1,2.2-5.7,4-7.9c1.8-2.2,4-3.9,6.6-5.2c2.6-1.2,5.7-1.8,9.2-1.8c3.5,0,6.6,0.6,9.2,1.8
		c2.6,1.2,4.8,2.9,6.6,5.2c1.8,2.2,3.1,4.8,4,7.9c0.9,3.1,1.3,6.4,1.3,10V104.9z"/>
	<path class="st1" d="M25.2,99.3l-0.1-0.1L1.1,58.4C0.4,62.5,0,66.6,0,70.9c0,21.8,9.8,41.2,25.2,54.2V99.5V99.3z"/>
</g>
</svg>
