<svg xmlns="http://www.w3.org/2000/svg" viewBox="0 0 42.94 47.91"><title>icon-alam</title><g id="Layer_2" data-name="Layer 2"><g id="레이어_1" data-name="레이어 1"><path d="M42.15,39.16c-5.09-2.3-5.29-12.17-5.29-12.42V20.12A15.41,15.41,0,0,0,27.43,5.94a6,6,0,0,0-11.92,0A15.41,15.41,0,0,0,6.08,20.12v6.62c0,.25-.2,10.12-5.29,12.42a1.35,1.35,0,0,0,.56,2.58H14.26a7.59,7.59,0,0,0,2,3.91,7.13,7.13,0,0,0,10.41,0,7.59,7.59,0,0,0,2-3.91H41.59a1.35,1.35,0,0,0,.56-2.58Zm-6.71-4.73A15,15,0,0,0,37.81,39H5.13A15,15,0,0,0,7.5,34.44ZM21.47,2.7A3.26,3.26,0,0,1,24.6,5.06a15.47,15.47,0,0,0-6.26,0A3.26,3.26,0,0,1,21.47,2.7ZM8.79,26.75V20.12a12.68,12.68,0,1,1,25.37,0v6.64a28.2,28.2,0,0,0,.57,5H8.21a28.22,28.22,0,0,0,.57-5ZM21.47,45.21A4.74,4.74,0,0,1,17,41.75h8.88a4.74,4.74,0,0,1-4.44,3.46Zm0,0" fill="#666"/></g></g></svg>