<svg xmlns="http://www.w3.org/2000/svg" viewBox="0 0 65.08 60.62"><title>icon-cart</title><g id="Layer_2" data-name="Layer 2"><g id="레이어_1" data-name="레이어 1"><path d="M64.67,11a1.81,1.81,0,0,0-1.4-.66H11.44L9.72,1.47A1.81,1.81,0,0,0,7.94,0H1.81a1.81,1.81,0,1,0,0,3.63H6.44l7.81,40.87A1.81,1.81,0,0,0,16,46h6.41a7.37,7.37,0,1,0,2.63,0H48.63a7.37,7.37,0,1,0,2.63,0h5.52a1.81,1.81,0,1,0,0-3.63H17.56L17,39.21H58.26A1.81,1.81,0,0,0,60,37.74l5-25.24a1.81,1.81,0,0,0-.38-1.5Zm-11,42.24a3.75,3.75,0,1,1-3.75-3.75,3.75,3.75,0,0,1,3.75,3.75Zm-26.19,0a3.75,3.75,0,1,1-3.75-3.75,3.75,3.75,0,0,1,3.75,3.75ZM16.33,35.58,13.87,22.89h6.85L22.8,35.58Zm18.46,0H26.47L24.39,22.89h10.4Zm12.07,0H38.41V22.89H48.68Zm9.92,0H50.52l1.82-12.69h6.95ZM60,19.26H13.17l-1-5.29H61.06Zm0,0" fill="#666"/></g></g></svg>