<svg xmlns="http://www.w3.org/2000/svg" viewBox="0 0 69.2 57.66"><title>icon-contact</title><g id="Layer_2" data-name="Layer 2"><g id="레이어_1" data-name="레이어 1"><path d="M25.71,28.46a2.4,2.4,0,0,0-.43.13,2.27,2.27,0,0,0-1.4,2.09,2.18,2.18,0,0,0,0,.44,2.35,2.35,0,0,0,.13.43,2.06,2.06,0,0,0,.21.39,2.23,2.23,0,0,0,.62.62,2.12,2.12,0,0,0,.39.21,2.06,2.06,0,0,0,.43.13,2.09,2.09,0,0,0,.44,0,2.26,2.26,0,1,0-.44-4.48Z" fill="#666"/><path d="M45.14,29.82a2.31,2.31,0,0,0-.21-.39,2.22,2.22,0,0,0-.28-.35,2.22,2.22,0,0,0-.73-.49,2.32,2.32,0,0,0-.42-.13,2.17,2.17,0,0,0-.88,0,2.41,2.41,0,0,0-.43.13,2.28,2.28,0,0,0-.39.21,2.43,2.43,0,0,0-.34.28,2.13,2.13,0,0,0-.28.35,2.19,2.19,0,0,0-.21.39,2.15,2.15,0,0,0-.13.42,2.24,2.24,0,0,0,0,.44,2.18,2.18,0,0,0,0,.44,2.14,2.14,0,0,0,.13.43,2.19,2.19,0,0,0,.21.39,2.16,2.16,0,0,0,.28.34,2,2,0,0,0,.34.28,2.27,2.27,0,0,0,.81.34,2.09,2.09,0,0,0,.44,0,2.16,2.16,0,0,0,.44,0,2,2,0,0,0,.42-.13,2.21,2.21,0,0,0,.39-.21,2,2,0,0,0,.34-.28,2.25,2.25,0,0,0,.28-.34,2.31,2.31,0,0,0,.21-.39,2.46,2.46,0,0,0,.13-.43,2.19,2.19,0,0,0,0-.44,2.24,2.24,0,0,0,0-.44A2.51,2.51,0,0,0,45.14,29.82Z" fill="#666"/><path d="M68.15,30.43A33.71,33.71,0,0,0,1,30.44,9.56,9.56,0,0,0,9.57,44.34H13.7A23.06,23.06,0,0,0,48.4,53.07l6.41,1.14A11.49,11.49,0,0,0,68.31,42.9V38.79a9.53,9.53,0,0,0-.16-8.36ZM9.44,40.89a6.11,6.11,0,0,1,.13-12.22H11.5a24.89,24.89,0,0,0,.09,12.22Zm4.1-15.68h-4a9.51,9.51,0,0,0-3.47.65,29.56,29.56,0,0,1,57,0,9.52,9.52,0,0,0-3.47-.65h-4a23.06,23.06,0,0,0-42.14,0ZM48.08,48.8l-1.51-.27a3.64,3.64,0,1,0-5.41,4.52,19.66,19.66,0,1,1,6.92-4.25Zm13.46-.27a7.32,7.32,0,0,1-6,1.6l-3.37-.6a23.1,23.1,0,0,0,3.34-5.18h4.13a9.51,9.51,0,0,0,4.53-1.14A7.32,7.32,0,0,1,61.54,48.53ZM65.7,35.47a6.13,6.13,0,0,1-6.07,5.42h-2a24.89,24.89,0,0,0,.09-12.22h1.94a6.11,6.11,0,0,1,6.1,5.83c0,.09,0,.18,0,.28A6.13,6.13,0,0,1,65.7,35.47Z" fill="#666"/></g></g></svg>