<svg xmlns="http://www.w3.org/2000/svg" viewBox="0 0 325 325"><title>icon-weibo</title><g id="Layer_2" data-name="Layer 2"><g id="레이어_1" data-name="레이어 1"><rect width="325" height="325" rx="40" ry="40" fill="#f29600"/><path d="M285.84,122.4c1.06,13.78-1.27,30.28-10.36,31.09-14.85,1.32-7.1-15-6.9-24.87.54-28.53-23.81-48.35-47.67-48.35-6.76,0-22.46,4.58-20-9.67,1.09-6.28,6.41-6.19,11.74-6.9C252.73,58.33,283,85.94,285.84,122.4Z" fill="#fff"/><path d="M220.21,155.56c17.25,9.44,38,14.13,34.54,42.14-.82,6.71-4.88,15.68-9,21.4-29.16,40.81-117.1,58-172,26.95-18.42-10.41-37.48-25.63-34.54-56,2.53-26.1,20.08-46.32,37.31-63.54,16.43-16.44,33.76-29.3,57.33-35.23,25.58-6.43,33.14,14.89,26.25,35.92,14.81-1,46.22-17.53,60.1-1.38C226.33,133,224,145.72,220.21,155.56Zm-18.65,66.31c5.53-6.27,11.08-15.81,11-26.93-.07-34.33-43.32-47-77.36-44.21-18.62,1.53-31.15,5.46-44.21,13.13-10.67,6.26-23.15,16.44-26.25,31.77-7,34.46,30.5,50.66,58,52.5C154.61,250.26,186.45,239,201.56,221.87Z" fill="#fff"/><path d="M252,122.4c1.45,10.52-1.56,19.64-7.6,20-10.07.67-6.3-6.89-6.91-15.89-.38-5.54-5-11.94-9-13.82-7.86-3.68-20,2.68-20-8.29,0-8.14,7.06-7.29,11.06-7.6C237,95.51,249.94,107.57,252,122.4Z" fill="#fff"/><path d="M171.17,191.48c14.72,44.48-62,65.17-76,26.94-9.38-25.56,13.15-45.9,36.61-48.35C151.82,168,166.76,178.18,171.17,191.48Zm-35.23,7.6c3.12,5.41,10.3,1.52,9.67-2.76C144.85,191.37,135.87,192.1,135.94,199.08ZM123.5,222.57c12.89-3.07,14.63-27.35-4.83-22.8C102.32,203.59,105.48,226.86,123.5,222.57Z" fill="#fff"/></g></g></svg>