<svg xmlns="http://www.w3.org/2000/svg" viewBox="0 0 45.28 42.76"><title>icon-profile</title><g id="Layer_2" data-name="Layer 2"><g id="레이어_1" data-name="레이어 1"><path d="M38.41,29.09a25.13,25.13,0,0,0-8.58-3.79A14.88,14.88,0,0,0,34.7,14c0-7.74-5.41-14-12.06-14S10.57,6.3,10.57,14A14.88,14.88,0,0,0,15.45,25.3a25.13,25.13,0,0,0-8.58,3.79C2.44,32.21,0,36.43,0,41a1.81,1.81,0,0,0,1.81,1.81H43.47A1.81,1.81,0,0,0,45.28,41c0-4.53-2.44-8.74-6.87-11.86ZM34.7,39.15V35.92a1.81,1.81,0,0,0-3.61,0v3.23H14.19V35.92a1.81,1.81,0,0,0-3.61,0v3.23H3.8A12,12,0,0,1,8.95,32a23.89,23.89,0,0,1,13.69-4,23.89,23.89,0,0,1,13.69,4,11.94,11.94,0,0,1,5.15,7.1ZM14.19,14c0-5.75,3.79-10.42,8.45-10.42S31.09,8.29,31.09,14,27.3,24.46,22.64,24.46,14.19,19.78,14.19,14Zm0,0" fill="#666"/></g></g></svg>