<svg xmlns="http://www.w3.org/2000/svg" viewBox="0 0 325 325"><title>sns-facebook</title><g id="Layer_2" data-name="Layer 2"><g id="레이어_1" data-name="레이어 1"><rect width="325" height="325" rx="40" ry="40" fill="#475993"/><path d="M131.63,289.62l.19-109.84H103.28a6.73,6.73,0,0,1-6.73-6.71l-.14-35.41a6.74,6.74,0,0,1,6.73-6.76h28.49V96.69c0-39.7,24.25-61.32,59.66-61.32h29.06a6.74,6.74,0,0,1,6.73,6.73V72a6.73,6.73,0,0,1-6.73,6.73H202.53c-19.26,0-23,9.15-23,22.58v29.62h42.32a6.73,6.73,0,0,1,6.69,7.52l-4.2,35.41a6.73,6.73,0,0,1-6.69,5.94H179.73l-.19,109.84Z" fill="#fff"/></g></g></svg>